<?xml version="1.0" standalone="no"?><!DOCTYPE svg PUBLIC "-//W3C//DTD SVG 1.1//EN" "http://www.w3.org/Graphics/SVG/1.1/DTD/svg11.dtd"><svg t="1758858808955" class="icon" viewBox="0 0 1024 1024" version="1.1" xmlns="http://www.w3.org/2000/svg" p-id="9707" xmlns:xlink="http://www.w3.org/1999/xlink" width="200" height="200"><path d="M445.973333 55.466667c68.48-7.466667 135.786667-22.4 203.946667-32.533334 29.653333-4.906667 62.4 0.426667 85.973333 20.16 20.053333 23.893333 16.64 56.426667 8.96 84.373334 34.133333 19.946667 61.76 48.213333 88.853334 76.48l-5.226667 4.266666-10.346667 8c-29.76-29.866667-59.626667-61.12-99.733333-76.8 16.64-32.853333 24.746667-88.96-24.213333-96-14.4-4.266667-28.906667-4.586667-43.84-0.746666-88.746667 13.973333-177.6 28.8-265.493334 47.466666-50.346667 13.013333-105.173333 29.12-140.693333 69.333334-68.16 41.066667-119.786667 108.586667-151.466667 181.226666-3.84-3.2-11.733333-9.6-15.573333-12.693333C140.053333 179.2 287.253333 76.053333 445.973333 55.466667z" fill="#444A67" p-id="9708"></path><path d="M637.76 226.666667c12.8-35.84 42.133333-60.8 70.293333-84.586667 44.48 24.426667 85.333333 55.573333 120 92.693333a5455.36 5455.36 0 0 0-61.013333 60.693334c-14.72-1.173333-29.333333-1.813333-44.053333-2.026667-20.373333 6.293333-40 15.04-58.56 25.706667 6.4-21.973333 17.173333-42.133333 24.32-63.786667 0.533333-26.666667-30.4-31.573333-50.986667-28.693333z" fill="#444A67" p-id="9709"></path><path d="M384.853333 90.133333C472.746667 71.466667 561.6 56.64 650.346667 42.666667c8.746667 16.96 34.026667 16.32 43.84 0.746666 48.96 7.04 40.853333 63.146667 24.213333 96 40.106667 15.68 69.973333 46.933333 99.733333 76.8 22.72 22.506667 45.973333 46.08 55.786667 77.44-13.76-20.8-29.12-40.533333-45.866667-58.88-34.666667-37.12-75.52-68.266667-120-92.693333-6.933333-3.626667-13.866667-7.04-21.013333-10.24-5.653333-18.133333-2.346667-52.053333-29.226667-52.48-25.386667 2.56-49.173333 13.12-73.706666 19.2-115.946667-22.826667-240.426667-4.586667-339.946667 60.906667 35.52-40.213333 90.346667-56.32 140.693333-69.333334zM858.346667 225.066667c6.72 0.64 20.053333 1.813333 26.666666 2.453333 16.853333 9.28 39.146667 14.4 54.613334-0.64l7.68-5.546667c24.96 12.8 52.266667 35.52 45.226666 67.2-8.533333 51.413333-28.586667 100.16-39.893333 151.04-6.933333-23.68-13.973333-47.36-17.28-71.893333 6.4-25.28 17.386667-49.6 19.84-75.733333-8.106667-30.72-45.333333-23.04-69.12-24.96-10.986667-12.8-20.053333-26.986667-27.733333-41.92zM717.653333 423.146667c12.266667-0.426667 22.613333 3.413333 31.04 11.52-4.053333 33.6-49.493333 18.133333-31.04-11.52z" fill="#C1C5D2" p-id="9710"></path><path d="M650.346667 42.666667c14.933333-3.84 29.44-3.52 43.84 0.746666-9.813333 15.573333-35.093333 16.213333-43.84-0.746666z" fill="#E7ECF5" p-id="9711"></path><path d="M584.106667 98.56c24.533333-6.08 48.32-16.64 73.706666-19.2 26.88 0.426667 23.573333 34.346667 29.226667 52.48-34.24-11.413333-68.8-21.76-102.933333-33.28z" fill="#8C97AC" p-id="9712"></path><path d="M244.16 159.466667c99.52-65.493333 224-83.733333 339.946667-60.906667 34.133333 11.52 68.693333 21.866667 102.933333 33.28 7.146667 3.2 14.08 6.613333 21.013333 10.24-28.16 23.786667-57.493333 48.746667-70.293333 84.586667-12.266667 1.92-24.746667 3.84-37.226667 3.413333 10.666667-10.88 25.066667-28.053333 13.226667-43.52-35.306667-34.773333-90.88-40.96-135.466667-21.333333-6.506667 1.6-13.013333 3.2-19.52 4.693333-17.813333 3.2-35.733333 6.293333-53.44 9.92-21.12 5.226667-41.813333 12.266667-61.44 21.76-6.4-3.626667-19.093333-11.093333-25.493333-14.826667 7.36-5.44 14.72-10.88 22.186667-16.106666-41.28 8-82.986667 17.066667-120.106667 37.546666l-36.16 15.253334c19.52-21.653333 39.466667-43.093333 59.84-64zM77.12 328c3.84 3.093333 11.733333 9.493333 15.573333 12.693333-44.053333 107.093333-44.266667 231.146667 0.426667 338.026667 32.106667 77.013333 87.04 145.28 157.866667 190.08-0.96 5.653333-2.986667 16.746667-3.946667 22.4C164.266667 835.626667 98.133333 754.88 65.493333 660.16 26.56 553.173333 31.146667 432.106667 77.12 328zM543.146667 941.653333c71.146667-8.106667 147.626667-26.24 194.773333-84.586666 12.053333 5.333333 24 10.666667 36.053333 16-124.906667 90.24-291.946667 116.693333-437.333333 63.253333 10.56-4.373333 21.12-8.853333 31.36-13.866667 6.08 2.24 18.133333 6.826667 24.106667 9.066667 48.96 14.186667 100.693333 14.933333 151.04 10.133333z" fill="#555B7A" p-id="9713"></path><path d="M478.293333 165.226667c44.586667-19.626667 100.16-13.44 135.466667 21.333333 11.84 15.466667-2.56 32.64-13.226667 43.52-6.613333 6.826667-13.333333 13.44-19.84 20.266667-8-21.973333-15.466667-44.16-22.506666-66.346667-26.346667-7.36-52.8-14.4-79.893334-18.773333z" fill="#CED8E9" p-id="9714"></path><path d="M92.693333 340.693333c31.68-72.64 83.306667-140.16 151.466667-181.226666a2258.24 2258.24 0 0 0-59.84 64l36.16-15.253334C150.08 272.64 98.773333 361.493333 96.64 458.666667c-6.293333 71.68 17.28 142.186667 54.186667 202.773333 6.4-15.04 12.8-30.08 18.346666-45.44-5.546667 45.44 0.32 92.586667 24.106667 132.373333l16.32 32.32c-45.44-26.346667-73.066667-73.066667-116.48-101.973333-44.693333-106.88-44.48-230.933333-0.426667-338.026667z" fill="#CCD6EA" p-id="9715"></path><path d="M458.773333 169.92c6.506667-1.493333 13.013333-3.093333 19.52-4.693333 27.093333 4.373333 53.546667 11.413333 79.893334 18.773333 7.04 22.186667 14.506667 44.373333 22.506666 66.346667-4.266667 4.373333-12.693333 13.12-16.96 17.6l-9.386666 6.826666c-9.386667-13.333333-19.733333-26.026667-30.826667-37.866666-0.853333-30.506667-28.906667-46.826667-51.52-61.44l-13.226667-5.546667z" fill="#E7ECF7" p-id="9716"></path><path d="M220.48 208.213333c37.12-20.48 78.826667-29.546667 120.106667-37.546666-7.466667 5.226667-14.826667 10.666667-22.186667 16.106666-4.053333 3.2-12.266667 9.706667-16.426667 12.906667-23.573333 4.906667-51.306667 5.866667-67.84 26.24-8.64 16.106667-2.56 34.24-0.96 51.2 8 1.173333 24 3.626667 32.106667 4.8 7.466667 24.64 27.413333 41.173333 48.64 54.186667-30.72 3.626667-58.24-9.493333-82.88-26.346667-45.44 34.666667-72.213333 92.48-72.426667 149.226667-0.426667 40.32 22.4 74.986667 42.24 108.266666-6.186667 17.28-10.986667 37.226667-0.213333 53.973334 21.866667 42.773333 58.666667 74.773333 92.053333 108.373333-0.533333 5.44-1.813333 16.32-2.453333 21.866667-18.88-10.88-37.653333-21.866667-54.613333-35.413334-25.92-34.88-44.48-74.453333-62.72-113.706666l-3.733334 13.653333c-5.546667 15.36-11.946667 30.4-18.346666 45.44C113.92 600.853333 90.346667 530.346667 96.64 458.666667c2.133333-97.173333 53.44-186.026667 123.84-250.453334zM664.426667 319.146667c18.56-10.666667 38.186667-19.413333 58.56-25.706667 21.013333 20.8 43.84 40 61.44 63.893333 17.92 24.426667 11.413333 56.32 11.2 84.48-21.333333-30.08-51.093333-62.826667-91.626667-60.16-28.053333-2.026667-71.786667 15.68-80.746667-23.68 10.453333-16 26.24-27.413333 41.173334-38.826666z" fill="#DDE5F5" p-id="9717"></path><path d="M405.333333 179.84c17.706667-3.626667 35.626667-6.72 53.44-9.92l13.226667 5.546667c2.773333 16.746667 5.226667 33.493333 7.466667 50.24-15.893333 31.253333-67.2 44.373333-88 12.053333-13.866667-19.946667 6.506667-39.893333 13.866666-57.92M427.946667 192l-4.586667 9.173333-7.146667-12.16c-25.28 5.76-6.933333 34.026667 0.106667 47.146667 14.08-6.293333 29.12-10.026667 44.48-10.88-0.32-10.026667-1.066667-30.08-1.493333-40.106667l-10.453334 8c-5.226667-0.32-15.68-0.853333-20.906666-1.173333z" fill="#436179" p-id="9718"></path><path d="M343.893333 201.6c19.626667-9.493333 40.32-16.533333 61.44-21.76-7.36 18.026667-27.733333 37.973333-13.866666 57.92 20.8 32.32 72.106667 19.2 88-12.053333 3.306667-3.84 9.813333-11.626667 13.12-15.573334 2.346667 37.12-9.28 80.96-48 94.613334-41.813333 7.893333-95.253333 9.28-125.866667-25.706667-21.013333-27.626667 3.306667-59.52 25.173333-77.44z" fill="#F2F3F3" p-id="9719"></path><path d="M472 175.466667c22.613333 14.613333 50.666667 30.933333 51.52 61.44-5.12 19.2-5.226667 38.826667 3.626667 57.066666-37.013333 16.853333-73.173333 36.373333-112.64 46.826667-33.28 8.64-67.413333 0.106667-100.586667-4.693333-21.226667-13.013333-41.173333-29.546667-48.64-54.186667 3.2-30.72 17.706667-58.346667 36.693333-82.24 4.16-3.2 12.373333-9.706667 16.426667-12.906667 6.4 3.733333 19.093333 11.2 25.493333 14.826667-21.866667 17.92-46.186667 49.813333-25.173333 77.44 30.613333 34.986667 84.053333 33.6 125.866667 25.706667 38.72-13.653333 50.346667-57.493333 48-94.613334-3.306667 3.946667-9.813333 11.733333-13.12 15.573334-2.24-16.746667-4.693333-33.493333-7.466667-50.24z" fill="#414866" p-id="9720"></path><path d="M427.946667 192c5.226667 0.32 15.68 0.853333 20.906666 1.173333l-12.906666 21.866667c-3.093333-3.52-9.493333-10.453333-12.586667-13.866667l4.586667-9.173333z" fill="#8B8E99" p-id="9721"></path><path d="M448.853333 193.173333l10.453334-8c0.426667 10.026667 1.173333 30.08 1.493333 40.106667-15.36 0.853333-30.4 4.586667-44.48 10.88-7.04-13.12-25.386667-41.386667-0.106667-47.146667l7.146667 12.16c3.093333 3.413333 9.493333 10.346667 12.586667 13.866667l12.906666-21.866667z" fill="#101528" p-id="9722"></path><path d="M234.133333 225.92c16.533333-20.373333 44.266667-21.333333 67.84-26.24-18.986667 23.893333-33.493333 51.52-36.693333 82.24-8.106667-1.173333-24.106667-3.626667-32.106667-4.8-1.6-16.96-7.68-35.093333 0.96-51.2z" fill="#BDCADC" p-id="9723"></path><path d="M828.48 208.213333c42.773333 3.626667 85.76-15.36 127.786667-0.853333 39.146667 10.133333 64.32 53.013333 55.68 92.16-17.92 84.8-54.72 165.76-59.413334 253.12-9.706667 102.293333-56.426667 199.466667-126.08 274.346667-14.613333 16.213333-31.786667 29.866667-51.413333 39.466666l1.92-11.946666c40.213333-46.826667 86.72-89.493333 113.813333-146.133334 53.973333-93.013333 62.08-207.466667 29.973334-309.226666-11.52-36.906667-31.573333-70.186667-46.826667-105.493334-9.813333-31.36-33.066667-54.933333-55.786667-77.44l10.346667-8m29.866667 16.853334c7.68 14.933333 16.746667 29.12 27.733333 41.92 24.213333 30.933333 33.813333 69.76 47.893333 105.706666l1.386667-5.013333c3.306667 24.533333 10.346667 48.213333 17.28 71.893333 11.306667-50.88 31.36-99.626667 39.893333-151.04 7.04-31.68-20.266667-54.4-45.226666-67.2l-7.68 5.546667c-16.106667-8.32-38.933333-8.746667-54.613334 0.64-6.613333-0.64-19.946667-1.813333-26.666666-2.453333z" fill="#4F5160" p-id="9724"></path><path d="M580.693333 250.346667c6.506667-6.826667 13.226667-13.44 19.84-20.266667 12.48 0.426667 24.96-1.493333 37.226667-3.413333 20.586667-2.88 51.52 2.026667 50.986667 28.693333-7.146667 21.653333-17.92 41.813333-24.32 63.786667-14.933333 11.413333-30.72 22.826667-41.173334 38.826666l-2.88 5.226667c3.093333-25.173333 8-50.56 4.906667-76.053333-9.92-11.946667-24.32-18.666667-37.546667-26.026667-6.08 1.706667-18.026667 5.12-24 6.826667 4.266667-4.48 12.693333-13.226667 16.96-17.6z" fill="#9093A4" p-id="9725"></path><path d="M885.013333 227.52c15.68-9.386667 38.506667-8.96 54.613334-0.64-15.466667 15.04-37.76 9.92-54.613334 0.64z" fill="#ECF0F8" p-id="9726"></path><path d="M523.52 236.906667c11.093333 11.84 21.44 24.533333 30.826667 37.866666l9.386666-6.826666c5.973333-1.706667 17.92-5.12 24-6.826667 13.226667 7.36 27.626667 14.08 37.546667 26.026667 3.093333 25.493333-1.813333 50.88-4.906667 76.053333-11.946667 1.706667-23.786667 4.16-35.413333 7.253333-35.413333 46.186667-49.92 116.693333-107.84 140.693334-3.52-6.826667-10.453333-20.693333-13.973333-27.626667-22.08-38.613333-52.266667-81.6-100.586667-85.973333-33.6-5.333333-61.44 21.546667-69.653333 52.266666-3.946667 35.733333-10.88 79.04 17.92 106.773334-6.72 5.226667-13.546667 10.24-20.48 14.933333-34.986667-29.973333-56-72.106667-76.266667-112.64 2.453333 36.586667 2.346667 74.24-13.226667 108.373333-19.84-33.28-42.666667-67.946667-42.24-108.266666 0.213333-56.746667 26.986667-114.56 72.426667-149.226667 24.64 16.853333 52.16 29.973333 82.88 26.346667 33.173333 4.8 67.306667 13.333333 100.586667 4.693333 39.466667-10.453333 75.626667-29.973333 112.64-46.826667-8.853333-18.24-8.746667-37.866667-3.626667-57.066666z" fill="#FBFCFE" p-id="9727"></path><path d="M767.04 295.466667c20.16-20.373333 40.533333-40.64 61.013333-60.693334 16.746667 18.346667 32.106667 38.08 45.866667 58.88 15.253333 35.306667 35.306667 68.586667 46.826667 105.493334-30.293333 29.653333-60.373333 59.52-94.506667 84.8 1.066667-33.28 9.173333-66.453333 5.226667-99.84-5.013333-38.186667-33.066667-68.693333-64.426667-88.64z" fill="#353B57" p-id="9728"></path><path d="M886.08 266.986667c23.786667 1.92 61.013333-5.76 69.12 24.96-2.453333 26.133333-13.44 50.453333-19.84 75.733333l-1.386667 5.013333c-14.08-35.946667-23.68-74.773333-47.893333-105.706666z" fill="#969DB0" p-id="9729"></path><path d="M722.986667 293.44c14.72 0.213333 29.333333 0.853333 44.053333 2.026667 31.36 19.946667 59.413333 50.453333 64.426667 88.64 3.946667 33.386667-4.16 66.56-5.226667 99.84l2.773333 14.4c-2.773333-0.96-8.426667-2.986667-11.306666-4.053334-1.813333-4.586667-5.546667-13.76-7.466667-18.346666-4.586667-11.52-9.28-22.933333-14.613333-34.133334 0.213333-28.16 6.72-60.053333-11.2-84.48-17.6-23.893333-40.426667-43.093333-61.44-63.893333z" fill="#BCC6D9" p-id="9730"></path><path d="M584.96 370.453333c11.626667-3.093333 23.466667-5.546667 35.413333-7.253333-2.24 4.693333-6.506667 14.08-8.746666 18.773333-12.48 6.293333-29.546667 8.533333-35.093334 23.573334a313.450667 313.450667 0 0 0-37.013333 134.08c5.973333 0.32 18.133333 1.173333 24.106667 1.493333 13.76 41.066667 25.706667 82.773333 42.133333 122.773333 11.306667 32.213333 45.44 45.653333 71.146667 64.106667-44.48 61.653333-125.44 74.56-194.453334 91.413333-5.44-10.24-10.986667-20.373333-16.426666-30.613333 3.413333-19.84 5.333333-39.786667 7.253333-59.84 13.76 0.853333 27.626667 1.066667 41.386667 0.96 2.88-3.306667 8.426667-10.026667 11.2-13.333333 13.866667-18.026667 30.08-33.92 47.68-48.213334-0.533333-17.92 0.96-36.373333-3.946667-53.76-9.92-24.533333-35.733333-35.733333-56.64-48.96-27.306667 20.053333-54.506667 45.12-89.813333 48.32-28.373333 3.093333-56.853333 2.133333-85.333334 2.666667l-0.32-37.226667c45.013333 2.026667 100.906667 15.573333 136.533334-20.16 17.173333-11.946667 6.4-32 3.093333-48.106666 57.92-24 72.426667-94.506667 107.84-140.693334z" fill="#D8DFEA" p-id="9731"></path><path d="M620.373333 363.2l2.88-5.226667c8.96 39.36 52.693333 21.653333 80.746667 23.68 40.533333-2.666667 70.293333 30.08 91.626667 60.16 5.333333 11.2 10.026667 22.613333 14.613333 34.133334-6.186667 12.693333-12.266667 25.386667-17.813333 38.4-2.026667-22.613333-7.893333-44.48-14.506667-66.133334l-2.986667 22.4-9.173333 2.24-10.24-30.826666-6.826667-7.36c-8.426667-8.106667-18.773333-11.946667-31.04-11.52l-14.4-3.306667c-15.786667-3.306667-31.68 0.426667-46.826666 4.586667-17.28-6.293333-34.986667-11.733333-52.906667-15.893334l8.106667-26.56c2.24-4.693333 6.506667-14.08 8.746666-18.773333z" fill="#454C69" p-id="9732"></path><path d="M576.533333 405.546667c5.546667-15.04 22.613333-17.28 35.093334-23.573334l-8.106667 26.56c-14.506667 61.226667-26.026667 134.933333 17.066667 187.733334 26.56 35.52 73.493333 48.853333 116.053333 40.853333-13.333333 15.786667-24.96 32.96-36.373333 50.133333 46.4 17.6 77.12-30.826667 107.626666-56.746666 0.106667 44.053333-24.32 82.24-52.8 113.92-51.413333 57.066667-114.133333 111.146667-191.573333 126.4-33.493333 7.466667-67.733333 10.773333-101.973333 13.226666-2.666667-18.24-5.44-36.373333-7.36-54.613333 4.053333-13.546667 8.32-26.986667 11.84-40.64 5.44 10.24 10.986667 20.373333 16.426666 30.613333 69.013333-16.853333 149.973333-29.76 194.453334-91.413333-25.706667-18.453333-59.84-31.893333-71.146667-64.106667-16.426667-40-28.373333-81.706667-42.133333-122.773333-5.973333-0.32-18.133333-1.173333-24.106667-1.493333 2.133333-46.826667 14.826667-92.906667 37.013333-134.08z" fill="#BCC4D6" p-id="9733"></path><path d="M292.906667 449.813333c8.213333-30.72 36.053333-57.6 69.653333-52.266666 48.32 4.373333 78.506667 47.36 100.586667 85.973333-5.013333 0.426667-15.146667 1.173333-20.16 1.6-6.72 11.306667-9.92 44.48-28.586667 29.333333-29.76-29.226667-72.426667-50.773333-82.773333-94.506666-12.693333 10.133333-25.706667 20.053333-38.72 29.866666z" fill="#5E5967" p-id="9734"></path><path d="M603.52 408.533333c17.92 4.16 35.626667 9.6 52.906667 15.893334-54.293333 48.533333-29.866667 161.173333 47.573333 166.4 46.506667 4.053333 77.76-35.733333 88.426667-76.48 5.546667-13.013333 11.626667-25.706667 17.813333-38.4 1.92 4.586667 5.653333 13.76 7.466667 18.346666 2.88 1.066667 8.533333 3.093333 11.306666 4.053334 5.866667 18.026667 4.16 36.48-0.96 54.4-18.24 39.36-49.706667 70.72-91.413333 84.373333-42.56 8-89.493333-5.333333-116.053333-40.853333-43.093333-52.8-31.573333-126.506667-17.066667-187.733334z" fill="#323854" p-id="9735"></path><path d="M826.24 483.946667c34.133333-25.28 64.213333-55.146667 94.506667-84.8 32.106667 101.76 24 216.213333-29.973334 309.226666-27.093333 56.64-73.6 99.306667-113.813333 146.133334l-1.92 11.946666c-0.32 1.6-0.746667 5.013333-1.066667 6.613334-12.053333-5.333333-24-10.666667-36.053333-16 53.44-46.933333 97.066667-111.36 101.44-184 3.093333-40.746667-13.226667-79.786667-11.306667-120.32 5.12-17.92 6.826667-36.373333 0.96-54.4l-2.773333-14.4z" fill="#252A45" p-id="9736"></path><path d="M292.906667 449.813333c13.013333-9.813333 26.026667-19.733333 38.72-29.866666 10.346667 43.733333 53.013333 65.28 82.773333 94.506666 18.666667 15.146667 21.866667-18.026667 28.586667-29.333333 5.013333-0.426667 15.146667-1.173333 20.16-1.6 3.52 6.933333 10.453333 20.8 13.973333 27.626667 3.306667 16.106667 14.08 36.16-3.093333 48.106666-35.626667 35.733333-91.52 22.186667-136.533334 20.16-8.96-7.573333-17.92-15.04-26.666666-22.826666-28.8-27.733333-21.866667-71.04-17.92-106.773334z" fill="#1B2033" p-id="9737"></path><path d="M656.426667 424.426667c15.146667-4.16 31.04-7.893333 46.826666-4.586667-32.746667 15.786667-33.6 67.52 0.106667 82.24 26.986667 17.173333 65.386667-0.213333 71.573333-31.466667l2.986667-22.4c6.613333 21.653333 12.48 43.52 14.506667 66.133334-10.666667 40.746667-41.92 80.533333-88.426667 76.48-77.44-5.226667-101.866667-117.866667-47.573333-166.4z" fill="#EEF1F3" p-id="9738"></path><path d="M703.36 502.08c-33.706667-14.72-32.853333-66.453333-0.106667-82.24-11.733333 25.493333-7.68 51.413333 11.626667 71.573333 3.733333-4.8 11.093333-14.4 14.826667-19.306666 12.053333 0.533333 24 0.96 36.053333 0.746666l9.173333-2.24c-6.186667 31.253333-44.586667 48.64-71.573333 31.466667z" fill="#4D6E86" p-id="9739"></path><path d="M703.253333 419.84l14.4 3.306667c-18.453333 29.653333 26.986667 45.12 31.04 11.52l6.826667 7.36 10.24 30.826666c-12.053333 0.213333-24-0.213333-36.053333-0.746666-3.733333 4.906667-11.093333 14.506667-14.826667 19.306666-19.306667-20.16-23.36-46.08-11.626667-71.573333z" fill="#141B30" p-id="9740"></path><path d="M214.08 458.88c20.266667 40.533333 41.28 82.666667 76.266667 112.64 6.933333-4.693333 13.76-9.706667 20.48-14.933333 8.746667 7.786667 17.706667 15.253333 26.666666 22.826666l0.32 37.226667c53.333333 47.893333 118.826667 81.706667 188.053334 99.946667-2.773333 3.306667-8.32 10.026667-11.2 13.333333-13.76 0.106667-27.626667-0.106667-41.386667-0.96l-9.066667-1.6c-60.266667-21.226667-114.346667-57.493333-159.36-102.506667-23.893333-23.36-47.146667-47.36-70.826666-70.933333-4.266667 17.92-12.48 35.52-10.773334 54.293333 10.56 38.4 43.946667 63.786667 73.066667 88.426667-1.28 10.986667-2.453333 21.973333-3.626667 32.96-33.386667-33.6-70.186667-65.6-92.053333-108.373333-10.773333-16.746667-5.973333-36.693333 0.213333-53.973334 15.573333-34.133333 15.68-71.786667 13.226667-108.373333z" fill="#40455D" p-id="9741"></path><path d="M234.026667 553.92c23.68 23.573333 46.933333 47.573333 70.826666 70.933333-3.093333 23.893333-5.973333 47.786667-8.533333 71.786667-29.12-24.64-62.506667-50.026667-73.066667-88.426667-1.706667-18.773333 6.506667-36.373333 10.773334-54.293333z" fill="#74381A" p-id="9742"></path><path d="M736.64 637.12c41.706667-13.653333 73.173333-45.013333 91.413333-84.373333-1.92 40.533333 14.4 79.573333 11.306667 120.32-4.373333 72.64-48 137.066667-101.44 184-47.146667 58.346667-123.626667 76.48-194.773333 84.586666-50.346667 4.8-102.08 4.053333-151.04-10.133333 25.173333-31.146667 46.613333-65.173333 62.08-102.08 1.92 18.24 4.693333 36.373333 7.36 54.613333 34.24-2.453333 68.48-5.76 101.973333-13.226666 77.44-15.253333 140.16-69.333333 191.573333-126.4 28.48-31.68 52.906667-69.866667 52.8-113.92-30.506667 25.92-61.226667 74.346667-107.626666 56.746666 11.413333-17.173333 23.04-34.346667 36.373333-50.133333z" fill="#A9B1C6" p-id="9743"></path><path d="M423.146667 613.973333c35.306667-3.2 62.506667-28.266667 89.813333-48.32 20.906667 13.226667 46.72 24.426667 56.64 48.96 4.906667 17.386667 3.413333 35.84 3.946667 53.76-17.6 14.293333-33.813333 30.186667-47.68 48.213334-69.226667-18.24-134.72-52.053333-188.053334-99.946667 28.48-0.533333 56.96 0.426667 85.333334-2.666667z" fill="#FFFFFF" p-id="9744"></path><path d="M172.906667 602.346667c18.24 39.253333 36.8 78.826667 62.72 113.706666-14.08 10.773333-28.266667 21.546667-42.346667 32.32-23.786667-39.786667-29.653333-86.933333-24.106667-132.373333l3.733334-13.653333z" fill="#A2AABE" p-id="9745"></path><path d="M296.32 696.64c2.56-24 5.44-47.893333 8.533333-71.786667 45.013333 45.013333 99.093333 81.28 159.36 102.506667-9.92 72.64-34.24 150.08-96.213333 195.093333-10.24 5.013333-20.8 9.493333-31.36 13.866667-19.306667 7.786667-40.64 5.44-61.013333 6.506667-12.053333-15.573333-28.16-30.506667-28.586667-51.626667 0.96-5.653333 2.986667-16.746667 3.946667-22.4 15.04-38.4 32.64-76.266667 39.253333-117.333333 0.64-5.546667 1.92-16.426667 2.453333-21.866667 1.173333-10.986667 2.346667-21.973333 3.626667-32.96m17.6-35.52c-0.853333 38.72-8.853333 76.693333-13.44 115.093333-7.573333 37.653333-26.133333 71.786667-36.48 108.586667-6.08 20.053333 8.746667 47.466667 32.533333 41.813333 37.866667 5.546667 71.146667-19.2 95.253334-45.546666l2.346666 0.96c13.44-21.76 25.493333-44.48 31.893334-69.44-5.12-3.413333-15.36-10.453333-20.48-13.973334-14.08 14.72-27.946667 29.44-42.026667 44.053334-4.8-37.973333-0.426667-76.48-4.586667-114.453334-9.493333-25.6-28.16-46.186667-45.013333-67.093333z" fill="#C7342A" p-id="9746"></path><path d="M313.92 661.12c16.853333 20.906667 35.52 41.493333 45.013333 67.093333 4.16 37.973333-0.213333 76.48 4.586667 114.453334 14.08-14.613333 27.946667-29.333333 42.026667-44.053334 5.12 3.52 15.36 10.56 20.48 13.973334-6.4 24.96-18.453333 47.68-31.893334 69.44l-2.346666-0.96c-18.026667-7.786667-36.053333-15.573333-54.08-23.253334-4.48-25.92-10.88-51.306667-19.306667-76.16-0.853333-2.666667-2.346667-8-3.093333-10.773333-3.733333 1.386667-11.093333 4.053333-14.826667 5.333333 4.586667-38.4 12.586667-76.373333 13.44-115.093333z" fill="#E24E40" p-id="9747"></path><path d="M93.12 678.72c43.413333 28.906667 71.04 75.626667 116.48 101.973333l-16.32-32.32c14.08-10.773333 28.266667-21.546667 42.346667-32.32 16.96 13.546667 35.733333 24.533333 54.613333 35.413334-6.613333 41.066667-24.213333 78.933333-39.253333 117.333333-70.826667-44.8-125.76-113.066667-157.866667-190.08z" fill="#BAC0D3" p-id="9748"></path><path d="M464.213333 727.36l9.066667 1.6c-1.92 20.053333-3.84 40-7.253333 59.84-3.52 13.653333-7.786667 27.093333-11.84 40.64-15.466667 36.906667-36.906667 70.933333-62.08 102.08-5.973333-2.24-18.026667-6.826667-24.106667-9.066667 61.973333-45.013333 86.293333-122.453333 96.213333-195.093333z" fill="#938F9F" p-id="9749"></path><path d="M300.48 776.213333a824.533333 824.533333 0 0 0 14.826667-5.333333c0.746667 2.773333 2.24 8.106667 3.093333 10.773333-9.92 37.226667-19.946667 74.453333-25.28 112.64l27.52 19.093334c-8 4.48-16.106667 8.853333-24.106667 13.226666-23.786667 5.653333-38.613333-21.76-32.533333-41.813333 10.346667-36.8 28.906667-70.933333 36.48-108.586667z" fill="#FFA897" p-id="9750"></path><path d="M293.12 894.293333c5.333333-38.186667 15.36-75.413333 25.28-112.64 8.426667 24.853333 14.826667 50.24 19.306667 76.16 18.026667 7.68 36.053333 15.466667 54.08 23.253334-24.106667 26.346667-57.386667 51.093333-95.253334 45.546666 8-4.373333 16.106667-8.746667 24.106667-13.226666l-27.52-19.093334z" fill="#F76D5A" p-id="9751"></path></svg>