<?xml version="1.0" standalone="no"?><!DOCTYPE svg PUBLIC "-//W3C//DTD SVG 1.1//EN" "http://www.w3.org/Graphics/SVG/1.1/DTD/svg11.dtd"><svg t="1753694081429" class="icon" viewBox="0 0 1024 1024" version="1.1" xmlns="http://www.w3.org/2000/svg" p-id="42244" xmlns:xlink="http://www.w3.org/1999/xlink" width="200" height="200"><path d="M731.325398 527.421399a246.784517 246.784517 0 0 0-199.383832 105.334855l-110.601598-55.676995a235.49864 235.49864 0 0 0 0-33.10524 225.717546 225.717546 0 0 0-10.533485-64.705697l261.079961-142.202053a199.383832 199.383832 0 0 0 150.478364 66.21048 201.641008 201.641008 0 1 0-203.145791-201.641008 246.032125 246.032125 0 0 0 0 33.857632l-270.861055 150.478364-1.504784-4.514351 30.095673-63.200913a158.754674 158.754674 0 1 0-109.849206-30.848065l-19.562187 47.400685a214.431669 214.431669 0 0 0-30.848065 0 212.174493 212.174493 0 0 0 0 424.348986A209.917318 209.917318 0 0 0 376.948851 677.899763l114.363557 58.686562a328.042833 328.042833 0 0 0-3.761959 39.124374A247.536909 247.536909 0 1 0 731.325398 527.421399z m88.782235-413.815501a88.782235 88.782235 0 1 1-88.029843 88.029843 88.782235 88.782235 0 0 1 88.029843-88.029843z m-461.216186 0a46.648293 46.648293 0 0 1 0 93.296586 46.648293 46.648293 0 1 1 0-93.296586z m-145.964013 526.674274a99.31572 99.31572 0 1 1 98.563329-96.306153 99.31572 99.31572 0 0 1-98.563329 99.31572z m518.397964 270.861055a134.678136 134.678136 0 1 1 134.678136-133.925744 133.925744 133.925744 0 0 1-134.678136 133.925744z" fill="#7A7998" p-id="42245"></path></svg>