<?xml version="1.0" standalone="no"?><!DOCTYPE svg PUBLIC "-//W3C//DTD SVG 1.1//EN" "http://www.w3.org/Graphics/SVG/1.1/DTD/svg11.dtd"><svg t="1768748369841" class="icon" viewBox="0 0 1024 1024" version="1.1" xmlns="http://www.w3.org/2000/svg" p-id="1690" xmlns:xlink="http://www.w3.org/1999/xlink" width="200" height="200"><path d="M914.850909 162.909091c57.157818 0 103.959273 41.821091 109.149091 104.564364v512.325818C1024 837.306182 977.221818 884.363636 920.040727 884.363636H103.959273C46.778182 884.363636 0 837.306182 0 779.799273V267.473455C0 209.966545 46.778182 162.909091 103.959273 162.909091z m5.189818 47.057454H103.959273c-31.185455 0-51.968 26.135273-51.968 52.270546v512.349091c0 31.348364 25.972364 52.270545 51.968 52.270545H914.850909c31.185455 0 51.968-26.135273 51.968-52.270545h5.189818V262.237091c0-31.371636-25.972364-52.270545-51.968-52.270546z m-181.922909 412.997819v104.564363H280.669091v-104.564363h457.425454zM332.660364 466.152727v104.564364H228.701091v-104.564364h103.959273z m457.425454 0v104.564364h-103.959273v-104.564364h103.959273z m-306.664727 0v104.564364h-103.959273v-104.564364h103.959273z m155.927273 0v104.564364h-103.959273v-104.564364h103.959273z m-384.651637-151.621818v104.564364H150.737455v-104.564364h103.959272z m613.352728 0v104.564364h-103.959273v-104.564364H868.072727z m-150.737455 0v104.564364h-103.959273v-104.564364h103.959273z m-155.927273 0v104.564364h-103.959272v-104.564364h103.959272z m-150.737454 0v104.564364h-103.959273v-104.564364h103.959273z" fill="#505766" p-id="1691"></path></svg>