<?xml version="1.0" standalone="no"?><!DOCTYPE svg PUBLIC "-//W3C//DTD SVG 1.1//EN" "http://www.w3.org/Graphics/SVG/1.1/DTD/svg11.dtd"><svg t="1772520674338" class="icon" viewBox="0 0 1024 1024" version="1.1" xmlns="http://www.w3.org/2000/svg" p-id="5328" xmlns:xlink="http://www.w3.org/1999/xlink" width="200" height="200"><path d="M238.293333 653.653333a38.912 38.912 0 0 1-30.848-37.76v-207.786666c1.322667-18.858667 13.397333-33.706667 30.848-37.76l191.872-41.813334 20.096-82.261333h-222.72A141.525333 141.525333 0 0 0 85.333333 387.925333v245.504c0 78.208 64.426667 142.976 142.208 142.976h222.72l-20.096-82.304-191.872-40.448z m558.165334-407.381333h-224.085334l20.138667 82.261333 191.872 41.813334a38.912 38.912 0 0 1 30.848 37.76v207.786666c-1.365333 18.858667-13.44 33.706667-30.848 37.76l-191.872 41.813334-20.138667 82.261333h224.085334A142.677333 142.677333 0 0 0 938.666667 634.794667V387.84c-1.365333-78.250667-64.426667-141.653333-142.208-141.653333z m-366.293334 254.933333h163.669334v20.224h-163.669334v-20.224z" fill="#17233D" p-id="5329"></path></svg>