<?xml version="1.0" standalone="no"?><!DOCTYPE svg PUBLIC "-//W3C//DTD SVG 1.1//EN" "http://www.w3.org/Graphics/SVG/1.1/DTD/svg11.dtd"><svg t="1775659350458" class="icon" viewBox="0 0 1024 1024" version="1.1" xmlns="http://www.w3.org/2000/svg" p-id="8860" xmlns:xlink="http://www.w3.org/1999/xlink" width="200" height="200"><path d="M912.001826 511.993556c0 287.074775-112.914143 400.00827-399.988919 400.00827S111.985286 799.068331 111.985286 511.993556c0-287.074775 112.933494-399.988918 400.027621-399.988918 287.055424 0 399.969567 112.914143 399.969567 400.008269z" fill="#ECECEC" p-id="8861"></path><path d="M912.001826 511.993556c0 143.547063-28.233374 214.411089-92.343838 249.417376-32.064907 17.493468-73.089412 26.027339-124.041072 30.187843-25.485506 2.051225-53.447963 3.038135-84.003478 3.502564-15.287433 0.232214-31.213456 0.32897-47.797418 0.387024-16.603314 0.038702-33.864567 32.374526-51.822464 32.374526-17.938545 0-35.199799-32.335824-51.783761-32.374526-16.603314-0.058054-32.529336-0.154809-47.797418-0.387024-30.574867-0.464428-58.537324-1.451339-84.02283-3.521915-50.95166-4.141153-91.976165-12.675024-124.041072-30.187843-64.110464-34.986936-92.343837-105.850962-92.343837-249.398025 0-287.074775 112.933494-399.988918 400.02762-399.988918 287.055424 0 399.969567 112.914143 399.969568 400.008269z" fill="#08CDFF" p-id="8862"></path><path d="M653.392638 511.993556c78.082017 0 141.379731 50.042155 141.379731 111.772424s-63.278363 111.772423-141.379731 111.772423a173.734906 173.734906 0 0 1-55.03476-8.785436c-8.456466-2.825272-28.252725 12.810482-35.760983 8.785436-7.52761-4.025046-2.78657-27.672189-9.191811-32.742199a114.636398 114.636398 0 0 1-30.30395-35.528769 91.685897 91.685897 0 0 1-11.107578-43.501455c0-61.730268 63.317065-111.772423 141.399082-111.772424z m43.888479 73.128114a9.811049 9.811049 0 0 0-9.811048 9.791698 9.811049 9.811049 0 0 0 9.811048 9.811049 9.811049 9.811049 0 0 0 9.791698-9.811049 9.811049 9.811049 0 0 0-9.791698-9.791698z m-81.623282 0a9.811049 9.811049 0 0 0-9.811049 9.791698 9.811049 9.811049 0 0 0 9.811049 9.811049 9.811049 9.811049 0 0 0 9.811048-9.811049 9.811049 9.811049 0 0 0-9.811048-9.791698z" fill="#F9F9F9" p-id="8863"></path></svg>