<?xml version="1.0" standalone="no"?><!DOCTYPE svg PUBLIC "-//W3C//DTD SVG 1.1//EN" "http://www.w3.org/Graphics/SVG/1.1/DTD/svg11.dtd"><svg t="1765201815719" class="icon" viewBox="0 0 1024 1024" version="1.1" xmlns="http://www.w3.org/2000/svg" p-id="1637" xmlns:xlink="http://www.w3.org/1999/xlink" width="200" height="200"><path d="M669.994667 762.026667l-37.973334-100.010667H391.936l-37.973333 99.968c-6.656 18.688-20.010667 28.032-40.021334 28.032-13.312 0-23.978667-6.016-32-18.005333-9.301333-12.032-11.306667-24.661333-5.973333-37.973334l181.973333-462.037333c9.386667-25.344 27.349333-37.973333 54.016-37.973333s44.672 12.629333 54.016 37.973333l181.973334 461.994667a38.826667 38.826667 0 0 1-3.968 37.973333c-10.666667 12.032-22.016 18.048-34.005334 18.048-20.053333 0-33.365333-9.386667-40.021333-28.032zM424.021333 576h175.957334L512 340.010667 423.978667 576zM853.973333 86.016c23.978667 0 43.946667 8.661333 59.989334 25.984 16 16 23.978667 35.328 23.978666 58.026667v683.946666c0 24.021333-7.978667 44.032-23.978666 60.032-16 16-36.010667 23.978667-59.989334 23.978667H169.984c-22.613333 0-41.984-7.978667-57.984-23.978667a78.250667 78.250667 0 0 1-26.026667-59.989333V169.984c0-22.613333 8.704-41.984 26.026667-57.984 16-17.322667 35.328-26.026667 58.026667-26.026667h683.946666z m-640 83.968a42.325333 42.325333 0 0 0-31.018666 13.013333 42.325333 42.325333 0 0 0-13.013334 31.018667v595.968c0 12.032 4.352 22.357333 13.013334 31.018667a42.325333 42.325333 0 0 0 31.018666 13.013333h595.968a42.325333 42.325333 0 0 0 31.018667-13.013333 42.325333 42.325333 0 0 0 13.013333-31.018667V214.016a42.325333 42.325333 0 0 0-13.013333-31.018667 42.325333 42.325333 0 0 0-31.018667-13.013333H214.016z" p-id="1638"></path></svg>