<?xml version="1.0" standalone="no"?><!DOCTYPE svg PUBLIC "-//W3C//DTD SVG 1.1//EN" "http://www.w3.org/Graphics/SVG/1.1/DTD/svg11.dtd"><svg t="1753693974331" class="icon" viewBox="0 0 1024 1024" version="1.1" xmlns="http://www.w3.org/2000/svg" p-id="34941" xmlns:xlink="http://www.w3.org/1999/xlink" width="200" height="200"><path d="M425.508571 146.285714L182.857143 877.714286h133.924571l51.492572-165.705143h249.563428L671.597714 877.714286h137.398857L558.299429 146.285714z" fill="#4E8CEE" p-id="34942"></path><path d="M490.788571 316.562286l85.833143 272.018285h-170.569143z" fill="#A5CDFF" p-id="34943"></path><path d="M732.269714 237.714286l-65.243428-12.580572c6.875429-27.428571 19.492571-46.848 37.778285-59.428571 18.322286-12.544 44.653714-19.419429 80.128-19.419429 32.073143 0 56.100571 3.437714 72.118858 11.446857 16.018286 7.972571 26.331429 17.115429 33.206857 29.696 6.875429 11.446857 9.142857 34.304 9.142857 66.304l-1.133714 85.686858c0 23.990857 1.133714 42.276571 3.437714 53.723428 2.267429 11.446857 6.875429 23.990857 12.580571 37.705143h-70.948571c-2.304-4.571429-4.608-12.580571-6.875429-21.723429-1.170286-4.534857-2.304-6.838857-2.304-9.142857-12.580571 12.580571-25.161143 21.723429-40.045714 27.428572-13.750857 5.741714-28.635429 9.142857-44.653714 9.142857-28.635429 0-50.358857-7.972571-66.377143-22.820572-16.054857-16.018286-24.064-35.474286-24.064-59.465142 0-15.981714 3.437714-29.696 11.446857-42.276572 6.875429-12.580571 17.188571-21.723429 30.902857-28.562286 13.750857-6.875429 32.073143-12.580571 57.234286-17.152 33.206857-6.838857 57.234286-12.544 69.851428-18.285714v-5.705143c0-13.714286-3.437714-23.990857-10.313142-29.732571-6.875429-5.705143-19.456-9.142857-38.912-9.142857-12.617143 0-22.893714 2.304-29.769143 8.045714-6.875429 4.534857-12.580571 12.544-17.188572 26.258286z m96.182857 59.428571c-9.142857 3.437714-24.064 6.875429-43.52 11.446857-19.456 4.534857-33.170286 9.142857-38.912 12.544a32 32 0 0 0-13.750857 26.294857c0 10.276571 3.437714 19.419429 11.446857 26.294858 8.045714 8.009143 17.188571 11.410286 28.635429 11.410285 12.580571 0 25.197714-4.571429 37.778286-12.580571 9.142857-6.838857 14.884571-14.848 17.188571-23.990857 2.267429-5.705143 2.267429-18.285714 2.267429-35.437715l-1.133715-15.981714z" fill="#FFB04B" p-id="34944"></path></svg>