<?xml version="1.0" standalone="no"?><!DOCTYPE svg PUBLIC "-//W3C//DTD SVG 1.1//EN" "http://www.w3.org/Graphics/SVG/1.1/DTD/svg11.dtd"><svg t="1752983515724" class="icon" viewBox="0 0 1024 1024" version="1.1" xmlns="http://www.w3.org/2000/svg" p-id="9170" xmlns:xlink="http://www.w3.org/1999/xlink" width="200" height="200"><path d="M195.483991 17.425393h633.097238c118.705732 0 178.058598 59.352866 178.058598 178.058598v633.097238c0 118.705732-59.352866 178.058598-178.058598 178.058598h-633.097238c-118.705732 0-178.058598-59.352866-178.058598-178.058598v-633.097238c0-118.705732 59.352866-178.058598 178.058598-178.058598z" fill="#FFFFFF" p-id="9171"></path><path d="M828.581229 0c128.293503 0 195.407897 67.114395 195.407897 195.483991v633.097238c0 128.293503-67.114395 195.407897-195.407897 195.407897h-633.097238C67.114395 1023.989126 0 956.874732 0 828.657322v-633.097238C0 67.114395 67.114395 0 195.483991 0h633.097238z m0 34.774692h-633.097238C86.366029 34.774692 34.774692 86.366029 34.774692 195.560084v633.097238C34.774692 937.623097 86.366029 989.214434 195.560084 989.214434h633.097238C937.623097 989.214434 989.214434 937.623097 989.214434 828.581229v-633.097238c0-109.117961-51.591337-160.709299-160.633205-160.709299z" fill="#C0CBDC" p-id="9172"></path><path d="M512.03261 304.297579a98.921443 98.921443 0 1 0 0 197.842886 98.921443 98.921443 0 0 0 0-197.842886m0-89.029299a187.950743 187.950743 0 1 1 0 375.901485 187.950743 187.950743 0 0 1 0-375.901485z" fill="#61C3FA" p-id="9173"></path><path d="M811.840677 733.844923a173.340806 173.340806 0 0 1-244.716433-8.522462 44.51465 44.51465 0 0 1 65.135966-60.722548 84.083227 84.083227 0 1 0 4.185138-118.857919 44.51465 44.51465 0 0 1-60.722547-65.135966 173.112526 173.112526 0 0 1 236.117876 253.238895z m-487.75881-211.920169a89.029299 89.029299 0 1 0 0 178.058598 89.029299 89.029299 0 0 0 0-178.058598m0-89.029299a178.058598 178.058598 0 1 1 0 356.117196 178.058598 178.058598 0 0 1 0-356.117196z" fill="#61C3FA" p-id="9174"></path><path d="M440.276517 745.715497l-63.538004-62.32051L578.309977 477.638385l63.538004 62.396603z" fill="#61C3FA" p-id="9175"></path><path d="M512.03261 591.169765a188.179023 188.179023 0 0 1-187.950743-187.950743 44.51465 44.51465 0 1 1 89.029299 0 98.921443 98.921443 0 0 0 197.842887 0 44.51465 44.51465 0 0 1 89.029299 0 188.179023 188.179023 0 0 1-187.950742 187.950743z" fill="#EC5A70" p-id="9176"></path><path d="M383.434733 927.502672h128.597877v79.137155h-128.597877a39.568577 39.568577 0 1 1 0-79.137155z" fill="#EB566F" p-id="9177"></path><path d="M512.03261 927.502672h128.597876a39.568577 39.568577 0 0 1 0 79.137155h-128.597876v-79.137155z" fill="#448BF7" p-id="9178"></path></svg>