<?xml version="1.0" standalone="no"?><!DOCTYPE svg PUBLIC "-//W3C//DTD SVG 1.1//EN" "http://www.w3.org/Graphics/SVG/1.1/DTD/svg11.dtd"><svg t="1752983275860" class="icon" viewBox="0 0 1401 1024" version="1.1" xmlns="http://www.w3.org/2000/svg" p-id="58812" xmlns:xlink="http://www.w3.org/1999/xlink" width="273.6328125" height="200"><path d="M1377.658881 578.394948c-86.139418-213.612687-359.383946-269.65028-523.575725-114.076526-1.021093 0.939406-387.484429 373.3525-577.081006 556.046486 41.864819 6.208246-2.818217 2.287249 800.046907 3.512561 229.541741 0 386.50418-232.482489 300.609824-445.482521z m-300.609824 318.86697H587.21025c0.408437-0.408437 205.362255-197.887853 204.87213-197.438572 15.765678-15.153022-55.955905 53.913718 148.671163-143.198104 126.411332-120.203086 333.897461-29.203264 333.897461 143.15726 0 108.113343-87.773167 197.479416-197.601947 197.479416z" fill="#00A3FF" p-id="58813"></path><path d="M653.74468 566.550268c-28.304702 27.242765-59.141715 56.976998-91.285728 87.936542l-101.537503-97.861568c-51.830688-49.502596-126.370488-66.452742-193.109137-46.15341-127.187363 38.107196-181.550362 189.147295-106.928875 299.752106h0.040844c37.698759 55.915061 99.699535 87.03798 163.742498 87.03798h80.053703l-127.759175 123.10299a323.796807 323.796807 0 0 1-221.005402-139.317949C-105.907782 641.375974 106.928875 320.589349 393.488457 382.876032c108.235874 23.485142 152.633004 79.931172 260.256223 183.674236z" fill="#00C8DC" p-id="58814"></path><path d="M396.388362 122.864871C323.196404 193.361143 278.554212 284.238433 265.729282 379.976127c42.028194-7.556089 85.404231-6.289934 127.759175 2.899905 31.000388-170.5634 198.051228-286.437051 372.494782-249.310104a311.609039 311.609039 0 0 1 223.496869 186.492453 388.432004 388.432004 0 0 1 131.557642-7.392714C1026.484524-2.198618 632.342567-104.38962 396.388362 122.864871z" fill="#006EFF" p-id="58815"></path></svg>