<?xml version="1.0" standalone="no"?><!DOCTYPE svg PUBLIC "-//W3C//DTD SVG 1.1//EN" "http://www.w3.org/Graphics/SVG/1.1/DTD/svg11.dtd"><svg t="1752983426570" class="icon" viewBox="0 0 1024 1024" version="1.1" xmlns="http://www.w3.org/2000/svg" p-id="4150" xmlns:xlink="http://www.w3.org/1999/xlink" width="200" height="200"><path d="M860.672 576c-9.728-2.56-15.872-12.8-13.824-23.04 44.032-210.432-79.36-422.4-282.624-478.72C354.816 16.384 138.752 144.896 81.92 360.96v1.024c-34.304 133.632-11.264 273.92 65.536 389.632 53.248 80.384 130.56 142.336 219.136 176.128 248.32 93.696 515.584-46.592 594.432-297.472 4.096-12.8-3.072-27.136-16.384-30.72l-83.968-23.552z m-412.672 203.776c-76.288-20.992-139.776-71.68-179.2-141.824-39.424-70.656-49.664-152.576-29.696-230.912 33.792-128.512 162.304-204.8 287.232-170.496 118.272 32.768 191.488 153.6 169.984 275.968-2.048 11.264 4.608 22.528 15.872 25.6l79.36 22.016c10.24 2.56 15.872 13.824 12.288 24.064-49.664 150.016-204.8 237.056-355.84 195.584z" fill="#6666FF" p-id="4151"></path></svg>