<?xml version="1.0" standalone="no"?><!DOCTYPE svg PUBLIC "-//W3C//DTD SVG 1.1//EN" "http://www.w3.org/Graphics/SVG/1.1/DTD/svg11.dtd"><svg t="1752987475558" class="icon" viewBox="0 0 1024 1024" version="1.1" xmlns="http://www.w3.org/2000/svg" p-id="1469" xmlns:xlink="http://www.w3.org/1999/xlink" width="200" height="200"><path d="M512 997.45223111c268.11505778 0 485.45223111-217.33717333 485.45223111-485.45223111S780.11505778 26.54776889 512 26.54776889 26.54776889 243.88494222 26.54776889 512 243.88494222 997.45223111 512 997.45223111z m330.78613333-679.34208c4.51584-1.01944889 6.99164445 0.97166222 8.15672889 3.05834667 1.89326222 3.39854222 0.09671111 8.15559111 0.09671111 8.15559111-47.96302222 136.75178667-180.10225778 229.91075555-338.99064888 229.27928889h-0.0978489a386.71132445 386.71132445 0 0 1-92.57528888-10.72924445l40.43776 136.21816889s2.23345778 18.59356445 23.83644444 18.59356445h64.85560889s28.30222222 2.18453333 34.66126222-21.99096889c6.06890667-22.96263111 29.12711111-76.70215111 29.12711111-76.70215111s7.18506667-21.84533333 28.54456889-36.99143112c21.36064-15.14609778 31.89418667-14.80590222 33.25383111-13.98101333 1.11616 0.72817778 0.72817778 2.47580445 0.72817778 2.47580445l-22.18552889 129.17873778c-2.47580445 42.18652445-32.768 70.05070222-73.20576 70.05070222H458.45504c-40.38997333 0-71.50705778-25.48622222-73.15797333-70.05070222l-24.32113778-156.21802667c-88.25514667-37.86524445-156.41258667-109.03324445-188.01550222-199.13272889 0 0-1.79655111-4.80597333 0.09671111-8.15559111 1.16508445-2.13560889 3.64088889-4.07779555 8.15559111-3.05834667 1.31072 0.29127111 4.75818667 4.27235555 10.43797333 10.77703111 21.35950222 24.61240889 74.03064889 85.44028445 162.52928 121.70353778l-9.07832889-64.56547555s-0.19342222-1.45635555 0.9216-2.76707556c1.21400889-1.45635555 7.13728-3.05834667 17.28284445 2.03889778a36.65123555 36.65123555 0 0 1 18.15552 21.99096888l17.86538667 58.59441778a399.52725333 399.52725333 0 0 0 112.6240711 13.34954667h0.0978489c186.60693333 3.83431111 288.45511111-113.59573333 320.30037333-150.34481778 5.67978667-6.50467555 9.12725333-10.48576 10.43797333-10.77703111z" fill="#56C2FF" p-id="1470"></path></svg>