<?xml version="1.0" standalone="no"?><!DOCTYPE svg PUBLIC "-//W3C//DTD SVG 1.1//EN" "http://www.w3.org/Graphics/SVG/1.1/DTD/svg11.dtd"><svg t="1752983373919" class="icon" viewBox="0 0 1170 1024" version="1.1" xmlns="http://www.w3.org/2000/svg" p-id="3169" xmlns:xlink="http://www.w3.org/1999/xlink" width="228.515625" height="200"><path d="M469.430857 198.326857h233.618286v55.369143h-233.618286V198.326857z" fill="#FF6A00" p-id="3170"></path><path d="M818.761143 0H665.234286l37.814857 55.369143 111.250286 36.900571c20.041143 6.912 33.389714 27.648 33.389714 48.420572V315.977143c0 20.736-13.348571 41.508571-33.389714 48.420571l-111.250286 36.900572-37.814857 55.332571h153.526857c64.512 0 115.675429-53.028571 115.675428-119.917714V122.221714C934.436571 55.369143 883.273143 0 818.761143 0zM355.986286 364.397714c-20.041143-6.948571-33.389714-27.684571-33.389715-48.420571V140.690286c0-20.772571 13.348571-41.508571 33.389715-48.420572l111.250285-36.937143L505.051429 0H351.524571C287.012571 0 235.885714 55.369143 235.885714 122.221714v212.187429c0 66.889143 51.163429 119.954286 115.675429 119.954286h153.526857l-37.814857-55.369143-111.250286-34.596572zM616.301714 927.122286h142.372572v-46.08h-142.372572v-46.153143h137.947429V595.017143h-320.365714v239.872h137.910857v46.116571h-142.409143v46.116572h142.409143v50.761143h-153.526857V1024h353.755428v-46.116571h-153.490286V927.085714h-2.230857z m4.425143-285.988572h93.476572v50.761143h-93.476572v-50.724571z m0 96.914286h93.476572v48.384h-93.476572V738.011429z m-44.470857 48.384H482.742857V738.011429h93.476572v48.457142z m0-94.537143H482.742857v-50.724571h93.476572v50.724571zM280.32 691.894857H166.875429v242.176h113.444571v-242.176z m-46.701714 193.718857h-24.502857V738.011429h24.502857v147.602285zM0 1024h44.507429V641.170286h46.701714L64.512 768v46.116571h26.697143v101.485715c0 6.948571-4.425143 11.52-11.117714 11.52h-11.117715v46.153143h22.235429c24.502857 0 44.507429-20.772571 44.507428-46.153143v-161.426286h-26.697142l26.697142-126.866286v-46.08H0V1024z" fill="#FF6A00" p-id="3171"></path><path d="M155.757714 641.170286h153.490286v297.508571c0 20.736-15.579429 39.204571-37.814857 39.204572H238.08V1024h46.701714c37.814857 0 71.204571-32.292571 71.204572-73.801143v-309.028571h15.579428V595.017143H155.757714v46.153143z m676.352-43.849143h320.365715v46.153143h-320.365715v-46.153143zM1170.285714 816.420571v-46.08h-353.755428v46.08h88.978285l-71.168 161.462858V1024h300.361143c13.348571 0 22.235429-11.52 22.235429-23.04 0-4.644571 0-6.948571-2.194286-9.252571l-37.851428-87.625143h-48.932572l33.353143 73.801143h-215.808l71.204571-161.462858H1170.285714z" fill="#FF6A00" p-id="3172"></path></svg>