<?xml version="1.0" standalone="no"?><!DOCTYPE svg PUBLIC "-//W3C//DTD SVG 1.1//EN" "http://www.w3.org/Graphics/SVG/1.1/DTD/svg11.dtd"><svg t="1752981505259" class="icon" viewBox="0 0 1024 1024" version="1.1" xmlns="http://www.w3.org/2000/svg" p-id="14329" xmlns:xlink="http://www.w3.org/1999/xlink" width="200" height="200"><path d="M20.48 0.6144m245.76 0l491.52 0q245.76 0 245.76 245.76l0 491.52q0 245.76-245.76 245.76l-491.52 0q-245.76 0-245.76-245.76l0-491.52q0-245.76 245.76-245.76Z" fill="#DD1700" p-id="14330"></path><path d="M528.384 586.67008c33.46432 4.17792 66.02752 4.9152 98.63168 2.00704 22.1184-1.96608 43.008-8.02816 61.60384-21.05344 36.6592-25.72288 47.80032-81.75616 23.26528-118.12864-14.04928-20.80768-35.34848-29.0816-58.32704-34.07872-33.62816-7.20896-67.62496-5.48864-101.5808-3.2768-5.44768 0.36864-6.51264 2.94912-6.9632 7.90528-2.94912 31.37536-6.26688 62.6688-9.4208 94.04416-2.41664 23.79776-4.75136 47.63648-7.20896 72.58112z m51.24096-32.5632c1.88416-20.0704 3.52256-37.76512 5.24288-55.45984 1.47456-15.27808 3.2768-30.5152 4.5056-45.79328 0.36864-4.096 1.51552-6.38976 5.7344-6.144 14.99136 0.98304 30.43328 0 44.8512 3.52256 35.0208 8.43776 46.77632 52.10112 22.40512 79.70816-15.1552 17.2032-35.26656 22.60992-56.85248 24.08448-8.15104 0.49152-16.384 0.08192-25.88672 0.08192zM512 417.54624c-2.08896-0.65536-3.39968-1.14688-4.75136-1.39264a335.95392 335.95392 0 0 0-109.07648-2.70336c-20.15232 2.90816-39.40352 9.09312-55.21408 22.40512-22.03648 18.55488-20.76672 44.97408 4.25984 59.51488 12.53376 7.29088 26.86976 12.00128 40.87808 16.5888 13.5168 4.42368 27.8528 6.5536 41.41056 10.81344 12.0832 3.76832 13.47584 13.76256 3.44064 21.42208a26.54208 26.54208 0 0 1-11.0592 5.5296c-10.77248 1.76128-21.79072 4.21888-32.48128 3.39968-23.1424-1.67936-46.12096-5.24288-69.632-8.06912-1.31072 10.19904-2.8672 22.15936-4.38272 34.48832 4.01408 1.31072 7.3728 2.62144 10.81344 3.4816 32.5632 8.192 65.65888 9.216 98.79552 4.9152 19.2512-2.49856 37.888-7.5776 54.43584-18.26816 27.4432-17.73568 35.2256-54.8864-4.5056-72.37632-13.9264-6.144-28.99968-9.99424-43.66336-14.45888-10.97728-3.35872-22.36416-5.40672-33.1776-9.17504-9.33888-3.2768-10.6496-11.71456-2.8672-17.6128 4.46464-3.44064 10.24-6.7584 15.72864-7.12704 17.03936-1.2288 34.16064-1.47456 51.2-0.8192 14.78656 0.69632 29.4912 3.44064 44.6464 5.3248l5.20192-35.88096z m246.86592 1.96608l-17.48992 170.8032h51.97824c4.58752-43.8272 9.33888-87.08096 13.5168-130.41664 0.57344-6.144 2.2528-8.51968 8.31488-8.68352 10.97728-0.24576 21.99552-1.88416 32.93184-1.47456 22.77376 0.8192 40.67328 9.33888 36.864 41.53344-2.78528 23.26528-5.36576 46.61248-7.90528 69.95968-1.06496 9.66656-1.76128 19.37408-2.62144 29.16352h53.08416c3.44064-33.83296 7.70048-67.25632 10.07616-100.7616 3.2768-45.58848-17.03936-70.41024-62.09536-77.0048-39.3216-5.77536-78.06976-0.32768-116.65408 6.88128zM294.7072 548.70016c-8.3968 1.2288-15.72864 2.70336-23.1424 3.35872-24.61696 2.12992-49.27488 3.76832-73.27744-4.096-13.35296-4.42368-23.67488-12.0832-28.59008-24.90368-7.5776-19.90656 0.8192-45.21984 19.0464-57.91744 16.67072-11.63264 36.20864-15.27808 56.1152-15.27808 21.62688 0 43.29472 2.33472 65.49504 3.6864l5.03808-37.92896c-14.45888-1.6384-28.30336-3.76832-42.22976-4.7104-39.40352-2.70336-77.4144 2.4576-112.80384 19.6608-28.79488 13.9264-49.9712 34.52928-56.32 65.37216-7.53664 36.61824 11.0592 66.72384 49.68448 82.41152 18.432 7.45472 37.72416 12.00128 57.63072 12.0832 23.7568 0.12288 47.5136-1.51552 71.22944-2.82624 2.99008-0.16384 7.9872-2.78528 8.31488-4.83328 1.92512-11.0592 2.62144-22.36416 3.80928-34.07872z" fill="#FFFFFF" p-id="14331"></path></svg>