<?xml version="1.0" standalone="no"?><!DOCTYPE svg PUBLIC "-//W3C//DTD SVG 1.1//EN" "http://www.w3.org/Graphics/SVG/1.1/DTD/svg11.dtd"><svg t="1753002305910" class="icon" viewBox="0 0 1024 1024" version="1.1" xmlns="http://www.w3.org/2000/svg" p-id="65316" xmlns:xlink="http://www.w3.org/1999/xlink" width="200" height="200"><path d="M465.28 1.35424c-105.504 10.57408-200.448 49.87392-280.67584 116.17792-19.63392 16.22656-50.51264 46.95808-66.23744 65.92128C60.76288 252.9216 22.09664 336.4288 7.13472 423.68 1.3568 457.37728 0.64 467.11808 0.64 512s0.7168 54.62272 6.49472 88.32c20.88832 121.8112 86.74688 233.28768 184.02176 311.488 66.97856 53.84448 148.39808 90.63168 232.52352 105.05728 33.69728 5.77792 43.43808 6.49472 88.32 6.49472s54.62272-0.7168 88.32-6.49472c130.66112-22.4064 250.49728-97.51552 327.68512-205.3824 45.68448-63.84384 75.91808-135.6864 88.86016-211.16288 5.77792-33.69728 6.49472-43.43808 6.49472-88.32s-0.7168-54.62272-6.49472-88.32c-14.96192-87.2512-53.62816-170.7584-111.232-240.22656-15.7248-18.9632-46.60352-49.69472-66.23744-65.92128C789.43872 76.24448 734.28864 45.70624 673.28 25.5488c-33.21472-10.97472-59.46496-16.95232-98.56-22.44352C557.44896 0.6784 483.77344-0.50048 465.28 1.35424M463.92064 43.52c49.71776 31.69408 79.3344 55.46112 121.1392 97.21344 37.09056 37.0432 59.28192 63.67232 84.07424 100.88448 6.70208 10.05952 12.33152 18.1312 12.51072 17.93536 0.1792-0.19456 3.00544-9.56928 6.27968-20.83328 7.74144-26.624 7.03872-24.76288 8.41984-22.30272 2.34368 4.17152 32.04864 84.90496 36.33408 98.74688 16.12032 52.07168 22.34368 89.42336 23.41248 140.51584 0.66048 31.58784-0.12416 46.88896-3.81696 74.35776-0.22528 1.67424 3.69664 0.92672 21.98656-4.192 12.2432-3.42784 22.51904-5.97248 22.8352-5.6576 0.86656 0.86784-31.79392 63.15264-42.69056 81.41184-48.40704 81.11744-109.79968 135.4624-178.46144 157.9776-29.63584 9.71776-42.00448 11.6224-75.46368 11.6224-24.9728 0-30.72768-0.3904-43.30752-2.93888-55.51488-11.24736-113.32096-45.75616-150.05056-89.57568-39.16416-46.72256-65.47584-108.10496-77.21088-180.12544-6.048-37.12128-6.55104-46.09408-6.55104-116.98688v-67.06688l18.43328 27.70688c10.1376 15.2384 18.81984 27.70688 19.29216 27.70688 0.47232 0 2.44864-5.32736 4.39296-11.84 8.0384-26.92224 25.96736-67.15136 42.58304-95.54048 29.97632-51.22048 75.00672-103.48032 124.59136-144.59648 8.79232-7.29088 16.45568-13.91488 17.02656-14.72 0.5888-0.82816-2.88256-17.71136-8-38.90048C436.70784 43.7312 432.64 26.2592 432.64 25.49632c0-1.96608-0.78848-2.4192 31.28064 18.02368m-32.25216 761.89824c8.6016 6.56384 8.8128 8.19712 8.38912 64.58496-0.36352 48.32896-0.47232 50.26048-3.01696 53.66528-1.45152 1.94304-4.22912 4.72064-6.17344 6.17216-3.3856 2.528-5.14944 2.63936-41.7472 2.63936-36.59776 0-38.3616-0.11136-41.7472-2.63936-1.94432-1.45152-4.72192-4.22912-6.17344-6.17216-2.53952-3.3984-2.65472-5.36704-3.03104-51.76064-0.21504-26.52544-0.03584-50.67264 0.39808-53.66144 0.90752-6.25536 5.73696-12.66432 11.4496-15.19488 3.03872-1.34656 12.01792-1.66272 40.4864-1.43104l36.5824 0.29952 4.58368 3.49824m218.54592-1.25824c3.83744 1.96096 6.47808 4.51456 8.27136 8 2.528 4.91392 2.63424 7.15776 2.63424 55.68 0 48.42112-0.11008 50.74944-2.58944 55.04-1.53344 2.65344-4.90624 5.65504-8.27136 7.36-5.47584 2.77632-6.93504 2.88-40.3392 2.88-33.42336 0-34.85696-0.1024-40.27392-2.88-10.38592-5.32608-10.28608-4.72448-10.28608-61.97632 0-52.04864 0.23936-54.67136 5.52576-60.42624 5.57952-6.07616 8.19456-6.45376 45.08288-6.50752 33.41824-0.04864 34.8032 0.04864 40.24576 2.83008M776.96 812.8v11.52l-35.52 0.0192c-19.53536 0.01152-36.25984 0.48896-37.16352 1.06368-1.21856 0.77312-1.55008 4.82688-1.28 15.65952l0.36352 14.6176 30.08 0.66944c33.09696 0.73728 37.15072 1.62176 42.7968 9.344 2.46016 3.36512 2.6432 5.3696 2.6432 29.02656 0 27.92192-0.19072 28.68096-8.81152 35.12064-3.38304 2.528-5.39136 2.65472-47.60064 3.00672l-44.06784 0.36864V910.08h37.504c27.46368 0 37.91488-0.41088 39.04-1.536 2.464-2.464 2.06848-27.18976-0.47488-29.73312-1.70624-1.70496-6.2528-2.01088-29.88928-2.01088-29.07392 0-34.0992-0.71296-39.62496-5.61792-5.6128-4.98176-6.55488-9.47584-6.55488-31.2704 0-21.2544 0.98048-26.8544 5.61792-32.07424 5.49376-6.18624 7.61344-6.45376 51.66208-6.50752L776.96 801.28v11.52m-231.68 0v11.52h-29.52448c-17.90336 0-30.49856 0.52096-32 1.3248-2.36672 1.2672-2.47552 3.08992-2.47552 41.44384 0 31.82208 0.352 40.4096 1.7024 41.53088 1.10976 0.9216 12.3584 1.53216 32.32 1.75744l30.6176 0.34304 0.36992 11.2 0.36992 11.2h-36.25856c-35.06432 0-36.44544-0.09472-41.94048-2.88-3.36512-1.70496-6.73792-4.70656-8.27136-7.36-2.47936-4.29056-2.58944-6.61888-2.58944-55.04 0-48.52224 0.10624-50.76608 2.63424-55.68 1.79328-3.48544 4.43392-6.03904 8.27136-8 5.44512-2.78272 6.84288-2.88 41.20576-2.88H545.28v11.52m-221.44 0v11.52h-29.98912c-25.5552 0-30.2848 0.29696-32 2.01088-1.7408 1.74208-2.01088 7.29472-2.01088 41.344 0 28.88576 0.40832 39.74144 1.536 40.86912 1.10976 1.10976 10.15424 1.536 32.64 1.536H325.12v23.04h-36.20864c-35.03232 0-36.39168-0.09344-41.82528-2.88-10.38592-5.32608-10.28608-4.72448-10.28608-61.97632 0-52.04864 0.23936-54.67136 5.52576-60.42624 5.59616-6.09536 8.13056-6.45376 45.99424-6.50752L323.84 801.28v11.52" fill="#56C2E2" p-id="65317"></path><path d="M432.63104 25.17376c-0.0256 3.1104 5.7088 25.45024 6.62656 25.81504 0.59264 0.2368 0.78976 0.89728 0.4352 1.46944-0.68992 1.11744 7.04 34.79552 8.23168 35.86176 0.39424 0.352 0.77568 1.792 0.84992 3.2 0.07296 1.408 0.52864 4.576 1.01248 7.04 0.87808 4.47104 0.84992 4.5056-15.4304 17.92-29.66016 24.44032-62.30272 57.64992-86.95936 88.4672-12.27392 15.34208-37.87392 53.47456-36.92672 55.00544 0.3968 0.64256 0.16 1.16736-0.5248 1.16736-1.43104 0-10.85184 16.3456-10.85184 18.83008 0 0.90752-0.40192 1.64992-0.89088 1.64992-1.11488 0-9.34912 16.58624-9.34912 18.83008 0 0.90752-0.42624 1.64992-0.94592 1.64992-1.408 0-14.12608 30.74048-13.28256 32.10624 0.39936 0.64512 0.16 1.17376-0.52992 1.17376-0.6912 0-3.74912 7.77472-6.79552 17.27616-3.04768 9.50144-5.88544 17.27744-6.30656 17.28-0.4224 0.00256-9.0624-12.46592-19.2-27.70688l-18.43328-27.712-0.38272 57.472c-0.22144 33.40928 0.20736 65.50912 1.024 76.67072 1.4208 19.392 4.59264 45.74336 5.9328 49.28 0.40064 1.056 0.97024 4.8 1.26592 8.32 0.29696 3.52 1.10592 6.59328 1.7984 6.8288 0.6912 0.2368 0.93696 0.94976 0.544 1.58464-1.0112 1.63712 3.45472 21.66656 4.83072 21.66656 0.62592 0 0.78976 0.56448 0.36352 1.25312-0.42624 0.68992 0.96256 7.16928 3.0848 14.4 5.90976 20.13184 6.83776 22.74688 8.06912 22.74688 0.6272 0 0.79616 0.5568 0.37632 1.23776-1.34528 2.17472 14.5664 39.20896 17.74464 41.30304 0.78592 0.51712 0.94592 0.94848 0.35712 0.96-1.65888 0.02944 8.56832 18.33344 18.9632 33.9392 18.15552 27.25504 40.46464 50.9504 63.5072 67.4496 14.05696 10.06592 42.15808 26.7584 43.57376 25.88416 0.60928-0.37632 1.1072-0.15488 1.1072 0.4928 0 1.72416 18.95808 10.10176 34.04928 15.04512 25.16352 8.2432 38.59072 10.16832 70.91072 10.16832 33.4592 0 45.82784-1.90464 75.46368-11.6224 17.23008-5.6512 46.64192-19.06048 51.072-23.28704 1.27488-1.216 3.06816-2.3808 3.98464-2.58816 4.45696-1.00992 28.70528-19.36896 45.49888-34.44736 19.03104-17.088 55.3728-59.1744 53.58976-62.05952-0.352-0.5696-0.04352-1.03552 0.68736-1.03552 2.07104 0 27.41888-38.73024 28.47872-43.51488 0.23424-1.05344 1.0944-2.49344 1.9136-3.2 2.24128-1.93408 21.2992-39.04256 20.06272-39.06432-0.5888-0.01152-0.4096-0.44288 0.39936-0.96 1.42976-0.9152 15.80928-27.19232 15.80928-28.89088 0-0.4672-0.864-0.84992-1.92-0.84992s-1.92 0.61056-1.92 1.35552-0.47872 1.05984-1.0624 0.69888c-0.58496-0.36096-10.23232 1.9072-21.44 5.03936-11.20768 3.13344-20.59264 5.69856-20.85376 5.70112-0.2624 0.00256 0.13824-0.73728 0.89088-1.6448 0.75392-0.90624 2.336-10.55488 3.51744-21.44 2.64448-24.3584 1.93152-79.08608-1.3312-102.2784-4.4096-31.33696-11.08736-61.0816-20.64256-91.94752-4.28544-13.84192-33.9904-94.57536-36.33408-98.74688-1.38112-2.46016-0.6784-4.32128-8.41984 22.30272-3.27424 11.264-6.10048 20.63872-6.27968 20.83328-0.1792 0.19584-5.80864-7.87584-12.51072-17.93536-24.79232-37.21216-46.98368-63.84128-84.07424-100.88448-41.8048-41.75232-71.42144-65.51936-121.1392-97.21344-31.33312-19.9744-31.2768-19.94112-31.2896-18.34624M485.12 88.48768c5.984 4.29184 16.1856 12.0576 22.6688 17.25696 6.48448 5.20064 12.04352 9.45536 12.352 9.45536 0.30976 0 2.51008 1.87264 4.88832 4.16 2.37952 2.28864 12.66048 11.7568 22.848 21.04192 25.83552 23.54688 38.96448 37.30816 61.98912 64.97536 20.74752 24.9344 35.56096 45.63968 51.32416 71.74272 5.52704 9.152 10.55744 16.992 11.17824 17.42336 0.62208 0.43008 1.09568 1.29408 1.05344 1.92-0.15232 2.25408 14.48448 29.89952 15.33824 28.97024 0.48-0.5248 2.7648-7.45216 5.0752-15.39584 2.688-9.23904 4.58368-13.8496 5.26208-12.8 0.58368 0.90368 3.32544 8.55424 6.09152 17.00224 16.50688 50.40768 24.0064 91.7952 25.29024 139.57632 0.8128 30.23488-0.59264 52.60288-4.77312 75.97312-1.30944 7.32032-2.3168 13.65632-2.24 14.08 0.0768 0.42368-0.21632 1.63456-0.65152 2.69056-2.54976 6.17984-5.61408 21.76-4.2816 21.76 0.81024 0 7.4816-1.71776 14.82624-3.81696 7.34464-2.0992 13.5232-3.648 13.72928-3.44064 0.20736 0.20608-3.1168 6.67648-7.38688 14.37696-10.86976 19.6032-29.46816 47.43296-42.20032 63.14368-5.93024 7.31648-11.35744 14.12224-12.06144 15.12448-0.704 1.00224-7.328 7.79008-14.72 15.08224-37.89312 37.38624-72.91776 58.7008-114.70976 69.80608-5.55008 1.47456-10.95424 3.02592-12.01024 3.44576-1.056 0.42112-2.22848 0.71424-2.6048 0.6528-0.37632-0.06016-6.13632 0.70784-12.8 1.7088-15.50336 2.32704-40.72576 2.32704-56.22656 0-6.6624-0.99968-12.52608-1.56288-13.03168-1.25056-0.5056 0.3136-1.25056 0.03328-1.65504-0.6208-0.60416-0.97792-6.92096-2.65216-12.88192-3.41504-0.704-0.09088-2.144-0.5312-3.2-0.9792-5.88288-2.49728-12.66688-4.40448-13.3248-3.74656-0.41472 0.416-0.7552 0.0832-0.7552-0.73728 0-0.82176-0.71936-1.50144-1.6-1.51168-3.02464-0.03584-27.21664-12.38656-41.28-21.07648-19.79392-12.2304-32.52736-22.48704-48.02816-38.6816-33.10464-34.5856-57.65888-80.68352-71.79392-134.784-2.11584-8.096-4.17024-15.584-4.56448-16.64-0.39552-1.056-0.8704-3.36-1.05472-5.12-0.5056-4.8128-3.32416-19.57248-4.15616-21.76-0.40064-1.056-0.64768-2.32192-0.54784-2.81344 0.09984-0.49152-0.68224-6.82752-1.73696-14.08s-2.2464-19.23456-2.6496-26.62656c-0.4032-7.392-1.1136-15.744-1.5808-18.56-0.46592-2.816-0.68352-11.40096-0.48256-19.0784l0.36608-13.95968 9.67808 14.91968c5.32224 8.2048 10.19776 14.9184 10.83392 14.9184 0.63616 0 1.15712 0.6848 1.15712 1.52064 0 2.25664 16.8128 23.84128 23.74272 30.47936 3.30624 3.168 5.79712 5.17504 5.53472 4.4608-0.2624-0.71552-5.54368-10.59456-11.73504-21.95584l-11.2576-20.65536 3.20384-15.82336c7.01568-34.64448 19.06176-69.15712 36.22784-103.78112 5.84448-11.7888 10.5728-21.80352 10.50624-22.25664-0.06656-0.45184 0.42112-1.17504 1.08544-1.60512 1.47712-0.95872 15.39712-23.3984 15.44576-24.89984 0.0192-0.59264 1.0816-1.87008 2.36032-2.83904 1.28-0.97024 1.74976-1.79072 1.04576-1.824-0.72704-0.03328-0.6592-0.46592 0.15744-0.99968 0.78976-0.51712 6.6112-7.88864 12.9344-16.38144 16.78592-22.53952 32.87424-40.90624 55.15136-62.95936 10.84544-10.73536 19.99488-19.52 20.3328-19.52 0.33664 0 4.1408-3.14112 8.45056-6.98112 4.31104-3.84 8.01152-6.80704 8.224-6.59456 0.21248 0.21248-3.40736 16.07936-8.04608 35.26016-4.63744 19.1808-8.22528 35.08096-7.97184 35.3344 0.6336 0.6336 18.06976-31.00032 17.71392-32.13824-0.15616-0.50304 0.22656-1.2672 0.8512-1.69728 1.8944-1.3056 7.04896-10.38208 5.9072-10.40256-0.58624-0.01152-0.4224-0.44288 0.36224-0.96s3.33952-4.34432 5.67808-8.5056l4.2496-7.5648 11.20256 12.0448c10.49088 11.27936 11.17056 11.78368 10.70976 7.936-0.79616-6.64448-7.24352-32.88704-8.45312-34.40896-0.61184-0.76928-0.84736-1.66272-0.52352-1.98656 0.32512-0.32384-1.984-11.13088-5.13024-24.01536S472.32 81.42592 472.32 81.14688c0-1.42464 2.88 0.22656 12.8 7.3408" fill="#080404" p-id="65318"></path><path d="M600.15872 435.904c-26.95808 8.68096-53.0496 36.34048-66.3296 70.31424-7.58912 19.41504-10.68416 36.11392-10.67648 57.62176 0.0064 20.09984 2.14912 32.71936 8.07808 47.59808 13.9008 34.87872 42.84032 54.5408 73.88928 50.2016 11.32416-1.58208 15.89504-3.07712 25.92-8.4736 27.82208-14.97728 49.4656-44.96896 59.4944-82.44352 16.35456-61.11104-6.19648-121.9328-50.25664-135.54176-11.81568-3.64928-27.41504-3.36768-40.11904 0.7232m30.33344 44.24192c16.90496 5.16864 31.45344 18.2464 40.23552 36.16896 7.2192 14.73024 9.41312 24.35072 9.38112 41.12512-0.03968 21.53856-5.07264 38.50624-16.56576 55.85536-27.29472 41.2032-77.61536 49.31072-109.45664 17.63456-9.46176-9.41184-17.41824-23.77856-21.20448-38.28992-3.51616-13.47584-2.87488-36.1472 1.42848-50.51264 7.84512-26.19136 23.45984-46.26816 44.2496-56.896 17.92256-9.16224 33.5808-10.69568 51.93216-5.08544M374.92736 434.4896c-28.23296 7.78752-49.8048 36.8576-55.61728 74.9504-4.69504 30.77632 0.17024 60.60032 14.72384 90.24 19.26784 39.24224 50.24768 62.6304 82.6048 62.3616 31.02464-0.25728 56.55552-21.67552 67.81952-56.89856 4.41344-13.7984 5.87392-24.35584 5.86752-42.39488-0.01536-40.58624-16.07552-80.07936-42.94528-105.60256-17.39008-16.5184-35.68384-24.59008-55.28576-24.39168-6.21184 0.064-13.93792 0.84352-17.16736 1.73568M422.4 480.03072c25.9008 7.54048 49.4016 33.51808 57.05984 63.07584 14.36672 55.44192-17.48736 107.1936-65.9328 107.11808-69.33376-0.1088-107.42656-100.06784-58.07104-152.38784 17.93792-19.0144 41.37856-25.25056 66.944-17.80608" fill="#C8C8C9" p-id="65319"></path><path d="M602.09536 477.41312c-8.57216 1.28896-19.69536 5.02016-19.69536 6.6048 0 0.68992-0.576 0.89728-1.28 0.46208-0.704-0.4352-1.28-0.1472-1.28 0.64s-0.47232 1.1392-1.05088 0.78208c-1.40672-0.8704-9.18912 3.93472-9.18912 5.67424 0 0.75648-0.52352 1.05088-1.1648 0.65536-1.49632-0.92544-15.17056 12.51712-20.21504 19.87456-5.52576 8.06016-10.84416 18.97472-9.95072 20.42112 0.41856 0.6784 0.21504 1.23264-0.45312 1.23264-1.71904 0-6.3232 18.13632-7.31264 28.8-1.3312 14.3616 3.77088 41.64096 8.80768 47.08992 0.81792 0.88576 1.66144 2.46144 1.87264 3.5008 0.76032 3.74144 9.78432 15.62752 15.97568 21.0432 21.25312 18.59328 52.01024 21.27232 77.59232 6.75968 6.53824-3.70944 25.0816-19.94752 24.0064-21.02144-0.27648-0.27648 1.05984-2.17344 2.96832-4.21632 4.84608-5.18912 12.47232-21.34016 15.60576-33.056 3.45216-12.90368 3.76704-35.66976 0.6592-47.61984-3.104-11.9296-11.38304-28.03968-18.4576-35.91552-14.4512-16.0896-37.3248-24.73472-57.43872-21.71136M599.04 565.56544c7.95136 5.83936 11.43168 17.41568 7.49184 24.91904-1.9456 3.70688-8.46976 11.168-9.71008 11.104-0.54016-0.02688-3.28576 0.2944-6.10176 0.71552-5.79328 0.864-11.44448-0.88448-15.68-4.85248-1.58336-1.48352-2.95168-2.30912-3.04-1.83424-0.08832 0.47488-0.28032 0.43136-0.42752-0.09728-0.1472-0.52736-0.98944-2.688-1.87264-4.8-0.9024-2.16064-1.36832-6.7904-1.06496-10.58816 0.59776-7.45856 4.6848-13.14176 11.84512-16.4672 4.83968-2.2464 14.2208-1.2864 18.56 1.9008M398.94656 477.00096c-0.52608 0.52608-2.95296 0.82176-5.39136 0.65792-2.53056-0.17024-4.4352 0.29952-4.4352 1.09696 0 0.76672-0.58752 1.03168-1.3056 0.5888-1.78944-1.10592-10.2144 1.80352-10.2144 3.52768 0 0.76672-0.37376 1.02144-0.82944 0.56448-1.76384-1.76256-13.77408 6.40768-21.57184 14.67264-8.17792 8.66944-18.33472 26.50752-16.6464 29.23776 0.43904 0.71168 0.288 1.2928-0.33664 1.2928s-1.82784 2.99904-2.6752 6.66624c-9.7536 42.2592 10.78656 89.5808 46.59712 107.34848 10.65344 5.28512 20.00128 7.552 31.21792 7.56992 9.7088 0.01536 24.40448-3.20512 24.40448-5.34912 0-0.6528 0.4672-0.89728 1.03936-0.544 1.93664 1.1968 14.2784-6.90304 21.0368-13.80736 8.38912-8.5696 14.31424-18.33472 18.336-30.22464 3.23584-9.56288 6.35136-31.1168 4.84992-33.54624-0.4736-0.768-0.78592-3.41376-0.69376-5.87904 0.23296-6.1824-3.26144-21.088-7.10528-30.31424-9.99552-23.99232-31.13728-44.21632-52.82304-50.52928-9.65376-2.81088-22.06848-4.41472-23.45344-3.02976m37.35936 88.416c12.28288 9.09568 12.21248 24.92032-0.14976 34.07744-4.9728 3.68384-16.08448 3.71968-21.01888 0.06784-11.41248-8.448-12.66176-22.89792-2.77888-32.12544 1.65248-1.54112 4.44288-3.40736 6.20288-4.1472 4.55296-1.9136 13.78304-0.8064 17.74464 2.12736M350.016 803.05152c-5.71264 2.53056-10.54208 8.93952-11.4496 15.19488-0.43392 2.9888-0.61312 27.136-0.39808 53.66144 0.37632 46.3936 0.49152 48.36224 3.03104 51.76064 1.45152 1.94304 4.22912 4.72064 6.17344 6.17216 3.3856 2.528 5.14944 2.63936 41.7472 2.63936 36.59776 0 38.3616-0.11136 41.7472-2.63936 1.94432-1.45152 4.72192-4.22912 6.17344-6.17216 2.54464-3.4048 2.65344-5.33632 3.01696-53.66528 0.32512-43.2384 0.09856-50.86208-1.64608-55.43168-1.85216-4.84992-7.05152-11.31264-7.05152-8.76544 0 0.59648-0.81664-0.03456-1.81504-1.4016-1.7152-2.34752-3.8528-2.50112-38.72-2.784-28.73856-0.23296-37.76896 0.08448-40.80896 1.43104M414.464 825.856c1.13024 1.13024 1.536 12.25728 1.536 42.10304 0 35.81056-0.2368 40.65792-2.02496 41.344-1.1136 0.42752-12.29824 0.77696-24.85504 0.77696-12.5568 0-23.74144-0.34944-24.85504-0.77696-1.78816-0.68608-2.02496-5.53344-2.02496-41.344 0-29.84576 0.40576-40.9728 1.536-42.10304 1.08416-1.08416 8.53376-1.536 25.344-1.536 16.81024 0 24.25984 0.45184 25.344 1.536M571.52 803.0464c-4.74624 2.15936-8.98688 6.66752-10.81856 11.49824-1.85728 4.90496-1.79456 104.49536 0.06784 104.49536 0.71552 0 0.94336 0.57984 0.5056 1.28896-1.40544 2.27456 4.28672 8.59392 9.68832 10.75456 4.41728 1.76768 10.5984 2.08 39.56864 1.99424 32.70656-0.09472 34.59712-0.23296 39.872-2.90944 10.68672-5.41952 10.65728-5.26848 11.13856-58.48832 0.27776-30.71488-0.0576-48.9152-0.98176-53.1264-1.45152-6.62656-5.69088-13.0496-9.04064-13.69984-1.056-0.20608-2.33088-0.94976-2.83136-1.65376-0.56192-0.78848-14.80832-1.39904-37.12-1.58976-28.384-0.2432-37.03808 0.06784-40.04864 1.43616m63.44448 22.5984c2.36672 1.2672 2.47552 3.08864 2.47552 41.344 0 29.41952-0.40704 40.42624-1.536 41.5552-2.16704 2.16704-49.80096 2.16704-51.968 0-1.12768-1.12768-1.536-11.98336-1.536-40.86912 0-34.04928 0.27008-39.60192 2.01088-41.344 1.68064-1.67936 5.81248-2.01088 25.04448-2.01088 13.42976 0 24.06528 0.55296 25.50912 1.3248M690.56 803.12064c-4.91776 2.14272-8.8576 6.59968-10.70208 12.11008-1.8112 5.40672-2.0032 46.20928-0.2176 46.20928 0.68096 0 0.93184 0.80128 0.55552 1.78048-1.07776 2.80832 6.51776 10.42048 12.0512 12.07808 3.16032 0.9472 15.20256 1.50144 32.61056 1.50144 23.38432 0 27.90656 0.3072 29.61152 2.01088 2.54336 2.54336 2.93888 27.26912 0.47488 29.73312-1.12512 1.12512-11.57632 1.536-39.04 1.536H678.4V933.216l44.06784-0.36864c42.20928-0.352 44.2176-0.47872 47.60064-3.00672 8.6208-6.43968 8.81152-7.19872 8.81152-35.12064 0-23.65696-0.18304-25.66144-2.6432-29.02656-5.64608-7.72224-9.69984-8.60672-42.7968-9.344l-30.08-0.66944-0.64-14.97728c-0.60544-14.176-0.50304-15.0144 1.92-15.66208 1.408-0.3776 18.25664-0.69376 37.44-0.70272L776.96 824.32v-23.09376l-41.28 0.11008c-30.976 0.0832-42.23872 0.52736-45.12 1.78432M468.3648 804.22912c-3.69664 1.89056-6.35904 4.48768-8.13056 7.93088-2.528 4.91392-2.63424 7.15776-2.63424 55.68 0 48.42112 0.11008 50.74944 2.58944 55.04 1.5104 2.61376 4.89728 5.6512 8.13184 7.29216 5.30816 2.69184 7.09504 2.81472 41.94176 2.90816l36.39808 0.09728-0.3712-11.22816-0.36992-11.22944-30.6176-0.34304c-19.9616-0.22528-31.21024-0.83584-32.32-1.75744-1.3504-1.12128-1.7024-9.7088-1.7024-41.53088 0-38.35392 0.1088-40.17664 2.47552-41.44384 1.50144-0.80384 14.09664-1.3248 32-1.3248H545.28v-23.0976l-35.70944 0.09728c-34.14656 0.09472-35.95008 0.22144-41.20576 2.90944M248.96 803.08736c-4.70784 2.09152-8.97792 6.59968-10.79424 11.39584-0.8832 2.3296-1.36576 21.34528-1.36576 53.78048 0 57.25184-0.09984 56.65024 10.28608 61.97632 5.4336 2.78656 6.79296 2.88 41.82528 2.88H325.12v-23.04h-31.104c-22.48576 0-31.53024-0.42624-32.64-1.536-1.12768-1.12768-1.536-11.98336-1.536-40.86912 0-34.04928 0.27008-39.60192 2.01088-41.344 1.7152-1.71392 6.4448-2.01088 32-2.01088H323.84v-23.04l-35.52 0.04992c-26.73664 0.0384-36.46976 0.47232-39.36 1.75744" fill="#080404" p-id="65320"></path><path d="M584.41088 826.33088c-1.7408 1.74208-2.01088 7.29472-2.01088 41.344 0 28.88576 0.40832 39.74144 1.536 40.86912 2.16704 2.16704 49.80096 2.16704 51.968 0 1.12896-1.12896 1.536-12.13568 1.536-41.5552 0-38.25536-0.1088-40.0768-2.47552-41.344-1.44384-0.77184-12.07936-1.3248-25.50912-1.3248-19.232 0-23.36384 0.33152-25.04448 2.01088M363.776 825.856c-1.13024 1.13024-1.536 12.25728-1.536 42.10304 0 35.81056 0.2368 40.65792 2.02496 41.344 1.1136 0.42752 12.29824 0.77696 24.85504 0.77696 12.5568 0 23.74144-0.34944 24.85504-0.77696 1.78816-0.68608 2.02496-5.53344 2.02496-41.344 0-29.84576-0.40576-40.9728-1.536-42.10304-1.08416-1.08416-8.53376-1.536-25.344-1.536-16.81024 0-24.25984 0.45184-25.344 1.536" fill="#56C2E2" p-id="65321"></path><path d="M384.32384 303.77728c-14.54592 15.3792-29.09568 42.784-36.72448 69.16608-4.68608 16.20608-4.03328 17.1264 2.848 4.01664 3.32544-6.336 8.416-14.976 11.31264-19.2 5.83936-8.51584 16.79872-21.12 18.36288-21.12 0.55424 0 1.76384 1.82912 2.68928 4.064 1.9968 4.81792 16.45312 24.61696 17.33376 23.7376 0.56576-0.56704-1.43104-10.64448-2.97344-15.0016-0.37376-1.056-0.80768-3.36-0.96256-5.12-1.81504-20.49664-3.66592-38.69696-4.34304-42.69696l-0.83584-4.93824-6.7072 7.09248M504.0256 347.06048c-7.92192 13.55776-13.7856 31.77472-16.88704 52.47488-2.08128 13.88928-2.58688 46.5984-0.6208 40.14464 0.64384-2.112 1.39008-5.856 1.65888-8.32 0.26752-2.464 0.7936-5.344 1.16608-6.4 3.04256-8.608 4.58112-14.57792 3.99872-15.52-0.38144-0.61568-0.08192-1.12 0.66304-1.12 0.74496 0 1.35552-0.736 1.35552-1.63584 0-0.89984 2.06208-5.94048 4.58368-11.2 2.52032-5.2608 4.48768-9.78816 4.36992-10.0608-0.11648-0.27392 0.46336-0.9152 1.28896-1.42464 0.90624-0.56064 3.80544 1.53344 7.30624 5.27616 3.19104 3.4112 6.24768 5.92768 6.79296 5.59232 0.544-0.33664 1.2672 0.10368 1.6064 0.98048 0.3392 0.87552 3.35872 3.55712 6.70976 5.95712 3.35104 2.40128 5.86624 3.84128 5.59104 3.2-0.2752-0.64-3.03744-6.3488-6.13632-12.6848-3.10016-6.336-8.91008-20.36608-12.91136-31.17952l-7.27552-19.65824-3.26016 5.57824M614.58688 298.98624c0.08832 3.62624-2.55744 29.2864-4.05504 39.33696-0.71552 4.79744-0.992 9.22112-0.61568 9.83168 0.3776 0.60928 0.1664 1.42848-0.4672 1.82144-0.96384 0.5952-3.08352 9.68704-3.30624 14.18368-0.11392 2.31808 13.1584-15.22944 16.1792-21.39008 1.62688-3.31648 3.33184-6.05312 3.79008-6.08 1.70624-0.1024 14.54336 15.00288 20.55296 24.1856 3.42528 5.23264 8.3136 13.7344 10.86208 18.89152 2.54848 5.1584 4.82432 9.18784 5.056 8.95616 1.04704-1.04576-9.09184-33.76512-10.9824-35.4432-0.3968-0.352-0.91776-1.792-1.15968-3.2-0.66688-3.90016-11.81056-24.96-13.20576-24.96-0.67456 0-0.9152-0.50304-0.53504-1.11872s-0.7104-2.63168-2.42304-4.48-2.70976-3.38048-2.21568-3.40352c0.49408-0.02432-0.37248-1.10464-1.9264-2.40128-1.5552-1.29792-2.57664-2.60736-2.272-2.912s-2.57152-3.64032-6.39104-7.41248c-5.23648-5.17248-6.92992-6.25536-6.88512-4.40576" fill="#080404" p-id="65322"></path><path d="M580.48 563.66464c-2.112 0.98176-5.568 3.61984-7.68 5.86368-3.49952 3.71712-3.84 4.86144-3.84 12.88448 0 8.2944 0.25472 9.06752 4.38784 13.33248 7.82848 8.0768 19.11424 9.07008 27.06304 2.38208 10.71104-9.01376 10.0736-24.15616-1.37088-32.56192-4.3392-3.1872-13.72032-4.1472-18.56-1.9008M418.56128 563.2896c-11.51488 4.83712-16.52352 19.66208-9.92128 29.3632 4.86656 7.15008 9.24672 9.59616 17.05344 9.51936 19.98208-0.19456 27.02848-24.59904 10.61248-36.7552-3.9616-2.93376-13.19168-4.04096-17.74464-2.12736" fill="#56C2E2" p-id="65323"></path><path d="M491.52 223.19616c0 6.26304-4.2112 23.81568-10.5216 43.85536l-4.1984 13.3312 3.48672-2.65856c1.91872-1.46176 7.80288-8.38784 13.07776-15.38944l9.58976-12.73088 4.37248 3.83744c2.40384 2.112 4.87168 3.87968 5.48224 3.9296 0.61056 0.04992 5.38112 4.94848 10.59968 10.88384 5.21856 5.93664 9.72928 10.5536 10.02368 10.26048 1.18016-1.18144-8.81792-21.76768-15.70176-32.32896-6.85696-10.51904-22.7456-28.58624-25.14048-28.58624-0.5888 0-1.07008 2.51776-1.07008 5.59616" fill="#080404" p-id="65324"></path></svg>