<?xml version="1.0" standalone="no"?><!DOCTYPE svg PUBLIC "-//W3C//DTD SVG 1.1//EN" "http://www.w3.org/Graphics/SVG/1.1/DTD/svg11.dtd"><svg t="1753003079860" class="icon" viewBox="0 0 1024 1024" version="1.1" xmlns="http://www.w3.org/2000/svg" p-id="18443" xmlns:xlink="http://www.w3.org/1999/xlink" width="200" height="200"><path d="M164.3 194.5h696c55.2 0 100 49 100 109.4v481.2c0 60.4-44.8 109.4-100 109.4h-696c-55.2 0-100-49-100-109.4V303.9c0-60.4 44.8-109.4 100-109.4z" fill="#ECF0F0" p-id="18444"></path><path d="M164.3 238.5c-33.1 0-60 29.4-60 65.7v481.6c0 36.3 26.9 65.7 60 65.7h696c33.1 0 60-29.4 60-65.7V304.2c0-36.3-26.9-65.7-60-65.7h-696z m0-44h696c55.2 0 100 49 100 109.4v481.2c0 60.4-44.8 109.4-100 109.4h-696c-55.2 0-100-49-100-109.4V303.9c0-60.4 44.8-109.4 100-109.4z" fill="#233E49" p-id="18445"></path><path d="M271.3 154.5h34c43.6 0 79 35.4 79 79v459c0 43.6-35.4 79-79 79h-34c-43.6 0-79-35.4-79-79v-459c0-43.6 35.4-79 79-79z" fill="#EEC130" p-id="18446"></path><path d="M365.8 454.5c0-9.7 7.8-17.5 17.5-17.5s17.5 7.8 17.5 17.5v230c0 64.5-47.9 117.5-108 117.5h-19c-60.1 0-108-53-108-117.5v-440c0-64.5 47.9-117.5 108-117.5h19c60.1 0 108 53 108 117.5v104c0 9.7-7.8 17.5-17.5 17.5s-17.5-7.8-17.5-17.5v-104c0-45.9-33.1-82.5-73-82.5h-19c-39.9 0-73 36.6-73 82.5v440c0 45.9 33.1 82.5 73 82.5h19c39.9 0 73-36.6 73-82.5v-230z" fill="#233E49" p-id="18447"></path><path d="M295.8 604.5c0 6.9-5.6 12.5-12.5 12.5s-12.5-5.6-12.5-12.5v-273c0-6.9 5.6-12.5 12.5-12.5s12.5 5.6 12.5 12.5v273z" fill="#FFFFFF" p-id="18448"></path><path d="M503.3 318.5h363v75h-363z" fill="#3AD0FA" p-id="18449"></path><path d="M543.3 322c-18.5 0-33.5 15-33.5 33.5s15 33.5 33.5 33.5h283c18.5 0 33.5-15 33.5-33.5s-15-33.5-33.5-33.5h-283z m0-25h283c32.3 0 58.5 26.2 58.5 58.5S858.6 414 826.3 414h-283c-32.3 0-58.5-26.2-58.5-58.5S511 297 543.3 297z" fill="#233E49" p-id="18450"></path><path d="M382.8 397m-22.5 0a22.5 22.5 0 1 0 45 0 22.5 22.5 0 1 0-45 0Z" fill="#233E49" p-id="18451"></path><path d="M586.4 489.5c0 22.4-17.8 40.2-40.2 40.2-22.4 0-40.2-17.8-40.2-40.2s17.8-40.2 40.2-40.2c22.4 0 40.2 17.8 40.2 40.2" fill="#F4CC02" p-id="18452"></path><path d="M545.8 540.5c-28.6 0-51.5-22.7-51.5-51s22.9-51 51.5-51 51.5 22.7 51.5 51-22.9 51-51.5 51z m0-79.3c-16 0-28.6 12.5-28.6 28.3s12.6 28.3 28.6 28.3 28.6-12.5 28.6-28.3-12.6-28.3-28.6-28.3z" fill="#233E49" p-id="18453"></path><path d="M535.4 490c0 2.8-2.2 5-5 5s-5-2.2-5-5c0-11.8 9.4-21.2 21.3-21.2S568 478.1 568 490c0 2.8-2.2 5-5 5s-5-2.2-5-5c0-6.3-5-11.2-11.3-11.2s-11.3 4.9-11.3 11.2z" fill="#FFFFFF" p-id="18454"></path><path d="M719.4 489.5c0 22.4-17.8 40.2-40.2 40.2-22.4 0-40.2-17.8-40.2-40.2s17.8-40.2 40.2-40.2c22.4 0 40.2 17.8 40.2 40.2" fill="#F4CC02" p-id="18455"></path><path d="M678.8 540.5c-28.6 0-51.5-22.7-51.5-51s22.9-51 51.5-51 51.5 22.7 51.5 51-22.9 51-51.5 51z m0-79.3c-16 0-28.6 12.5-28.6 28.3s12.6 28.3 28.6 28.3 28.6-12.5 28.6-28.3-12.6-28.3-28.6-28.3z" fill="#233E49" p-id="18456"></path><path d="M668.4 490c0 2.8-2.2 5-5 5s-5-2.2-5-5c0-11.8 9.4-21.2 21.3-21.2S701 478.1 701 490c0 2.8-2.2 5-5 5s-5-2.2-5-5c0-6.3-5-11.2-11.3-11.2s-11.3 4.9-11.3 11.2z" fill="#FFFFFF" p-id="18457"></path><path d="M852.4 489.5c0 22.4-17.8 40.2-40.2 40.2-22.4 0-40.2-17.8-40.2-40.2s17.8-40.2 40.2-40.2c22.4 0 40.2 17.8 40.2 40.2" fill="#F4CC02" p-id="18458"></path><path d="M811.8 540.5c-28.6 0-51.5-22.7-51.5-51s22.9-51 51.5-51 51.5 22.7 51.5 51-22.9 51-51.5 51z m0-79.3c-16 0-28.6 12.5-28.6 28.3s12.6 28.3 28.6 28.3 28.6-12.5 28.6-28.3-12.6-28.3-28.6-28.3z" fill="#233E49" p-id="18459"></path><path d="M801.4 490c0 2.8-2.2 5-5 5s-5-2.2-5-5c0-11.8 9.4-21.2 21.3-21.2S834 478.1 834 490c0 2.8-2.2 5-5 5s-5-2.2-5-5c0-6.3-5-11.2-11.3-11.2s-11.3 4.9-11.3 11.2z" fill="#FFFFFF" p-id="18460"></path><path d="M586.4 621.5c0 22.4-17.8 40.2-40.2 40.2-22.4 0-40.2-17.8-40.2-40.2s17.8-40.2 40.2-40.2c22.4 0 40.2 17.8 40.2 40.2" fill="#F4CC02" p-id="18461"></path><path d="M545.8 672.5c-28.6 0-51.5-22.7-51.5-51s22.9-51 51.5-51 51.5 22.7 51.5 51-22.9 51-51.5 51z m0-79.3c-16 0-28.6 12.5-28.6 28.3s12.6 28.3 28.6 28.3 28.6-12.5 28.6-28.3-12.6-28.3-28.6-28.3z" fill="#233E49" p-id="18462"></path><path d="M535.4 622c0 2.8-2.2 5-5 5s-5-2.2-5-5c0-11.8 9.4-21.2 21.3-21.2S568 610.1 568 622c0 2.8-2.2 5-5 5s-5-2.2-5-5c0-6.3-5-11.2-11.3-11.2s-11.3 4.9-11.3 11.2z" fill="#FFFFFF" p-id="18463"></path><path d="M719.4 621.5c0 22.4-17.8 40.2-40.2 40.2-22.4 0-40.2-17.8-40.2-40.2s17.8-40.2 40.2-40.2c22.4 0 40.2 17.8 40.2 40.2" fill="#F4CC02" p-id="18464"></path><path d="M678.8 672.5c-28.6 0-51.5-22.7-51.5-51s22.9-51 51.5-51 51.5 22.7 51.5 51-22.9 51-51.5 51z m0-79.3c-16 0-28.6 12.5-28.6 28.3s12.6 28.3 28.6 28.3 28.6-12.5 28.6-28.3-12.6-28.3-28.6-28.3z" fill="#233E49" p-id="18465"></path><path d="M668.4 622c0 2.8-2.2 5-5 5s-5-2.2-5-5c0-11.8 9.4-21.2 21.3-21.2S701 610.1 701 622c0 2.8-2.2 5-5 5s-5-2.2-5-5c0-6.3-5-11.2-11.3-11.2s-11.3 4.9-11.3 11.2z" fill="#FFFFFF" p-id="18466"></path><path d="M852.4 621.5c0 22.4-17.8 40.2-40.2 40.2-22.4 0-40.2-17.8-40.2-40.2s17.8-40.2 40.2-40.2c22.4 0 40.2 17.8 40.2 40.2" fill="#F4CC02" p-id="18467"></path><path d="M811.8 672.5c-28.6 0-51.5-22.7-51.5-51s22.9-51 51.5-51 51.5 22.7 51.5 51-22.9 51-51.5 51z m0-79.3c-16 0-28.6 12.5-28.6 28.3s12.6 28.3 28.6 28.3 28.6-12.5 28.6-28.3-12.6-28.3-28.6-28.3z" fill="#233E49" p-id="18468"></path><path d="M801.4 622c0 2.8-2.2 5-5 5s-5-2.2-5-5c0-11.8 9.4-21.2 21.3-21.2S834 610.1 834 622c0 2.8-2.2 5-5 5s-5-2.2-5-5c0-6.3-5-11.2-11.3-11.2s-11.3 4.9-11.3 11.2z" fill="#FFFFFF" p-id="18469"></path><path d="M586.4 753.5c0 22.4-17.8 40.2-40.2 40.2-22.4 0-40.2-17.8-40.2-40.2s17.8-40.2 40.2-40.2c22.4 0 40.2 17.8 40.2 40.2" fill="#F4CC02" p-id="18470"></path><path d="M545.8 804.5c-28.6 0-51.5-22.7-51.5-51s22.9-51 51.5-51 51.5 22.7 51.5 51-22.9 51-51.5 51z m0-79.3c-16 0-28.6 12.5-28.6 28.3s12.6 28.3 28.6 28.3 28.6-12.5 28.6-28.3-12.6-28.3-28.6-28.3z" fill="#233E49" p-id="18471"></path><path d="M535.4 754c0 2.8-2.2 5-5 5s-5-2.2-5-5c0-11.8 9.4-21.2 21.3-21.2S568 742.1 568 754c0 2.8-2.2 5-5 5s-5-2.2-5-5c0-6.3-5-11.2-11.3-11.2s-11.3 4.9-11.3 11.2z" fill="#FFFFFF" p-id="18472"></path><path d="M719.4 753.5c0 22.4-17.8 40.2-40.2 40.2-22.4 0-40.2-17.8-40.2-40.2s17.8-40.2 40.2-40.2c22.4 0 40.2 17.8 40.2 40.2" fill="#F4CC02" p-id="18473"></path><path d="M678.8 804.5c-28.6 0-51.5-22.7-51.5-51s22.9-51 51.5-51 51.5 22.7 51.5 51-22.9 51-51.5 51z m0-79.3c-16 0-28.6 12.5-28.6 28.3s12.6 28.3 28.6 28.3 28.6-12.5 28.6-28.3-12.6-28.3-28.6-28.3z" fill="#233E49" p-id="18474"></path><path d="M668.4 754c0 2.8-2.2 5-5 5s-5-2.2-5-5c0-11.8 9.4-21.2 21.3-21.2S701 742.1 701 754c0 2.8-2.2 5-5 5s-5-2.2-5-5c0-6.3-5-11.2-11.3-11.2s-11.3 4.9-11.3 11.2z" fill="#FFFFFF" p-id="18475"></path><path d="M852.4 753.5c0 22.4-17.8 40.2-40.2 40.2-22.4 0-40.2-17.8-40.2-40.2s17.8-40.2 40.2-40.2c22.4 0 40.2 17.8 40.2 40.2" fill="#F4CC02" p-id="18476"></path><path d="M811.8 804.5c-28.6 0-51.5-22.7-51.5-51s22.9-51 51.5-51 51.5 22.7 51.5 51-22.9 51-51.5 51z m0-79.3c-16 0-28.6 12.5-28.6 28.3s12.6 28.3 28.6 28.3 28.6-12.5 28.6-28.3-12.6-28.3-28.6-28.3z" fill="#233E49" p-id="18477"></path><path d="M801.4 754c0 2.8-2.2 5-5 5s-5-2.2-5-5c0-11.8 9.4-21.2 21.3-21.2S834 742.1 834 754c0 2.8-2.2 5-5 5s-5-2.2-5-5c0-6.3-5-11.2-11.3-11.2s-11.3 4.9-11.3 11.2zM823.8 338.5c9.7 0 17.5 7.8 17.5 17.5s-7.8 17.5-17.5 17.5h-113c-9.7 0-17.5-7.8-17.5-17.5s7.8-17.5 17.5-17.5h113z" fill="#FFFFFF" p-id="18478"></path></svg>