<?xml version="1.0" standalone="no"?><!DOCTYPE svg PUBLIC "-//W3C//DTD SVG 1.1//EN" "http://www.w3.org/Graphics/SVG/1.1/DTD/svg11.dtd"><svg t="1753001778350" class="icon" viewBox="0 0 1024 1024" version="1.1" xmlns="http://www.w3.org/2000/svg" p-id="47202" xmlns:xlink="http://www.w3.org/1999/xlink" width="200" height="200"><path d="M860.112 514.965333c-119.296 2.341333-94.448 77.861333-178.522667 96.96-85.408 19.402667-98.890667-208.592-184.277333-208.592-85.397333 0-104.314667 221.472-211.242667 373.514667l-3.050666 4.304 229.253333 132.336 347.84-200.805333V514.965333z" fill="#36A2EB" p-id="47203"></path><path d="M860.112 508.090667c-39.936-51.253333-67.024-110.176-125.301333-110.176-103.130667 0-75.994667 168.24-189.973334 168.24-113.989333 0-125.973333-180.965333-255.104-10.853334-41.146667 54.202667-74.266667 114.64-100.282666 171.829334l322.821333 186.362666 347.84-200.805333V508.090667z" fill="#FFCE56" p-id="47204"></path><path d="M164.421333 577.781333c39.136-108.378667 56.026667-196.154667 130.741334-196.154666 113.978667 0 141.109333 320.208 238.821333 287.632 97.696-32.56 86.837333-206.234667 238.821333-206.234667 28.928 0 58.464 17.722667 87.312 46.389333v203.269334l-347.84 200.805333-347.850666-200.805333v-134.901334z" fill="#FE6184" opacity=".8" p-id="47205"></path><path d="M512 938.666667l-369.557333-213.328V298.666667L512 85.333333l369.557333 213.333334v426.666666L512 938.666667z m-326.138667-238.394667L512 888.544l326.138667-188.272V323.733333L512 135.461333 185.861333 323.733333v376.538667z" fill="#E7E9ED" p-id="47206"></path></svg>