<?xml version="1.0" standalone="no"?><!DOCTYPE svg PUBLIC "-//W3C//DTD SVG 1.1//EN" "http://www.w3.org/Graphics/SVG/1.1/DTD/svg11.dtd"><svg t="1774833369906" class="icon" viewBox="0 0 1024 1024" version="1.1" xmlns="http://www.w3.org/2000/svg" p-id="4785" xmlns:xlink="http://www.w3.org/1999/xlink" width="200" height="200"><path d="M382.446006 93.566773c7.851757-20.610863 18.647923-39.585942 34.678595-54.9623 64.122684-62.486901 170.121406-46.783387 213.633226 31.734185 32.715655 59.542492 67.394249 117.776358 101.091374 176.664537 56.270927 97.819808 113.196166 195.639617 168.81278 293.786581 46.783387 82.116294-3.925879 185.82492-96.838339 199.892652-56.92524 8.50607-110.251757-17.666454-139.695846-68.702875-49.400639-86.042173-99.128435-172.084345-148.529074-257.799361-0.98147-1.962939-2.290096-3.598722-3.598722-5.234505-5.234505-4.253035-7.524601-10.46901-10.796166-16.030671-21.919489-38.604473-44.493291-76.881789-66.41278-115.159105-14.067732-24.863898-28.789776-49.400639-42.857508-74.264537-12.759105-22.246645-18.647923-46.45623-17.99361-71.974441 0.98147-13.086262 2.617252-26.172524 8.50607-37.95016" fill="#3C8BD9" p-id="4786"></path><path d="M382.446006 93.566773c-2.944409 11.777636-5.561661 23.555272-6.215974 35.987221-0.98147 27.48115 5.888818 52.999361 19.629393 76.881789C431.846645 268.268371 467.833866 330.428115 503.49393 392.587859c3.271565 5.561661 5.888818 11.123323 9.160383 16.357828-19.629393 34.024281-39.258786 67.721406-59.215335 101.745687-27.48115 47.4377-54.9623 95.202556-82.770607 142.640255-1.308626 0-1.635783-0.654313-1.96294-1.635782-0.327157-2.617252 0.654313-4.907348 1.308627-7.524601 13.413419-49.073482 2.290096-92.585304-31.407029-129.88115-20.610863-22.573802-46.783387-35.332907-76.881789-39.585943-39.258786-5.561661-73.93738 4.580192-105.017253 29.116933-5.561661 4.253035-9.160383 10.46901-15.703514 13.740575-1.308626 0-1.962939-0.654313-2.290096-1.635782 15.703514-27.153994 31.079872-54.307987 46.783387-81.461981C250.27476 321.922045 315.051757 209.380192 380.155911 97.165495c0.654313-1.308626 1.635783-2.290096 2.290095-3.598722" fill="#FABC04" p-id="4787"></path><path d="M140.023003 516.907348c6.215974-5.561661 12.104792-11.450479 18.647924-16.684984 79.499042-62.814058 198.911182-17.339297 216.250479 82.116294 4.253035 23.882428 1.962939 46.783387-5.234505 69.684345-0.327157 1.962939-0.654313 3.598722-1.308626 5.561662-2.944409 5.234505-5.561661 10.796166-8.833227 16.03067-29.116933 48.092013-71.974441 71.974441-128.245367 68.375719C166.84984 737.410863 116.140575 688.991693 107.307348 624.86901c-4.253035-31.079872 1.962939-60.196805 17.99361-87.023643 3.271565-5.888818 7.197444-11.123323 10.796167-17.01214 1.635783-1.308626 0.98147-3.925879 3.925878-3.925879" fill="#34A852" p-id="4788"></path><path d="M140.023003 516.907348c-1.308626 1.308626-1.308626 3.598722-3.598722 3.925879-0.327157-2.290096 0.98147-3.598722 2.290096-5.234505l1.308626 1.308626" fill="#FABC04" p-id="4789"></path><path d="M368.378275 657.584665c-1.308626-2.290096 0-3.925879 1.308626-5.561662l1.308626 1.308626-2.617252 4.253036" fill="#E1C025" p-id="4790"></path><path d="M169.139936 851.915655C132.171246 851.915655 101.41853 881.686901 101.41853 918.328435c0 36.641534 30.752716 66.085623 67.721406 66.085623 19.95655 0 34.678594-6.543131 46.45623-18.647924 12.104792-12.104792 15.703514-28.789776 15.703515-42.203195 0-4.253035-0.327157-8.178914-0.98147-11.450479H169.139936v17.99361H212.651757c-1.308626 10.141853-4.580192 17.666454-9.814696 22.900959-6.215974 6.215974-16.357827 13.413419-33.697125 13.413418-26.826837 0-47.764856-21.592332-47.764856-48.092012S142.313099 870.236422 169.139936 870.236422c14.394888 0 25.191054 5.561661 32.715655 13.086262l12.759105-12.759106c-10.796166-10.46901-25.191054-18.647923-45.47476-18.647923z m110.90607 47.4377c-23.228115 0-42.530351 17.99361-42.530351 43.184664 0 24.863898 18.97508 43.184665 42.530351 43.184665s42.530351-18.320767 42.530352-43.184665-19.302236-43.184665-42.530352-43.184664m0 69.357188c-12.759105 0-23.882428-10.796166-23.882428-26.172524s11.123323-26.172524 23.882428-26.172524 23.882428 10.46901 23.882429 26.172524c0 15.376358-11.123323 26.172524-23.882429 26.172524m92.258147-69.357188c-23.555272 0-42.530351 17.99361-42.530351 43.184664 0 24.863898 18.97508 43.184665 42.530351 43.184665 23.228115 0 42.530351-18.320767 42.530352-43.184665s-18.97508-43.184665-42.530352-43.184664m0 69.357188c-12.759105 0-23.882428-10.796166-23.882428-26.172524s11.123323-26.172524 23.882428-26.172524 23.882428 10.46901 23.882428 26.172524c0 15.376358-10.796166 26.172524-23.882428 26.172524m91.930991-69.357188c-21.265176 0-40.567412 18.647923-40.567412 42.857508 0 23.882428 19.302236 42.530351 40.567412 42.530351 10.141853 0 17.99361-4.580192 22.246645-9.814696h0.654313v6.215974c0 16.357827-8.50607 25.191054-22.573802 25.191054-11.450479 0-18.320767-8.178914-21.265175-15.049201l-16.357828 6.870288c4.580192 11.450479 17.012141 25.191054 37.623003 25.191054 21.919489 0 40.240256-13.086262 40.240256-44.493291v-76.554632h-17.666454v6.870287h-0.654313c-4.253035-5.234505-12.104792-9.814696-22.246645-9.814696m1.635783 68.702875c-12.759105 0-23.555272-10.796166-23.555272-25.845367 0-15.049201 10.796166-26.172524 23.555272-26.172524 12.759105 0 22.573802 11.123323 22.573801 26.172524s-9.814696 25.845367-22.573801 25.845367m52.672204-110.90607h18.647923v126.282428h-18.647923V857.15016z m68.702875 42.203195c-22.246645 0-40.894569 17.339297-40.894568 43.184664 0 24.209585 18.320767 43.184665 42.857508 43.184665 19.95655 0 31.407029-12.104792 35.98722-18.97508l-14.722045-9.814697c-4.907348 7.197444-11.777636 11.777636-21.265175 11.777636-9.814696 0-16.684984-4.253035-20.938019-13.086262l57.906709-23.882428-1.96294-4.907348c-3.598722-9.48754-14.722045-27.48115-36.96869-27.48115m-22.246645 41.876038c-0.654313-16.684984 13.086262-25.191054 22.573802-25.191054 7.524601 0 14.067732 3.598722 16.030671 9.160383l-38.604473 16.030671zM658.893291 981.469649l43.184664-114.831949h16.684984l43.184665 114.831949h-16.357828l-11.123322-31.079873h-48.092013l-11.123323 31.079873h-16.357827z m32.388498-44.820448H729.559105l-18.647923-51.690735h-0.654313l-18.97508 51.690735zM776.996805 971.982109c-7.197444-8.178914-10.796166-17.99361-10.796166-29.771246 0-11.450479 3.598722-21.265176 10.796166-29.771246 7.524601-8.178914 16.030671-12.104792 26.499681-12.104793 5.888818 0 11.123323 1.308626 15.703514 3.598722 4.907348 2.617252 8.50607 5.561661 11.123323 9.814697h0.654313l-0.654313-10.796166v-36.314377h14.722044V981.469649H830.977636v-10.796167h-0.654313c-2.617252 3.925879-6.215974 7.197444-11.123323 9.814697-4.907348 2.617252-10.141853 3.598722-15.703514 3.598722-10.46901 0-19.302236-3.925879-26.499681-12.104792m46.45623-9.160384c4.907348-5.234505 7.197444-12.104792 7.197444-20.610862 0-8.178914-2.290096-15.049201-7.197444-20.283706-4.580192-5.234505-10.46901-7.851757-17.666454-7.851758s-13.086262 2.617252-17.666453 7.851758c-4.907348 5.234505-7.197444 12.104792-7.197444 20.283706s2.290096 15.049201 7.197444 20.283706c4.907348 5.234505 10.796166 7.851757 17.666453 7.851757 7.197444 0.327157 13.086262-2.290096 17.666454-7.524601M913.09393 976.889457c-5.888818 4.580192-13.413419 7.197444-22.573802 7.197444-7.851757 0-14.722045-1.962939-20.938019-6.215974-5.888818-4.253035-10.141853-9.48754-12.759106-16.357828l13.086262-5.561661c1.962939 4.580192 4.580192 8.50607 8.50607 11.123322 3.598722 2.617252 7.851757 3.925879 12.104793 3.925879 4.580192 0 8.50607-0.98147 11.777636-2.944409 3.271565-1.962939 4.580192-4.580192 4.580191-7.197444 0-4.907348-3.925879-8.833227-11.450479-11.123323l-13.413418-3.271565c-15.376358-3.925879-22.900958-11.123323-22.900959-22.246646 0-7.197444 2.944409-12.759105 8.833227-17.339297 5.888818-4.253035 13.413419-6.543131 22.246645-6.543131 6.870288 0 13.086262 1.635783 18.97508 4.907349 5.561661 3.271565 9.48754 7.851757 11.777636 13.413418l-13.086262 5.561661c-1.635783-3.271565-3.925879-5.888818-7.197444-7.851757-3.271565-1.962939-7.197444-2.944409-11.450479-2.944409-3.925879 0-7.197444 0.98147-10.46901 2.944409-2.944409 1.962939-4.580192 4.253035-4.580192 7.197444 0 4.580192 4.253035 7.851757 12.759106 9.48754l11.777636 2.944409c15.703514 3.925879 23.228115 11.777636 23.228115 23.555272 0.327157 6.870288-2.944409 12.759105-8.833227 17.339297" fill="#757575" p-id="4791"></path></svg>