<?xml version="1.0" standalone="no"?><!DOCTYPE svg PUBLIC "-//W3C//DTD SVG 1.1//EN" "http://www.w3.org/Graphics/SVG/1.1/DTD/svg11.dtd"><svg t="1752995712121" class="icon" viewBox="0 0 1024 1024" version="1.1" xmlns="http://www.w3.org/2000/svg" p-id="8707" xmlns:xlink="http://www.w3.org/1999/xlink" width="200" height="200"><path d="M512 0c282.773333 0 512 229.226667 512 512S794.773333 1024 512 1024 0 794.773333 0 512 229.226667 0 512 0z" fill="#FFB400" p-id="8708"></path><path d="M512 21.333333C241.002667 21.333333 21.333333 241.002667 21.333333 512s219.669333 490.666667 490.666667 490.666667 490.666667-219.669333 490.666667-490.666667S782.997333 21.333333 512 21.333333z" fill="#FFB400" p-id="8709"></path><path d="M512 512m-490.666667 0a490.666667 490.666667 0 1 0 981.333334 0 490.666667 490.666667 0 1 0-981.333334 0Z" fill="#FFD217" p-id="8710"></path><path d="M42.666667 480a469.333333 458.666667 0 1 0 938.666666 0 469.333333 458.666667 0 1 0-938.666666 0Z" fill="#FFE20D" p-id="8711"></path><path d="M362.666667 106.666667c0 15.253333 28.458667 29.333333 74.666666 36.949333s103.125333 7.616 149.333334 0C632.874667 136 661.333333 121.92 661.333333 106.666667c0-15.253333-28.458667-29.333333-74.666666-36.949334s-103.125333-7.616-149.333334 0C391.125333 77.333333 362.666667 91.413333 362.666667 106.666667z" fill="#FFF1B7" p-id="8712"></path><path d="M546.56 490.773333L500.010667 490.666667l-36.032 0.170666-41.322667 0.554667-15.424 0.341333-21.973333 0.64-20.629334 0.853334-19.328 1.024-18.048 1.258666-11.349333 0.938667-10.816 1.066667-10.304 1.152-9.770667 1.28-9.301333 1.386666-8.789333 1.493334-4.224 0.810666-8.085334 1.685334-3.861333 0.896-7.424 1.877333c-2.389333 0.64-4.693333 1.322667-6.954667 2.026667l-6.528 2.154666-3.114666 1.130667-5.930667 2.389333c-2.858667 1.216-5.546667 2.496-8.106667 3.84l-4.949333 2.752c-16.64 9.898667-26.474667 22.72-31.786667 39.232l-1.408 4.821334-1.152 5.013333-0.938666 5.226667-0.746667 5.44-0.277333 2.794666-0.426667 5.76-0.256 5.994667L170.666667 602.88C170.666667 693.546667 309.44 789.333333 509.418667 789.333333c200.810667 0 343.893333-95.957333 343.893333-186.453333l-0.085333-6.250667a188.544 188.544 0 0 0-0.128-3.050666l-0.362667-5.909334-0.576-5.696-0.789333-5.482666-1.024-5.269334a91.584 91.584 0 0 0-1.962667-7.488l-1.642667-4.757333a75.093333 75.093333 0 0 0-0.917333-2.282667l-2.026667-4.458666c-6.549333-13.013333-16.938667-23.424-32.597333-31.68l-5.418667-2.666667a128.469333 128.469333 0 0 0-2.858666-1.28l-6.037334-2.453333a166.762667 166.762667 0 0 0-6.442666-2.304l-6.869334-2.133334a219.413333 219.413333 0 0 0-3.605333-1.024l-7.552-1.962666-8-1.792-8.469333-1.685334a385.856 385.856 0 0 0-4.416-0.789333l-9.216-1.493333-9.706667-1.365334-10.24-1.28-10.730667-1.130666-11.285333-1.024-17.962667-1.365334-19.2-1.130666-20.565333-0.938667-21.888-0.746667-23.274667-0.554666-24.725333-0.405334-26.176-0.256z" fill="#FFB400" p-id="8713"></path><path d="M509.418667 768c228.629333 0 322.56-114.261333 322.56-165.12 0-70.677333-30.826667-90.88-322.56-90.88C217.664 512 192 532.202667 192 602.88 192 652.714667 280.768 768 509.418667 768z" fill="#443C25" p-id="8714"></path><path d="M467.84 512.149333L509.397333 512l41.152 0.149333 29.525334 0.341334 18.517333 0.32 17.6 0.426666 24.704 0.832 15.402667 0.661334 14.570666 0.768 20.309334 1.365333 12.586666 1.045333 5.973334 0.554667 11.434666 1.216 10.730667 1.322667 5.098667 0.725333 9.664 1.493333 9.002666 1.664 8.384 1.770667 3.946667 0.917333L768 533.333333a85.333333 85.333333 0 0 1-85.333333 85.333334H341.333333a85.333333 85.333333 0 0 1-85.333333-85.333334v-6.464c2.538667-0.618667 5.162667-1.194667 7.893333-1.749333l8.490667-1.621333 9.130667-1.493334 9.770666-1.386666 10.453334-1.28 11.178666-1.130667 11.882667-1.066667 19.2-1.365333 20.970667-1.130667 22.805333-0.938666 24.682667-0.704 26.666666-0.533334 28.693334-0.32zM640 640a106.709333 106.709333 0 0 1 101.546667 73.856C689.386667 744.405333 613.333333 768 509.397333 768c-102.186667 0-176.448-23.04-227.328-52.949333A106.709333 106.709333 0 0 1 384 640h256z" fill="#FFFFFF" p-id="8715"></path><path d="M725.333333 426.666667c0 23.573333 38.186667 42.666667 85.333334 42.666666s85.333333-19.093333 85.333333-42.666666-38.186667-42.666667-85.333333-42.666667-85.333333 19.093333-85.333334 42.666667zM128 426.666667c0 23.573333 38.186667 42.666667 85.333333 42.666666s85.333333-19.093333 85.333334-42.666666-38.186667-42.666667-85.333334-42.666667-85.333333 19.093333-85.333333 42.666667z" fill="#FF9191" fill-opacity=".299" p-id="8716"></path><path d="M696.021333 354.069333a18.474667 18.474667 0 0 1-26.730666 4.437334 20.970667 20.970667 0 0 1-4.352-28.224c52.437333-76.501333 152.149333-64.085333 204.885333-1.130667a20.949333 20.949333 0 0 1-1.578667 28.501333 18.474667 18.474667 0 0 1-27.050666-1.856c-38.122667-45.504-109.098667-54.357333-145.173334-1.706666zM327.978667 354.069333c6.186667 9.024 18.133333 11.008 26.730666 4.437334a20.970667 20.970667 0 0 0 4.352-28.224c-52.437333-76.501333-152.149333-64.085333-204.885333-1.130667a20.949333 20.949333 0 0 0 1.578667 28.501333 18.474667 18.474667 0 0 0 27.050666-1.856c38.122667-45.504 109.098667-54.357333 145.173334-1.706666z" fill="#443C25" p-id="8717"></path></svg>