<?xml version="1.0" standalone="no"?><!DOCTYPE svg PUBLIC "-//W3C//DTD SVG 1.1//EN" "http://www.w3.org/Graphics/SVG/1.1/DTD/svg11.dtd"><svg t="1752981746001" class="icon" viewBox="0 0 1024 1024" version="1.1" xmlns="http://www.w3.org/2000/svg" p-id="24349" xmlns:xlink="http://www.w3.org/1999/xlink" width="200" height="200"><path d="M666.988 0H356.99C254.18 0 202.82 0 147.48 17.522a217.316 217.316 0 0 0-129.934 129.98C0 202.866 0 254.225 0 357.012v309.953C0 769.843 0 821.18 17.522 876.521a217.384 217.384 0 0 0 129.98 129.957C202.82 1024 254.202 1024 356.989 1024h309.976c102.855 0 154.17 0 209.51-17.522a217.475 217.475 0 0 0 130.003-129.957C1024 821.202 1024 769.821 1024 666.988V357.012c0-102.787 0-154.169-17.522-209.51A217.543 217.543 0 0 0 876.476 17.499C821.202 0 769.82 0 666.988 0z" fill="#E48271" p-id="24350"></path><path d="M213.402 452.654h76.618v400.68h-76.618z m43.19-121.697c19.205 35.612 31.675 71.225 37.41 106.837h83.467c-11.514-45.511-25.896-81.123-43.144-106.837h-77.733z" fill="#FFFFFF" p-id="24351"></path><path d="M421.365 259.732h92.114V209.26H346.544c1.912-3.96 4.802-10.854 8.625-20.776 1.934-7.896 3.868-13.812 5.757-17.817H274.59c-13.425 53.43-44.1 93.047-92.091 118.738v50.45c63.306-15.816 108.407-42.53 135.259-80.123h28.785c9.58 25.714 15.36 50.472 17.295 74.206h80.577c-5.825-27.694-13.471-52.429-23.051-74.206z m-37.433 160.29h346.885v326.497c1.935 29.673-11.491 43.508-40.3 41.529h-47.582v59.369h69.086c67.152 1.957 99.76-28.718 97.826-92.024V360.63H383.932v59.392z" fill="#FFFFFF" p-id="24352"></path><path d="M654.473 473.43H372.417v299.804h195.721c61.394 1.957 90.18-27.74 86.335-89.043V473.43zM450.15 526.836h126.612v68.266H450.15v-68.266z m89.202 192.944H450.15v-74.206h126.612v35.635c1.912 27.717-10.536 40.55-37.41 38.571z m118.01-513.48c0-1.956 0.956-4.914 2.89-8.92l8.625-26.714h-86.335c-13.448 55.41-43.167 96.961-89.247 124.655v47.49c59.483-15.837 104.607-43.508 135.282-83.103h40.3c9.603 25.714 15.337 50.472 17.294 74.206h77.665c-1.912-19.752-9.58-44.51-23.029-74.206h100.739v-53.407H657.362z" fill="#FFFFFF" p-id="24353"></path></svg>