<?xml version="1.0" standalone="no"?><!DOCTYPE svg PUBLIC "-//W3C//DTD SVG 1.1//EN" "http://www.w3.org/Graphics/SVG/1.1/DTD/svg11.dtd"><svg t="1752997325681" class="icon" viewBox="0 0 1024 1024" version="1.1" xmlns="http://www.w3.org/2000/svg" p-id="54987" xmlns:xlink="http://www.w3.org/1999/xlink" width="200" height="200"><path d="M477.696 365.056c-23.552 0-44.544 10.752-59.904 27.648-23.552 31.744-6.144 76.8 6.144 102.4 12.8 25.6 70.144 117.248 72.704 119.296 2.048 2.048 4.096 2.048 4.096 0s6.144-136.704 2.048-168.448c-6.144-29.696-14.336-55.296-25.088-80.896zM351.744 427.008c-4.096 0-34.304 31.744-38.4 59.904-4.096 27.648 10.752 49.152 44.544 72.704 36.352 25.6 119.296 70.144 121.344 68.096 2.048-4.096-31.744-64-61.952-108.544-29.184-45.056-61.44-92.16-65.536-92.16z m10.752 273.408c25.6 10.752 66.048-14.848 76.8-21.504l29.696-21.504-144.896 4.096c8.704 15.36 21.504 28.16 38.4 38.912z m4.096-117.76c-25.6-12.8-78.848-42.496-80.896-42.496-2.048 0-10.752 38.4 6.144 66.048s49.152 36.352 64 38.4c16.896 2.048 115.2 2.048 115.2 0-2.048-2.048-78.848-49.152-104.448-61.952z m239.104-189.44c-14.848-16.896-36.352-27.648-59.904-27.648-10.752 25.6-18.944 51.2-23.552 78.848-4.096 31.744 2.048 168.448 2.048 168.448 0 2.048 2.048 2.048 4.096 0s61.952-95.744 72.704-119.296 28.16-68.608 4.608-100.352z m134.144 146.944c-2.048 0-55.296 29.696-80.896 42.496-25.6 12.8-102.4 59.904-104.448 61.952 0 2.048 98.304 2.048 115.2 0 14.848-2.048 47.104-10.752 64-38.4 14.848-27.648 6.144-66.048 6.144-66.048z m-155.648 138.752c10.752 6.144 51.2 31.744 76.8 21.504 16.896-8.704 29.696-23.552 38.4-40.448l-144.896-4.096 29.696 23.04z m125.952-192c-2.048-27.648-34.304-59.904-38.4-59.904-4.096 0-40.448 47.104-68.096 91.648s-61.952 104.448-59.904 108.544c2.048 4.096 85.504-42.496 121.344-68.096 34.304-23.04 47.104-42.496 45.056-72.192z" fill="#EA020A" p-id="54988"></path><path d="M728.576 837.632H295.424c-122.88 0-222.208-99.328-222.208-222.208 0-92.16 55.808-172.544 138.752-206.336C248.832 274.432 371.712 179.2 512 179.2s263.168 95.232 300.032 229.888c83.456 33.792 138.752 114.176 138.752 206.336 0 122.88-99.328 222.208-222.208 222.208zM512 237.568c-118.272 0-222.208 83.456-245.76 199.168-1.536 10.24-10.24 18.944-20.48 22.016-67.072 22.016-114.176 84.992-114.176 156.672 0 90.624 73.216 163.84 163.84 163.84h433.152c90.624 0 163.84-73.216 163.84-163.84 0-71.68-46.592-134.656-114.176-156.672-10.24-3.072-17.408-11.776-20.48-22.016-23.552-115.712-127.488-199.168-245.76-199.168z" fill="#0194FF" p-id="54989"></path></svg>