<?xml version="1.0" encoding="utf-8"?>
<!-- Generator: Adobe Illustrator 27.0.0, SVG Export Plug-In . SVG Version: 6.00 Build 0)  -->
<svg version="1.1" id="图层_1" xmlns="http://www.w3.org/2000/svg" xmlns:xlink="http://www.w3.org/1999/xlink" x="0px" y="0px"
	 viewBox="0 0 510.16 510.16" style="enable-background:new 0 0 510.16 510.16;" xml:space="preserve">
<style type="text/css">
	.st0{fill:#006EFB;}
	.st1{fill:#00B794;}
</style>
<g>
	<g>
		<g>
			<path class="st0" d="M226.88,376.71l0.33,0.66H104.06L0,197.16L113.8,0h62.35l70.38,121.99h-79.4l-43.86,73.68
				C141.36,225.45,208.44,344.25,226.88,376.71z"/>
			<path class="st0" d="M401.07,197.55L229.21,492.47h-69.88c15.35-26.25,44.7-76.63,67.15-115.1c0.11-0.22,0.22-0.44,0.39-0.66
				c8.36-14.31,15.79-27.07,21.35-36.59l-40.06-71.2l80.45,0.33l43.31-73.19h0.11l0.11-0.28L219.89,0h68.27L401.07,197.55z"/>
		</g>
		<polygon class="st1" points="510.16,198.34 338.8,492.47 268.83,492.47 440.29,198.13 327.06,0 396.73,0.01 		"/>
	</g>
</g>
</svg>
