<?xml version="1.0" standalone="no"?><!DOCTYPE svg PUBLIC "-//W3C//DTD SVG 1.1//EN" "http://www.w3.org/Graphics/SVG/1.1/DTD/svg11.dtd"><svg t="1757164122203" class="icon" viewBox="0 0 1024 1024" version="1.1" xmlns="http://www.w3.org/2000/svg" p-id="4776" xmlns:xlink="http://www.w3.org/1999/xlink" width="200" height="200"><path d="M691.2 252.2c0-49.6-17.4-91.9-52.4-126.8C603.9 90.4 561.7 73 512 73c-49.6 0-91.9 17.4-126.8 52.4-34.9 34.9-52.4 77.2-52.4 126.8h358.4z" fill="#F8C3A3" p-id="4777"></path><path d="M949.4 549.5c-7.1-7.1-15.5-10.6-25.2-10.6H798.7V374.2l96.9-96.9c7.1-7.1 10.6-15.5 10.6-25.2s-3.5-18.1-10.6-25.2c-7.1-7.1-15.5-10.6-25.2-10.6s-18.1 3.6-25.2 10.6l-96.9 96.9H275.7L178.8 227c-7.1-7.1-15.5-10.6-25.2-10.6s-18.1 3.6-25.2 10.6c-7.1 7.1-10.6 15.5-10.6 25.2s3.5 18.1 10.6 25.2l96.9 96.9v164.6H99.8c-9.7 0-18.1 3.5-25.2 10.6C67.5 556.6 64 565 64 574.7s3.5 18.1 10.6 25.2c7.1 7.1 15.5 10.6 25.2 10.6h125.4c0 59.7 10.8 110.9 32.5 153.4L144.6 891.1c-6.4 7.5-9.2 16.1-8.7 26 0.6 9.9 4.4 18.2 11.5 24.9 7.1 6 15.1 9 24.1 9 10.5 0 19.4-3.9 26.9-11.8l102.5-115.9 8.4 7.8c5.2 4.9 13.3 10.9 24.4 18.2 11 7.3 23.3 14.6 37 21.8 13.6 7.3 29.9 13.4 48.7 18.5 18.8 5 37.8 7.6 56.8 7.6V395.5h71.7v501.8c17.9 0 36-2.4 54.3-7.3 18.3-4.9 33.6-10.3 45.9-16.2 12.3-6 24.5-12.8 36.4-20.4 11.9-7.6 19.8-13 23.5-16 3.7-3 6.5-5.4 8.4-7.3l110.9 110.3c6.7 7.1 15.1 10.6 25.2 10.6s18.5-3.5 25.2-10.6c7.1-7.1 10.6-15.5 10.6-25.2s-3.5-18.1-10.6-25.2L761.2 773c25-44.4 37.5-98.6 37.5-162.4h125.4c9.7 0 18.1-3.5 25.2-10.6 7.1-7.1 10.6-15.5 10.6-25.2 0.1-9.8-3.4-18.2-10.5-25.3z" fill="#00ABEB" p-id="4778"></path></svg>