<?xml version="1.0" standalone="no"?><!DOCTYPE svg PUBLIC "-//W3C//DTD SVG 1.1//EN" "http://www.w3.org/Graphics/SVG/1.1/DTD/svg11.dtd"><svg t="1764317620780" class="icon" viewBox="0 0 1024 1024" version="1.1" xmlns="http://www.w3.org/2000/svg" p-id="5284" xmlns:xlink="http://www.w3.org/1999/xlink" width="200" height="200"><path d="M678.6048 856.1664c-84.6848 0-153.344-70.7072-153.344-157.9008s68.608-157.9008 153.344-157.952c84.6848 0.0512 153.344 70.7584 153.344 157.952s-68.608 157.8496-153.344 157.9008zM372.6336 494.2336c-52.0704-1.3312-93.5936-45.1072-93.5936-98.7136 0-53.5552 41.5232-97.3824 93.5936-98.6624 52.0192 1.28 93.5424 45.056 93.5424 98.6624 0 53.6064-41.5232 97.3824-93.5424 98.7136z m312.7296-308.1216h-256c-130.5088 0-236.288 108.9536-236.288 243.3024v263.5264c0 134.2976 105.7792 243.2 236.288 243.2h256c130.56 0 236.288-108.9024 236.288-243.2V429.4144c0-134.4-105.7792-243.3024-236.288-243.3024zM153.4976 93.5424c0 43.6224-34.304 78.9504-76.6976 78.9504S0.0512 137.216 0.0512 93.5424C0.1024 49.92 34.4064 14.5408 76.8 14.5408c42.3424 0 76.6976 35.3792 76.6976 79.0016z" fill="#00467c" p-id="5285" data-spm-anchor-id="a313x.search_index.0.i0.35803a81T49J2Y" class="selected"></path></svg>