<?xml version="1.0" standalone="no"?><!DOCTYPE svg PUBLIC "-//W3C//DTD SVG 1.1//EN" "http://www.w3.org/Graphics/SVG/1.1/DTD/svg11.dtd"><svg t="1752981875358" class="icon" viewBox="0 0 1024 1024" version="1.1" xmlns="http://www.w3.org/2000/svg" p-id="28022" xmlns:xlink="http://www.w3.org/1999/xlink" width="200" height="200"><path d="M0 0m227.555556 0l568.888888 0q227.555556 0 227.555556 227.555556l0 568.888888q0 227.555556-227.555556 227.555556l-568.888888 0q-227.555556 0-227.555556-227.555556l0-568.888888q0-227.555556 227.555556-227.555556Z" fill="#FFEEF1" p-id="28023"></path><path d="M579.697778 709.404444l232.675555 6.997334c-13.653333 27.875556-33.905778 52.110222-61.44 66.048-22.869333 9.841778-53.475556 1.137778-78.848-10.24l-10.524444-5.006222-9.728-5.063112-8.647111-4.835555-10.410667-6.257778-4.949333-3.072-48.128-38.513778z m-136.704 3.697778l-47.786667 34.872889-16.327111 9.557333-9.102222 5.006223-10.24 5.233777c-26.851556 13.198222-61.724444 25.486222-87.495111 14.677334-24.462222-15.36-43.178667-33.28-56.832-54.328889l-4.835556-8.021333 232.618667-6.997334zM148.935111 522.296889l0.682667 0.170667 5.461333 2.56 9.784889 5.12 88.632889 48.071111 20.935111 11.093333 8.647111 4.437333 9.443556 5.063111 16.839111 9.443556 25.941333 15.189333 48.355556 29.127111 40.96 25.6 17.806222 11.491556 3.242667 2.332444a4.664889 4.664889 0 0 1 0.625777 0.568889c0 0.227556-0.910222 0.455111-2.616889 0.682667l-4.380444 0.398222-9.955556 0.455111-23.779555 0.568889-49.208889 0.341334-37.944889-0.341334-31.971555-0.739555-18.602667-0.853334-6.030222-0.568889c-23.893333-3.299556-75.036444-17.237333-102.570667-62.350222-14.108444-23.438222-17.237333-51.541333-16.497778-73.216l0.512-8.874666c0.227556-2.787556 0.568889-5.404444 0.853334-7.850667l1.137777-6.656 1.137778-5.347556c0.967111-3.754667 1.991111-5.916444 2.56-5.916444z m728.746667-0.341333l1.536 9.045333 0.853333 6.428444 0.739556 7.736889 0.568889 8.931556c0.853333 21.902222-1.251556 51.086222-14.279112 75.093333-27.249778 45.397333-78.677333 59.335111-102.570666 62.691556l-5.973334 0.568889-8.362666 0.455111-28.899556 0.853333-35.953778 0.568889h-37.660444l-35.612444-0.455111-18.090667-0.568889-9.102222-0.512c-3.128889-0.284444-4.835556-0.568889-4.835556-0.910222l3.925333-2.787556 22.812445-14.563555 42.894222-26.453334 27.704889-16.782222 27.136-16.042667 18.602667-10.695111 10.922666-6.087111 9.500445-5.12 24.064-12.344889 35.328-19.057778 66.616889-36.181333 6.371555-3.185778a6.997333 6.997333 0 0 1 1.763556-0.625777zM768.568889 337.749333c6.656 0 58.083556 52.110222 61.44 97.28 3.128889 46.535111-15.473778 77.084444-64.512 112.924445l-12.060445 8.647111-16.327111 11.150222-12.117333 7.964445-12.856889 8.192-20.252444 12.515555-27.648 16.668445-27.192889 15.701333-19.057778 10.638222-17.237333 9.272889-10.126223 5.176889-8.817777 4.323555-7.281778 3.356445c-6.542222 2.730667-10.524444 3.811556-11.036445 2.787555-0.512-1.024 0.170667-3.754667 1.706667-7.964444l2.389333-5.688889 5.12-11.036444 6.826667-13.425778 8.135111-15.530667 12.743111-23.153778 14.222223-25.144888 19.569777-33.735112 16.668445-28.046222 8.192-13.539555 13.255111-21.105778 9.102222-13.994667 18.318222-27.249778 8.988445-12.913777 17.237333-23.893334 7.964445-10.638222 10.979555-14.165333 6.428445-7.964445 5.575111-6.599111 2.503111-2.730666 4.152889-4.380445c2.446222-2.389333 4.152889-3.697778 5.006222-3.697778z m-513.365333 0c0.853333 0 2.275556 1.194667 4.494222 3.413334l3.584 4.096 4.494222 5.518222 8.021333 10.695111 6.257778 8.590222 10.410667 14.791111 28.16 41.073778 45.169778 67.868445 13.255111 20.650666 17.578666 28.273778 16.668445 27.989333 15.246222 26.510223 10.012444 18.090666 8.533334 16.099556 6.656 13.539555 3.299555 7.281778c2.844444 6.542222 4.152889 10.808889 3.584 12.060445-0.284444 0.284444-1.479111 0-3.413333-0.625778l-8.135111-3.527111-16.952889-8.362667-22.300444-11.776-26.055112-14.336-28.103111-15.985778-21.390222-12.629333-13.994667-8.419556-20.081777-12.515555-12.515556-8.021334-11.491555-7.736888-10.353778-7.224889c-55.125333-38.115556-78.677333-72.988444-72.021334-118.101334 3.868444-26.339556 21.845333-55.068444 37.489778-74.410666l6.485334-7.68 5.973333-6.257778c5.518222-5.688889 9.784889-8.931556 11.434667-8.931556zM456.931556 237.226667c17.92 42.496 31.516444 86.584889 40.789333 131.754666 0.341333 2.673778 0.682667 5.802667 0.967111 9.329778l0.682667 11.719111 0.455111 13.767111 0.341333 23.779556-0.170667 31.175111-0.512 32.199111-1.479111 56.490667-3.584 95.971555c0 3.299556-3.299556 3.299556-6.656 0l-3.185777-4.664889-30.037334-48.014222-25.315555-41.415111-13.482667-22.414222-20.992-35.555556-10.695111-18.773333-8.533333-15.473778-4.209778-8.135111-4.664889-9.728a361.130667 361.130667 0 0 1-2.332445-5.233778l-4.664888-10.979555c-16.782222-41.870222-29.127111-98.247111 1.706666-140.686222a124.814222 124.814222 0 0 1 95.573334-45.112889z m109.511111 0c37.489778 0 71.338667 17.237333 95.573333 45.112889 29.411556 40.561778 19.342222 93.696 5.233778 133.290666l-4.096 10.922667-4.152889 10.069333-3.982222 8.988445-3.697778 7.623111-7.964445 15.018666-10.410666 18.375112-20.935111 35.498666-22.755556 37.546667-35.953778 57.856-13.312 20.593778a21.617778 21.617778 0 0 1-1.422222 1.991111c-2.844444 2.844444-5.688889 3.242667-6.485333 1.194666l-0.284445-3.584-2.332444-59.904-1.934222-63.886222-0.910223-46.990222-0.284444-28.672v-23.438222l0.284444-15.132445 0.455112-13.425777 0.284444-6.030223 0.796444-10.296889 0.455112-4.266666c6.940444-45.169778 20.878222-86.641778 37.831111-128.455111z" fill="#E5484D" p-id="28024"></path></svg>