<?xml version="1.0" standalone="no"?><!DOCTYPE svg PUBLIC "-//W3C//DTD SVG 1.1//EN" "http://www.w3.org/Graphics/SVG/1.1/DTD/svg11.dtd"><svg t="1752995232847" class="icon" viewBox="0 0 1316 1024" version="1.1" xmlns="http://www.w3.org/2000/svg" p-id="16208" xmlns:xlink="http://www.w3.org/1999/xlink" width="257.03125" height="200"><path d="M1301.316083 343.057923H592.715427c-212.916543 0-442.218403 305.931244-442.218403 305.931244s-73.034489 81.294005-73.034488 149.555871c0 65.803555 24.14597 83.747174 161.651999 83.747174H1303.265247" fill="#F0F0FF" p-id="16209"></path><path d="M728.786584 642.81253l-23.05053 49.047948h593.630866l1.949163-30.322607z" fill="#FFFFFF" p-id="16210"></path><path d="M1301.316083 329.424064H592.715427c-217.236589 0-443.59156 298.669452-453.126518 311.387873 0.241717-0.324003 0.498862-0.632578 0.766293-0.941153-3.121747 3.486894-76.521383 86.020341-76.521382 158.674254 0 82.667162 45.926201 97.381032 175.280715 97.381033H1303.265247v-27.262575H239.114535c-142.340366 0-148.018141-20.247643-148.018141-70.118458 0-62.182945 68.848159-139.671195 69.542452-140.458061 0.267431-0.298289 0.52972-0.612006 0.766294-0.936009 2.252595-2.998318 227.702414-300.469471 431.310287-300.469472h708.600656v-27.257432zM0 952.024951h1309.056165v33.403211H0z" fill="#6E6E96" p-id="16211"></path><path d="M1301.316083 483.701129H807.642849l-66.209845 164.202883h559.883079" fill="#B0E4FF" p-id="16212"></path><path d="M1301.316083 470.06727H807.642849a13.623573 13.623573 0 0 0-12.641277 8.53209l-66.214988 164.21317a13.649288 13.649288 0 0 0 12.64642 18.730484h559.883079v-27.262575H741.433004c4.530905 0 8.763521 2.252595 11.288691 6.001778a13.680145 13.680145 0 0 1 1.352586 12.73385l66.209845-164.21317a13.628716 13.628716 0 0 1-12.641277 8.537233h493.673234v-27.27286z" fill="#6E6E96" p-id="16213"></path><path d="M278.190378 508.613393c-57.024605 60.156638-127.194491 139.815197-127.672782 140.350059l-0.020572 0.030858 422.09419-1.085155 84.19975-172.035538H314.550764a1058.31865 1058.31865 0 0 0-36.360386 32.739776z" fill="#B0E4FF" p-id="16214"></path><path d="M200.151836 691.860478h364.647867l20.252786-38.422693-373.977108 9.030953z" fill="#FFFFFF" p-id="16215"></path><path d="M268.300559 499.237865c-56.02688 59.102341-125.060183 137.372314-127.971071 140.674063a14.55444 14.55444 0 0 0-0.545149 0.663435 13.628716 13.628716 0 0 0 10.753829 22.047663l422.089046-1.085155a13.603001 13.603001 0 0 0 12.425275-8.0898l84.194607-172.035538a13.623573 13.623573 0 0 0-12.456132-19.167632H314.550764c-3.255463 0-6.413211 1.177727-8.881809 3.296606a1084.074351 1084.074351 0 0 0-36.82839 33.161495 6.62407 6.62407 0 0 0-0.540006 0.534863z m46.250205-9.735532h342.2402a13.628716 13.628716 0 0 1-12.461275-19.167632l-84.19975 172.040681a13.628716 13.628716 0 0 1 12.425274-8.100086l-422.094189 1.080012a13.639002 13.639002 0 0 1 10.28068 22.623668c2.93146-3.327464 71.656188-81.237433 127.338493-139.995198-0.174859 0.185145-0.360004 0.365147-0.545148 0.545148a1049.745416 1049.745416 0 0 1 35.89238-32.328342 13.561858 13.561858 0 0 1-8.876665 3.301749z" fill="#6E6E96" p-id="16216"></path><path d="M1302.956672 788.819792h-941.152836c-137.500886 0-161.646857-16.837893-161.646857-78.599119 0-64.075537 73.029346-140.380917 73.029346-140.380917s16.889322-21.111652 45.65877-51.84055h304.316369l12.656706-28.49173H346.375101c44.537615-44.676474 105.913123-99.535912 174.29842-141.538072-189.506009 54.170289-370.171353 295.187701-370.171354 295.187701s-73.034489 81.294005-73.034488 149.555871c0 65.798412 24.14597 83.742031 161.651999 83.742031H1303.265247l-0.308575-87.635215z" fill="#6E6E96" p-id="16217"></path><path d="M805.379968 525.780432h495.925829l0.010286-28.450588h-487.830886z" fill="#6E6E96" p-id="16218"></path><path d="M303.848364 563.807121H407.061459v-36.000382H329.562923zM792.867264 563.807121h502.611614v-36.000382h-488.931469z" fill="#FFFFFF" p-id="16219"></path><path d="M347.902546 873.384689m-70.468176 0a70.468176 70.468176 0 1 0 140.936352 0 70.468176 70.468176 0 1 0-140.936352 0Z" fill="#F0F0FF" p-id="16220"></path><path d="M347.902546 816.555515c31.335761 0 56.829174 25.493413 56.829174 56.834317s-25.493413 56.834317-56.829174 56.834317c-31.340904 0-56.834317-25.493413-56.834317-56.834317s25.493413-56.834317 56.834317-56.834317z m-84.096892 56.834317c0 46.373635 37.723257 84.096892 84.096892 84.096891 46.368492 0 84.096892-37.723257 84.096891-84.096891s-37.723257-84.096892-84.096891-84.096892-84.096892 37.723257-84.096892 84.096892z" fill="#6E6E96" p-id="16221"></path><path d="M748.63308 873.384689m-70.468175 0a70.468176 70.468176 0 1 0 140.936351 0 70.468176 70.468176 0 1 0-140.936351 0Z" fill="#F0F0FF" p-id="16222"></path><path d="M748.63308 816.555515c31.346047 0 56.844603 25.493413 56.844603 56.834317s-25.498556 56.834317-56.844603 56.834317c-31.330618 0-56.824031-25.493413-56.824031-56.834317s25.498556-56.834317 56.824031-56.834317z m-84.086605 56.834317c0 46.373635 37.7284 84.096892 84.102034 84.096891 46.368492 0 84.102035-37.723257 84.102035-84.096891s-37.733543-84.096892-84.102035-84.096892-84.102035 37.723257-84.102034 84.096892z" fill="#6E6E96" p-id="16223"></path><path d="M967.489687 873.384689m-70.468176 0a70.468176 70.468176 0 1 0 140.936351 0 70.468176 70.468176 0 1 0-140.936351 0Z" fill="#F0F0FF" p-id="16224"></path><path d="M967.489687 816.555515c31.330618 0 56.829174 25.493413 56.829174 56.834317s-25.498556 56.834317-56.829174 56.834317c-31.35119 0-56.844603-25.493413-56.844603-56.834317s25.503699-56.834317 56.844603-56.834317z m-84.091749 56.834317c0 46.373635 37.7284 84.096892 84.102034 84.096891 46.363349 0 84.102035-37.723257 84.102035-84.096891s-37.738686-84.096892-84.102035-84.096892c-46.38392 0-84.102035 37.723257-84.102034 84.096892z" fill="#6E6E96" p-id="16225"></path><path d="M374.434827 462.239758s100.78564-40.665003 254.635843-40.665002h670.306535l1.944021-64.877831H627.121506c0-0.005143-151.438177-15.022445-252.686679 105.542833z" fill="#FFFFFF" p-id="16226"></path><path d="M65.386979 77.421392H367.718185v36.000382H65.386979z" fill="#6E6E96" p-id="16227"></path><path d="M789.436942 159.707979h246.85976v36.000382h-246.85976z" fill="#6E6E96" p-id="16228"></path><path d="M1183.491977 873.384689m-70.468176 0a70.468176 70.468176 0 1 0 140.936351 0 70.468176 70.468176 0 1 0-140.936351 0Z" fill="#F0F0FF" p-id="16229"></path><path d="M1183.491977 816.555515c31.330618 0 56.829174 25.493413 56.829174 56.834317s-25.498556 56.834317-56.829174 56.834317c-31.35119 0-56.844603-25.493413-56.844603-56.834317s25.503699-56.834317 56.844603-56.834317z m-84.091749 56.834317c0 46.373635 37.7284 84.096892 84.102035 84.096891 46.363349 0 84.102035-37.723257 84.102034-84.096891s-37.738686-84.096892-84.102034-84.096892c-46.38392 0-84.102035 37.723257-84.102035 84.096892z" fill="#6E6E96" p-id="16230"></path></svg>