<?xml version="1.0" standalone="no"?><!DOCTYPE svg PUBLIC "-//W3C//DTD SVG 1.1//EN" "http://www.w3.org/Graphics/SVG/1.1/DTD/svg11.dtd"><svg t="1753154201220" class="icon" viewBox="0 0 1129 1024" version="1.1" xmlns="http://www.w3.org/2000/svg" p-id="11988" xmlns:xlink="http://www.w3.org/1999/xlink" width="220.5078125" height="200"><path d="M957.303333 324.258873H76.771306v640.781104H957.303333V324.258873z" fill="#EBEFEE" p-id="11989"></path><path d="M1027.655776 213.522853H147.123749v640.781103h880.532027V213.522853z" fill="#B2B2B2" p-id="11990"></path><path d="M338.584416 256.712026c22.614803 0 40.936195-18.321392 40.936195-40.936195s-18.321392-40.936195-40.936195-40.936195-40.936195 18.321392-40.936195 40.936195c0 22.614803 18.321392 40.936195 40.936195 40.936195z" fill="#095D2C" p-id="11991"></path><path d="M382.156171 674.405745l-110.863548 30.989083-13.98547-50.033128 73.96571-162.767072 53.051268-14.835651 37.663 134.583586 27.503342-7.694134 13.220308 47.185022-27.503342 7.694134 11.434929 40.936195-53.051268 14.835651-11.434929-40.936195z m-13.220308-47.227531l-19.25659-68.864627-39.278343 85.273112 58.577442-16.365976z m145.550915-0.935199c-3.358213-43.104155 2.040433-73.880692 16.153431-92.287102 14.240525-18.448919 37.237909-28.863631 68.992154-31.371663 15.260741-1.190253 27.928432-0.255054 38.045581 2.805596 10.07464 2.933123 18.448919 7.226535 25.122836 12.837727 6.631409 5.483665 11.987546 11.477438 16.025904 17.896301 4.123376 6.333845 7.609116 13.815434 10.457222 22.529785 5.526174 16.578521 9.011914 34.049732 10.457221 52.413633 3.188177 41.14874-1.402798 71.79775-13.857944 91.94703-12.455146 20.14928-35.665075 31.584209-69.672298 34.219768-19.086554 1.487816-34.729877-0.340072-46.972477-5.526174-12.2426-5.186102-22.572294-13.347835-30.989083-24.4852-6.1213-7.949188-11.264893-19.001536-15.515795-33.199552-4.123376-14.325543-6.886463-30.22392-8.246752-47.737639z m62.488273-4.718502c2.252979 28.863631 6.291336 48.417784 12.200091 58.66246 5.951264 10.117149 13.815434 14.793142 23.507493 14.02798 6.376354-0.510108 11.732492-3.145668 16.025904-7.949189 4.37843-4.888538 7.269044-12.285109 8.714351-22.147204 1.530325-9.862095 1.487816-25.080327-0.127527-45.569679-2.337997-30.096393-6.503881-50.118145-12.455145-60.022749-5.866246-10.032131-13.900452-14.623106-24.10262-13.857943-10.414712 0.807672-17.51372 6.716427-21.339532 17.683756-3.825813 10.882311-4.633484 30.606501-2.380506 59.172568z m280.6021 29.033667l-114.221761-14.410561 6.503882-51.563452 131.310391-121.320769 54.624102 6.886463-17.471211 138.664453 28.311013 3.570758-6.1213 48.630329-28.311013-3.570758-5.313629 42.168957-54.624102-6.886463 5.313628-42.168957z m6.121301-48.630329l8.969405-70.94757-69.289718 63.338454 60.320313 7.609116z" fill="#FFFFFF" p-id="11992"></path><path d="M965.380049 1024c90.799286 0 164.382415-73.625638 164.382415-164.382415s-73.625638-164.382415-164.382415-164.382415-164.382415 73.625638-164.382415 164.382415 73.583129 164.382415 164.382415 164.382415z" fill="#DB504A" p-id="11993"></path></svg>