<?xml version="1.0" standalone="no"?><!DOCTYPE svg PUBLIC "-//W3C//DTD SVG 1.1//EN" "http://www.w3.org/Graphics/SVG/1.1/DTD/svg11.dtd"><svg t="1753154223559" class="icon" viewBox="0 0 1024 1024" version="1.1" xmlns="http://www.w3.org/2000/svg" p-id="19236" xmlns:xlink="http://www.w3.org/1999/xlink" width="200" height="200"><path d="M328.6592 113.9968l6.336 25.7024c0.7168 2.88 2.9696 5.1392 5.856 5.8496l25.7344 6.3488a1.9968 1.9968 0 0 1 0 3.8848l-25.7344 6.336a8 8 0 0 0-5.856 5.8816l-6.336 25.7408a1.9968 1.9968 0 0 1-3.8912 0l-6.336-25.7408a8 8 0 0 0-5.8624-5.8624l-25.7408-6.336a1.9968 1.9968 0 0 1 0-3.8848l25.7408-6.3488a8 8 0 0 0 5.856-5.8496l6.3424-25.7216a2.0032 2.0032 0 0 1 3.8912 0zM732.6208 801.9392l-2.0032 21.28a6.464 6.464 0 0 0 2.9184 6.0032l17.9328 11.616a1.6128 1.6128 0 0 1-0.9984 2.9504l-21.28-1.9392a6.464 6.464 0 0 0-6.0032 2.912l-11.6096 17.9264a1.6128 1.6128 0 0 1-3.0016-0.9984l2.0032-21.28a6.432 6.432 0 0 0-2.912-5.9968l-17.9264-11.6224a1.6128 1.6128 0 0 1 0.9984-2.944l21.2672 1.9456c2.3872 0.2112 4.6976-0.9152 6.0032-2.9184l11.616-17.9328a1.6128 1.6128 0 0 1 2.9952 0.9984zM131.3536 192.6912l16.128 18.4576c1.8176 2.0736 4.6208 2.9632 7.296 2.3232l23.84-5.696a1.856 1.856 0 0 1 1.6384 3.1872l-18.4512 16.128a7.392 7.392 0 0 0-2.3296 7.296l5.7088 23.8208a1.856 1.856 0 0 1-3.1872 1.6512l-16.128-18.4448a7.3984 7.3984 0 0 0-7.296-2.336l-23.8336 5.7024a1.856 1.856 0 0 1-1.6512-3.1872l18.4576-16.128c2.0672-1.8112 2.9696-4.6208 2.3296-7.296l-5.7088-23.8272a1.856 1.856 0 0 1 3.1872-1.6512zM880 840q0 1.1776-0.1152 2.3552-0.1152 1.1712-0.3456 2.3296-0.2304 1.152-0.576 2.2848-0.3392 1.1264-0.7936 2.2144-0.448 1.088-1.0048 2.1312-0.5568 1.0368-1.216 2.0224-0.6528 0.9792-1.3952 1.888-0.7488 0.9152-1.5872 1.7472-0.832 0.832-1.7408 1.5808-0.9152 0.7488-1.8944 1.408-0.9792 0.6528-2.016 1.2032-1.0432 0.5568-2.1312 1.0112-1.088 0.448-2.2208 0.7936-1.1264 0.3392-2.2848 0.576-1.152 0.224-2.3296 0.3392-1.1712 0.1152-2.3488 0.1152t-2.3552-0.1152q-1.1712-0.1152-2.3296-0.3456-1.152-0.2304-2.2848-0.576-1.1264-0.3392-2.2144-0.7872-1.088-0.448-2.1312-1.0112-1.0368-0.5504-2.0224-1.2096-0.9792-0.6528-1.888-1.4016-0.9152-0.7488-1.7472-1.5808-0.832-0.832-1.5808-1.7472-0.7488-0.9088-1.408-1.888-0.6528-0.9856-1.2032-2.0224-0.5568-1.0432-1.0112-2.1312-0.448-1.088-0.7936-2.2144-0.3392-1.1328-0.576-2.2848-0.224-1.152-0.3392-2.3296-0.1152-1.1776-0.1152-2.3552t0.1152-2.3488q0.1152-1.1776 0.3456-2.3296 0.2304-1.1584 0.576-2.2848 0.3392-1.1328 0.7872-2.2208 0.448-1.088 1.0112-2.1312 0.5504-1.0368 1.2096-2.016 0.6528-0.9792 1.408-1.8944 0.7424-0.9088 1.5744-1.7408 0.832-0.832 1.7472-1.5872 0.9088-0.7424 1.888-1.4016 0.9856-0.6528 2.0224-1.2096 1.0432-0.5568 2.1312-1.0048t2.2144-0.7936q1.1328-0.3456 2.2848-0.576t2.3296-0.3456q1.1776-0.1152 2.3552-0.1152t2.3488 0.1152q1.1776 0.1152 2.3296 0.3456 1.1584 0.2304 2.2848 0.576 1.1328 0.3392 2.2208 0.7936 1.088 0.448 2.1312 1.0048 1.0368 0.5568 2.016 1.216 0.9792 0.6528 1.8944 1.3952 0.9088 0.7488 1.7408 1.5872 0.832 0.832 1.5872 1.7408 0.7424 0.9152 1.4016 1.8944 0.6528 0.9792 1.2096 2.016 0.5568 1.0432 1.0048 2.1312t0.7936 2.2208q0.3456 1.1264 0.576 2.2848 0.2304 1.152 0.3456 2.3296 0.1152 1.1712 0.1152 2.3488z" fill="#CCDEFF" p-id="19237"></path><path d="M278.7072 892.096c20.7808 0 37.6832-17.2032 37.6832-38.3552a38.5792 38.5792 0 0 0-6.3936-21.3696 37.0048 37.0048 0 0 0-20.992-6.5216c-0.8576 0-1.7536 0-2.8288 0.1088a3.3984 3.3984 0 0 1-3.36-1.9968 35.3664 35.3664 0 0 0-5.5744-8.5376l-1.344 0.0768a3.3984 3.3984 0 0 1-3.36-1.9968c-0.768-1.664-1.664-3.2576-2.6816-4.7744-9.376-6.7264-22.0544-10.7264-35.68-10.7264-28.3264 0-51.3792 17.2096-51.3792 38.3552a3.456 3.456 0 0 1-3.4176 3.4816c-20.7808 0-37.6832 14.08-37.6832 31.392 0.0256 4.9984 1.4272 9.9008 4.064 14.144a42.496 42.496 0 0 0 23.3408 6.7776l109.6064-0.0512z" fill="#80ADFF" p-id="19238"></path><path d="M278.7072 899.5904h-13.7088a4 4 0 0 1 0-8h13.696c20.4672 0 37.1072-16.9984 37.1072-37.8496 0-20.8512-16.64-37.8432-37.1008-37.8432-0.832 0-1.7088 0-2.7712 0.1152a4 4 0 0 1-3.9424-2.3232c-6.9888-15.36-26.3552-25.6896-48.0768-25.6896-28 0-50.816 16.9984-50.816 37.8496 0 2.208-1.792 4-3.9936 4-20.4608 0-37.1008 13.8432-37.1008 30.8672 0 17.0304 16.64 30.8736 37.1008 30.8736h68.5056a4 4 0 0 1 0 8H169.1008c-24.8704 0-45.1008-17.44-45.1008-38.8736 0-20.3392 18.208-37.0688 41.312-38.7392 2.5152-23.4752 27.84-41.9968 58.5984-41.9968 23.6608 0 44.9984 11.1104 54.1312 27.904h0.6656c24.8704 0 45.1008 20.5568 45.1008 45.8368 0 25.28-20.224 45.8688-45.1008 45.8688z" fill="#101129" p-id="19239"></path><path d="M873.728 217.1328c20.7936 0 37.7088-19.744 37.7088-44a49.1328 49.1328 0 0 0-6.4384-24.5248 33.8752 33.8752 0 0 0-20.9984-7.4752c-0.8512 0-1.7408 0-2.816 0.1408a3.392 3.392 0 0 1-3.3664-2.304 42.08 42.08 0 0 0-5.5808-9.7984l-1.344 0.1024a3.392 3.392 0 0 1-3.3664-2.304 41.984 41.984 0 0 0-2.6752-5.472 56.1792 56.1792 0 0 0-35.712-12.3648c-28.352 0-51.4176 19.7376-51.4176 44a3.7504 3.7504 0 0 1-3.4304 4c-20.8 0-37.7216 16.1472-37.7216 36 0 5.6576 1.4016 11.232 4.0704 16.2304a38.6368 38.6368 0 0 0 23.36 7.7696h109.728z" fill="#80ADFF" p-id="19240"></path><path d="M873.728 225.1328h-13.7344a4 4 0 1 1 0-8h13.7216c20.48 0 37.1392-19.744 37.1392-44 0-24.2624-16.6592-44-37.1392-44-0.8192 0-1.6896 0-2.7392 0.128a4 4 0 0 1-4-2.496c-7.0912-17.728-26.4064-29.632-48.064-29.632-28.0064 0-50.8672 19.7376-50.8672 44 0 2.208-1.792 4-4 4-20.48 0-37.1392 16.1472-37.1392 36 0 19.8464 16.6592 36 37.1392 36h68.5696a4 4 0 1 1 0 8h-68.6144c-24.896 0-45.1456-19.744-45.1456-44 0-23.0016 18.2016-41.9456 41.2992-43.84 2.2336-26.8928 27.712-48.16 58.7008-48.16 23.8208 0 45.2608 12.7488 54.3424 32h0.5184c24.896 0 45.1392 23.328 45.1392 52s-20.2368 52-45.1264 52z" fill="#101129" p-id="19241"></path><path d="M800 512q0 7.072-0.3456 14.1312-0.352 7.0656-1.0432 14.0992-0.6912 7.04-1.728 14.0288-1.0368 6.9952-2.4192 13.9264-1.376 6.9376-3.0976 13.792-1.7152 6.8608-3.7696 13.6256-2.048 6.7648-4.4352 13.4208-2.3808 6.656-5.088 13.184-2.7008 6.5344-5.728 12.928-3.0208 6.3936-6.3552 12.6272-3.328 6.2336-6.9632 12.3008-3.6352 6.0608-7.5648 11.9424-3.9296 5.8752-8.1408 11.5584-4.2112 5.6768-8.6976 11.136-4.48 5.472-9.2288 10.7072-4.7488 5.2416-9.7472 10.24-4.9984 4.9984-10.24 9.7472-5.2416 4.7488-10.7008 9.2352-5.4656 4.48-11.1488 8.6912-5.6768 4.2176-11.5584 8.1408-5.8752 3.9296-11.9424 7.5648-6.0608 3.6352-12.2944 6.9696-6.24 3.328-12.6272 6.3552-6.3936 3.0208-12.928 5.728-6.528 2.7008-13.184 5.088-6.656 2.3808-13.4208 4.4288-6.7648 2.0544-13.632 3.776-6.848 1.7152-13.7856 3.0912-6.9376 1.3824-13.9264 2.4192-6.9952 1.0368-14.0288 1.728-7.04 0.6976-14.0992 1.0432Q519.072 800 512 800q-7.072 0-14.1312-0.3456-7.0656-0.3456-14.0992-1.0432-7.04-0.6912-14.0288-1.728-6.9952-1.0368-13.9264-2.4192-6.9376-1.376-13.792-3.0912-6.8608-1.7216-13.6256-3.776-6.7648-2.048-13.4208-4.4288-6.656-2.3872-13.1904-5.088-6.528-2.7072-12.928-5.728-6.3872-3.0272-12.6208-6.3552-6.2336-3.3344-12.3008-6.9696-6.0608-3.6352-11.9424-7.5648-5.8752-3.9232-11.5584-8.1408-5.6768-4.2112-11.136-8.6912-5.472-4.4864-10.7072-9.2352-5.2416-4.7488-10.24-9.7472-4.9984-4.9984-9.7472-10.24-4.7488-5.2352-9.2352-10.7008-4.48-5.4656-8.6976-11.1424-4.2112-5.6832-8.1344-11.5584-3.9296-5.8816-7.5648-11.9424-3.6352-6.0672-6.9696-12.3008-3.328-6.2336-6.3552-12.6272-3.0208-6.3936-5.728-12.928-2.7008-6.528-5.088-13.184-2.3808-6.656-4.4288-13.4208-2.0544-6.7648-3.776-13.6256-1.7152-6.8544-3.0912-13.792-1.3824-6.9312-2.4192-13.9264-1.0368-6.9952-1.728-14.0288-0.6976-7.04-1.0432-14.0992Q224 519.072 224 512q0-7.072 0.3456-14.1312 0.3456-7.0592 1.0432-14.0992 0.6912-7.0336 1.728-14.0288 1.0368-6.9888 2.4192-13.9264 1.376-6.9312 3.0912-13.792 1.7216-6.8608 3.776-13.6256 2.048-6.7648 4.4288-13.4208 2.3872-6.656 5.088-13.184 2.7072-6.5344 5.728-12.928 3.0272-6.3872 6.3552-12.6272 3.3344-6.2336 6.9696-12.2944 3.6352-6.0672 7.5648-11.9488 3.9232-5.8752 8.1344-11.552 4.2176-5.6832 8.704-11.1488 4.48-5.4592 9.2288-10.7008t9.7472-10.24q4.9984-4.992 10.24-9.7472 5.2352-4.7488 10.7008-9.2288 5.4656-4.4864 11.1424-8.704 5.6832-4.2048 11.5584-8.128 5.8816-3.936 11.9424-7.5712 6.0672-3.6352 12.3008-6.9632 6.2336-3.3344 12.6272-6.3552 6.3872-3.0272 12.9216-5.728 6.528-2.7072 13.184-5.088 6.656-2.3808 13.4272-4.4352 6.7648-2.048 13.6256-3.776 6.8544-1.7152 13.792-3.0912 6.9312-1.3824 13.9264-2.4192 6.9952-1.0368 14.0288-1.728 7.04-0.6912 14.0992-1.0432Q504.928 224 512 224q7.072 0 14.1312 0.3456 7.0592 0.352 14.0992 1.0432 7.0336 0.6912 14.0288 1.728 6.9888 1.0368 13.9264 2.4192 6.9312 1.376 13.792 3.0976 6.8608 1.7152 13.6256 3.7696 6.7648 2.048 13.4208 4.4352 6.656 2.3808 13.184 5.088 6.5344 2.7008 12.928 5.728 6.3872 3.0208 12.6272 6.3552 6.2336 3.328 12.2944 6.9632 6.0672 3.6352 11.9488 7.5648 5.8752 3.9296 11.552 8.1408 5.6832 4.2112 11.1488 8.6976 5.4592 4.48 10.7008 9.2288t10.24 9.7472q4.992 4.9984 9.7472 10.24 4.7488 5.2416 9.2288 10.7008 4.4864 5.4656 8.704 11.1488 4.2048 5.6768 8.128 11.552 3.936 5.888 7.5712 11.9488 3.6352 6.0608 6.9632 12.2944 3.3344 6.24 6.3552 12.6272 3.0272 6.3936 5.728 12.928 2.7072 6.528 5.088 13.184 2.3808 6.656 4.4352 13.4208 2.048 6.7648 3.776 13.632 1.7152 6.848 3.0912 13.7856 1.3824 6.9376 2.4192 13.9264 1.0368 6.9952 1.728 14.0288 0.6912 7.04 1.0432 14.0992Q800 504.928 800 512z" fill="#FFFFFF" p-id="19242"></path><path d="M512.4672 804.1216a293.7088 293.7088 0 0 1-76.0448-10.0672c-204.9216-55.424-283.0592-304.8064-146.4-467.2512 136.6592-162.432 395.7376-128.128 485.408 64.2752 89.664 192.4096-50.688 412.864-262.9632 413.0432z m-0.928-576.2368c-142.4512 0.256-262.6752 105.984-281.1392 247.232-18.464 141.248 70.5408 274.336 208.1408 311.2064 151.2576 40.5312 307.2896-49.5488 347.8208-200.8192l3.8656 0.9984-3.8656-0.9984c40.5312-151.264-49.5488-307.2896-200.8192-347.8208a285.3696 285.3696 0 0 0-74.0032-9.7984z" fill="#101129" p-id="19243"></path><path d="M704 592q0 5.1072-0.256 10.208-0.2432 5.1008-0.7488 10.176-0.4992 5.088-1.248 10.1376-0.7488 5.056-1.7472 10.0608-0.992 5.0048-2.24 9.9584-1.2352 4.9536-2.72 9.8368-1.4784 4.8896-3.2 9.696-1.7216 4.8064-3.6736 9.5232-1.952 4.7168-4.1344 9.3376-2.1888 4.6144-4.5952 9.12-2.4064 4.4992-5.0304 8.8768-2.624 4.384-5.4592 8.6272-2.8416 4.2496-5.8816 8.3456-3.04 4.1024-6.2784 8.0512t-6.6688 7.7312q-3.4304 3.7824-7.04 7.392-3.6096 3.6096-7.392 7.04-3.7888 3.4304-7.7312 6.6688-3.9488 3.2384-8.0512 6.2784-4.096 3.0464-8.3456 5.8816-4.2432 2.8352-8.6272 5.4592-4.3776 2.624-8.8832 5.0368-4.4992 2.4064-9.12 4.5888-4.608 2.1824-9.3312 4.1344-4.7168 1.9584-9.5232 3.6736-4.8064 1.728-9.696 3.2-4.8832 1.4848-9.8368 2.7264-4.9536 1.2416-9.9648 2.24-5.0048 0.992-10.0544 1.7408-5.056 0.7488-10.1376 1.2544-5.0816 0.4992-10.176 0.7488-5.1008 0.256-10.208 0.256-5.1072 0-10.208-0.256-5.1008-0.256-10.176-0.7488-5.088-0.5056-10.1376-1.2544-5.056-0.7488-10.0608-1.7408-5.0048-0.9984-9.9584-2.24-4.9536-1.2416-9.8368-2.72-4.8896-1.4848-9.696-3.2-4.8064-1.728-9.5232-3.68-4.7168-1.952-9.3376-4.1344-4.6144-2.1824-9.12-4.5888-4.4992-2.4064-8.8768-5.0368-4.384-2.624-8.6272-5.4592-4.2496-2.8352-8.3456-5.8816-4.1024-3.04-8.0512-6.2784t-7.7312-6.6688q-3.7824-3.4304-7.392-7.04-3.6096-3.6096-7.04-7.392-3.4304-3.7824-6.6688-7.7312t-6.2784-8.0512q-3.0464-4.096-5.8816-8.3456-2.8352-4.2432-5.4592-8.6272-2.624-4.3776-5.0368-8.8768-2.4064-4.5056-4.5888-9.12-2.176-4.6208-4.1344-9.3376-1.9584-4.7168-3.6736-9.5232-1.728-4.8064-3.2-9.696-1.4848-4.8832-2.7264-9.8368-1.2416-4.9536-2.24-9.9584-0.992-5.0112-1.7408-10.0608-0.7488-5.056-1.2544-10.1312-0.4992-5.0816-0.7488-10.1824-0.256-5.1008-0.256-10.208 0-5.1072 0.256-10.208 0.256-5.0944 0.7488-10.176 0.5056-5.0816 1.2544-10.1376 0.7488-5.0496 1.7408-10.0544 0.9984-5.0112 2.24-9.9648 1.2416-4.9536 2.72-9.8368 1.4848-4.8896 3.2-9.696 1.728-4.8 3.68-9.5232 1.952-4.7168 4.1344-9.3312 2.1824-4.6208 4.5888-9.12 2.4064-4.5056 5.0368-8.8832 2.624-4.384 5.4592-8.6272t5.8816-8.3456q3.04-4.096 6.2784-8.0512 3.2384-3.9424 6.6688-7.7312 3.4304-3.776 7.04-7.392 3.6096-3.6096 7.392-7.04 3.7824-3.4304 7.7312-6.6688t8.0512-6.2784q4.096-3.04 8.3456-5.8816 4.2432-2.8352 8.6272-5.4592 4.3776-2.624 8.8768-5.0304 4.5056-2.4064 9.12-4.5888 4.6208-2.1888 9.3376-4.1408 4.7168-1.952 9.5232-3.6736 4.8064-1.7216 9.696-3.2 4.8832-1.4848 9.8368-2.7264 4.9536-1.2416 9.9584-2.24 5.0112-0.992 10.0608-1.7408 5.056-0.7488 10.1312-1.248 5.0816-0.5056 10.1824-0.7552Q490.8928 384 496 384q5.1072 0 10.208 0.256 5.0944 0.2432 10.176 0.7488 5.0816 0.4992 10.1376 1.248 5.0496 0.7488 10.0544 1.7472 5.0112 0.992 9.9648 2.24 4.9536 1.2352 9.8368 2.72 4.8896 1.4784 9.696 3.2 4.8 1.7216 9.5232 3.6736 4.7168 1.952 9.3312 4.1408 4.6208 2.176 9.12 4.5888 4.5056 2.4064 8.8832 5.0304 4.384 2.624 8.6272 5.4592 4.2432 2.8416 8.3456 5.8816 4.096 3.04 8.0512 6.2784 3.9424 3.2384 7.7312 6.6688 3.776 3.4304 7.392 7.04 3.6096 3.6096 7.04 7.392 3.4304 3.7888 6.6688 7.7312 3.2384 3.9488 6.2784 8.0512 3.04 4.096 5.8816 8.3456 2.8352 4.2432 5.4592 8.6272 2.624 4.3776 5.0304 8.8832 2.4064 4.4992 4.5888 9.12 2.1888 4.608 4.1408 9.3312 1.952 4.7168 3.6736 9.5232 1.7216 4.8064 3.2 9.696 1.4848 4.8832 2.7264 9.8368 1.2416 4.9536 2.24 9.9648 0.992 5.0048 1.7408 10.0544 0.7488 5.056 1.248 10.1376 0.5056 5.0816 0.7552 10.176 0.2496 5.1008 0.2496 10.208z" fill="#80ADFF" p-id="19244"></path><path d="M446.0672 795.3088a37.248 37.248 0 0 1-9.6448-1.2608c-26.56-7.1168-43.1424-43.584-46.6944-102.6688-3.456-57.664 5.664-130.5472 25.6832-205.2608 20.0192-74.7072 48.5888-142.4 80.384-190.5984 32.6272-49.4016 65.216-72.6912 91.7824-65.568 26.5728 7.1168 43.136 43.5776 46.6944 102.6688 3.456 57.664-5.664 130.5472-25.6832 205.2608-20.0192 74.7072-48.5888 142.4-80.384 190.5984-28.7744 43.5712-57.5232 66.8288-82.1376 66.8288z m131.9296-558.5984c-21.6 0-48.6144 22.464-75.5264 63.2192-31.3728 47.5008-59.5392 114.3616-79.3536 188.2624-19.808 73.9008-28.8064 145.888-25.3952 202.7072 3.264 54.5792 18.1376 89.3632 40.7808 95.424 22.6368 6.0544 52.896-16.6208 82.9952-62.2528 31.3728-47.5008 59.5392-114.3616 79.3536-188.2624 19.808-73.9008 28.8192-145.888 25.408-202.7072-3.264-54.5792-18.1376-89.3632-40.7808-95.424a28.6464 28.6464 0 0 0-7.4816-0.9664z" fill="#101129" p-id="19245"></path><path d="M471.6608 798.6688c-11.904 0.0128-23.744-1.5424-35.2448-4.6208-50.8672-13.632-90.656-56-112.0576-119.2-21.184-62.6688-21.792-138.5152-1.6768-213.5744 20.1088-75.0656 58.5472-140.4544 108.2496-184.128 50.1376-44.064 105.7664-60.8256 156.6464-47.1936 50.88 13.632 90.6624 56 112.064 119.2 21.184 62.6688 21.7856 138.5216 1.6768 213.5808-20.1088 75.0592-58.56 140.448-108.2496 184.1152-38.7712 34.0736-80.8192 51.8208-121.408 51.8208zM552.3776 233.344c-38.656 0-78.8992 17.0752-116.1664 49.824-48.5248 42.6368-86.1056 106.624-105.8048 180.1792-19.6992 73.5488-19.168 147.7568 1.536 208.9984 20.5056 60.6208 58.3488 101.12 106.56 114.0032 100.1152 26.8288 214.5536-74.4 255.0848-225.664l3.872 1.0048-3.872-1.0048c40.5312-151.2576-8-296.1472-108.0896-322.9952a127.2768 127.2768 0 0 0-33.12-4.3456z" fill="#101129" p-id="19246"></path><path d="M716.992 686.8032c-74.56 0-160.2944-12.2048-247.4048-35.5392-110.432-29.5936-209.9968-73.5744-280.3008-123.84-71.4112-51.008-104.384-102.8096-92.8768-145.7728 7.1488-26.688 31.52-48.3008 70.464-62.4896 36.928-13.4528 87.0016-20.3392 144.7744-19.9104a4 4 0 1 1 0 8c-116.864-0.8896-194.3872 27.7312-207.4496 76.4672-5.2672 19.6928 0 41.728 15.7312 65.5232 15.5392 23.5328 40.4608 47.648 74.0672 71.6672 69.568 49.728 168.1984 93.2736 277.7216 122.624 109.5168 29.3504 216.704 40.9984 301.824 32.6656 41.12-4 74.7456-12.416 100-24.9984 25.4976-12.7488 41.088-29.1968 46.3744-48.8896 6.304-23.5264-2.3296-50.1312-25.664-79.0592-22.7648-28.2368-59.264-57.6192-105.5552-84.9984a4 4 0 1 1 4.0704-6.88c47.104 27.8272 84.352 57.856 107.7248 86.8416 24.9984 30.9952 34.1568 60 27.1552 86.144-11.52 43.008-65.9968 71.3152-153.3184 79.808-18.2272 1.7664-37.3312 2.6368-57.3312 2.6368z" fill="#101129" p-id="19247"></path><path d="M960 576q0 0.7872-0.0384 1.5744-0.0384 0.7808-0.1152 1.5616-0.0768 0.7808-0.192 1.5616-0.1152 0.7744-0.2688 1.5488-0.1536 0.768-0.3456 1.536-0.192 0.7552-0.416 1.5104-0.2304 0.7488-0.4928 1.4912-0.2688 0.736-0.5696 1.4656-0.3008 0.7232-0.64 1.4336-0.3328 0.704-0.704 1.408-0.3648 0.6848-0.768 1.3632-0.4096 0.672-0.8448 1.3248t-0.9024 1.28q-0.4672 0.64-0.9664 1.2416-0.4992 0.608-1.024 1.1904-0.5312 0.576-1.088 1.1392-0.5504 0.5568-1.1328 1.0816-0.5824 0.5248-1.1904 1.024t-1.2416 0.9664q-0.6272 0.4672-1.28 0.9088-0.6528 0.4352-1.3312 0.832-0.672 0.4096-1.3632 0.7808-0.6912 0.3712-1.408 0.704-0.704 0.3392-1.4336 0.64-0.7232 0.3008-1.4656 0.5632-0.736 0.2624-1.4912 0.4928-0.7488 0.2304-1.5104 0.416-0.768 0.192-1.536 0.3456t-1.5488 0.2688q-0.768 0.1152-1.5552 0.192-0.7808 0.0768-1.568 0.1152-0.7808 0.0384-1.568 0.0384t-1.5744-0.0384q-0.7808-0.0384-1.5616-0.1152-0.7808-0.0768-1.5616-0.192-0.7744-0.1152-1.5488-0.2688-0.768-0.1536-1.536-0.3456-0.7552-0.192-1.5104-0.416-0.7488-0.2304-1.4912-0.4928-0.736-0.2624-1.4656-0.5632-0.7232-0.3008-1.4336-0.64-0.704-0.3328-1.408-0.704-0.6848-0.3712-1.3632-0.7744-0.672-0.4032-1.3248-0.8384-0.6528-0.4416-1.28-0.9088-0.64-0.4672-1.2416-0.96-0.608-0.5056-1.1904-1.0304-0.576-0.5248-1.1392-1.088-0.5504-0.5504-1.0816-1.1328-0.5248-0.5824-1.024-1.1904t-0.9664-1.2352q-0.4672-0.6336-0.9088-1.2864-0.4352-0.6528-0.832-1.3248-0.4096-0.6784-0.7808-1.3696-0.3712-0.6912-0.704-1.4016-0.3392-0.7104-0.64-1.4336-0.3008-0.7296-0.5632-1.472-0.2624-0.736-0.4928-1.4848-0.224-0.7552-0.416-1.5168t-0.3456-1.536q-0.1536-0.768-0.2688-1.5424-0.1152-0.7808-0.192-1.5616t-0.1152-1.5616Q896 576.7872 896 576t0.0384-1.568q0.0384-0.7872 0.1152-1.568 0.0768-0.7808 0.192-1.5552 0.1152-0.7808 0.2688-1.5488 0.1536-0.768 0.3456-1.536 0.192-0.7616 0.416-1.5104 0.2304-0.7552 0.4928-1.4912 0.2624-0.7424 0.5632-1.472 0.3008-0.7232 0.64-1.4336 0.3328-0.704 0.704-1.4016 0.3712-0.6912 0.7744-1.3632 0.4032-0.6784 0.8384-1.3312 0.4416-0.6528 0.9088-1.28 0.4672-0.6336 0.96-1.2416 0.5056-0.608 1.0304-1.1904 0.5312-0.576 1.088-1.1328 0.5504-0.5568 1.1328-1.088 0.5824-0.5248 1.1904-1.024t1.2352-0.96q0.6336-0.4736 1.2864-0.9088 0.6528-0.4352 1.3248-0.8384 0.6784-0.4096 1.3696-0.7744 0.6912-0.3712 1.408-0.704 0.704-0.3392 1.4272-0.64 0.7296-0.3008 1.472-0.5696 0.736-0.256 1.4848-0.4928 0.7552-0.224 1.5168-0.416t1.536-0.3456q0.768-0.1536 1.5424-0.2688 0.7808-0.1152 1.5616-0.192t1.5616-0.1152Q927.2128 544 928 544t1.568 0.0384q0.7872 0.0384 1.568 0.1152 0.7808 0.0768 1.5552 0.192 0.7808 0.1152 1.5488 0.2688 0.768 0.1536 1.536 0.3456 0.7616 0.192 1.5104 0.416 0.7552 0.2304 1.4912 0.4928 0.7424 0.2688 1.472 0.5696 0.7232 0.3008 1.4336 0.64 0.704 0.3328 1.4016 0.704 0.6912 0.3648 1.3632 0.768 0.6784 0.4096 1.3312 0.8448t1.28 0.9024q0.6336 0.4672 1.2416 0.9664t1.1904 1.024q0.576 0.5312 1.1328 1.088 0.5568 0.5504 1.088 1.1328 0.5248 0.5824 1.024 1.1904t0.96 1.2416q0.4736 0.6272 0.9088 1.28 0.4352 0.6528 0.8384 1.3312 0.4096 0.672 0.7744 1.3632 0.3712 0.6912 0.704 1.408 0.3392 0.704 0.64 1.4336 0.3008 0.7232 0.5696 1.4656 0.256 0.736 0.4928 1.4912 0.224 0.7488 0.416 1.5104 0.192 0.768 0.3456 1.536t0.2688 1.5488q0.1152 0.768 0.192 1.5552 0.0768 0.7808 0.1152 1.568 0.0384 0.7808 0.0384 1.568z" fill="#81E6C1" p-id="19248"></path><path d="M928 612a36 36 0 1 1 0-72 36 36 0 0 1 0 72z m0-64a28 28 0 1 0 0 56 28 28 0 0 0 0-56z" fill="#101129" p-id="19249"></path><path d="M256 544q0 0.7872-0.0384 1.5744-0.0384 0.7808-0.1152 1.5616-0.0768 0.7808-0.192 1.5616-0.1152 0.7744-0.2688 1.5488-0.1536 0.768-0.3456 1.536-0.192 0.7552-0.416 1.5104-0.2304 0.7488-0.4928 1.4912-0.2688 0.736-0.5696 1.4656-0.3008 0.7232-0.64 1.4336-0.3328 0.704-0.704 1.408-0.3648 0.6848-0.768 1.3632-0.4096 0.672-0.8448 1.3248t-0.9024 1.28q-0.4672 0.64-0.9664 1.2416-0.4992 0.608-1.024 1.1904-0.5312 0.576-1.088 1.1392-0.5504 0.5568-1.1328 1.0816-0.5824 0.5248-1.1904 1.024t-1.2416 0.9664q-0.6272 0.4672-1.28 0.9088-0.6528 0.4352-1.3312 0.832-0.672 0.4096-1.3632 0.7808-0.6912 0.3712-1.408 0.704-0.704 0.3392-1.4336 0.64-0.7232 0.3008-1.4656 0.5632-0.736 0.2624-1.4912 0.4928-0.7488 0.2304-1.5104 0.416-0.768 0.192-1.536 0.3456t-1.5488 0.2688q-0.768 0.1152-1.5552 0.192-0.7808 0.0768-1.568 0.1152Q224.7872 576 224 576t-1.5744-0.0384q-0.7808-0.0384-1.5616-0.1152-0.7808-0.0768-1.5616-0.192-0.7744-0.1152-1.5488-0.2688-0.768-0.1536-1.536-0.3456-0.7552-0.192-1.5104-0.416-0.7488-0.2304-1.4912-0.4928-0.736-0.2624-1.4656-0.5632-0.7232-0.3008-1.4336-0.64-0.704-0.3328-1.408-0.704-0.6848-0.3712-1.3632-0.7744-0.672-0.4032-1.3248-0.8384-0.6528-0.4416-1.28-0.9088-0.64-0.4672-1.2416-0.96-0.608-0.5056-1.1904-1.0304-0.576-0.5248-1.1392-1.088-0.5504-0.5504-1.0816-1.1328-0.5248-0.5824-1.024-1.1904t-0.9664-1.2352q-0.4672-0.6336-0.9088-1.2864-0.4352-0.6528-0.832-1.3248-0.4096-0.6784-0.7808-1.3696-0.3712-0.6912-0.704-1.4016-0.3392-0.7104-0.64-1.4336-0.3008-0.7296-0.5632-1.472-0.2624-0.736-0.4928-1.4848-0.224-0.7552-0.416-1.5168t-0.3456-1.536q-0.1536-0.768-0.2688-1.5424-0.1152-0.7808-0.192-1.5616t-0.1152-1.5616Q192 544.7872 192 544t0.0384-1.568q0.0384-0.7872 0.1152-1.568 0.0768-0.7808 0.192-1.5552 0.1152-0.7808 0.2688-1.5488 0.1536-0.768 0.3456-1.536 0.192-0.7616 0.416-1.5104 0.2304-0.7552 0.4928-1.4912 0.2624-0.7424 0.5632-1.472 0.3008-0.7232 0.64-1.4336 0.3328-0.704 0.704-1.4016 0.3712-0.6912 0.7744-1.3632 0.4032-0.6784 0.8384-1.3312 0.4416-0.6528 0.9088-1.28 0.4672-0.6336 0.96-1.2416 0.5056-0.608 1.0304-1.1904 0.5312-0.576 1.088-1.1328 0.5504-0.5568 1.1328-1.088 0.5824-0.5248 1.1904-1.024t1.2352-0.96q0.6336-0.4736 1.2864-0.9088 0.6528-0.4352 1.3248-0.8384 0.6784-0.4096 1.3696-0.7744 0.6912-0.3712 1.408-0.704 0.704-0.3392 1.4272-0.64 0.7296-0.3008 1.472-0.5696 0.736-0.256 1.4848-0.4928 0.7552-0.224 1.5168-0.416t1.536-0.3456q0.768-0.1536 1.5424-0.2688 0.7808-0.1152 1.5616-0.192t1.5616-0.1152Q223.2128 512 224 512t1.568 0.0384q0.7872 0.0384 1.568 0.1152 0.7808 0.0768 1.5552 0.192 0.7808 0.1152 1.5488 0.2688 0.768 0.1536 1.536 0.3456 0.7616 0.192 1.5104 0.416 0.7552 0.2304 1.4912 0.4928 0.7424 0.2688 1.472 0.5696 0.7232 0.3008 1.4336 0.64 0.704 0.3328 1.4016 0.704 0.6912 0.3648 1.3632 0.768 0.6784 0.4096 1.3312 0.8448t1.28 0.9024q0.6336 0.4672 1.2416 0.9664t1.1904 1.024q0.576 0.5312 1.1328 1.088 0.5568 0.5504 1.088 1.1328 0.5248 0.5824 1.024 1.1904t0.96 1.2416q0.4736 0.6272 0.9088 1.28 0.4352 0.6528 0.8384 1.3312 0.4096 0.672 0.7744 1.3632 0.3712 0.6912 0.704 1.408 0.3392 0.704 0.64 1.4336 0.3008 0.7232 0.5696 1.4656 0.256 0.736 0.4928 1.4912 0.224 0.7488 0.416 1.5104 0.192 0.768 0.3456 1.536t0.2688 1.5488q0.1152 0.768 0.192 1.5552 0.0768 0.7808 0.1152 1.568 0.0384 0.7808 0.0384 1.568z" fill="#FFDC8A" p-id="19250"></path><path d="M224 580a36 36 0 1 1 0-72 36 36 0 0 1 0 72z m0-64a28 28 0 1 0 0 56 28 28 0 0 0 0-56zM736 740a4 4 0 1 1 0-8c73.7216 0 132.192-13.9968 173.792-41.6768a4 4 0 1 1 4.416 6.656c-42.9312 28.5504-102.8864 43.0208-178.208 43.0208zM938.208 676a4 4 0 0 1-2.88-6.784c16.064-16.64 20.8256-30.3552 20.8768-30.496a4 4 0 0 1 7.584 2.5408c-0.2048 0.6336-5.2736 15.4496-22.7008 33.5232a4 4 0 0 1-2.88 1.216z" fill="#101129" p-id="19251"></path></svg>