<?xml version="1.0" standalone="no"?><!DOCTYPE svg PUBLIC "-//W3C//DTD SVG 1.1//EN" "http://www.w3.org/Graphics/SVG/1.1/DTD/svg11.dtd"><svg t="1753154309268" class="icon" viewBox="0 0 1863 1024" version="1.1" xmlns="http://www.w3.org/2000/svg" p-id="30195" xmlns:xlink="http://www.w3.org/1999/xlink" width="363.8671875" height="200"><path d="M1494.982574 0.35211c-6.337984 2.112661-7.042205 5.868504-7.042205 37.088944 0 33.333102 1.408441 37.323684 12.206488 35.680504 5.399024-0.70422 5.399024-1.173701 6.103244-35.211023 0.46948-30.9857 0.23474-34.741543-3.521102-36.619464-2.347402-1.173701-5.868504-1.643181-7.746425-0.938961zM1545.921187 63.966692c-12.441228 12.675968-22.769795 23.943496-22.769795 25.351936 0 5.868504 6.572724 10.798047 12.206488 9.389607 7.276945-1.877921 46.47855-42.487968 46.47855-48.356472 0-4.929543-4.460063-9.624346-9.389606-9.624346-2.112661 0-14.084409 10.328567-26.525637 23.239275zM1537.940022 124.529651c-3.755842 1.408441-3.990583 10.563307-0.23474 14.31915 1.877921 1.877921 12.910708 2.816882 33.802582 2.816882 25.117196 0 31.924661-0.70422 34.741542-3.755843 4.460063-4.225323 4.460063-4.694803 1.408441-10.563307-2.347402-3.990583-5.164283-4.460063-34.741542-4.225322-17.605512 0-33.567842 0.70422-34.976283 1.40844zM502.735945 184.15365c-5.633764 2.816882-12.206488 8.685386-15.25811 13.380189l-5.399024 8.685386-0.70422 127.229163-0.704221 127.229163-88.966518 0.704221c-85.445416 0.70422-89.201258 0.938961-95.304502 5.633763-3.521102 2.582142-8.685386 7.746425-11.267528 11.267528-4.929543 6.337984-4.929543 7.511685-4.929543 262.674232 0 141.078832 0.938961 258.683649 1.877921 261.500531l1.877922 5.399023-140.139872 0.469481c-126.055462 0.70422-140.374612 1.173701-142.487273 4.460062-1.408441 2.112661-1.643181 5.633764-0.938961 7.746426 1.408441 3.521102 71.830487 3.755842 930.275229 3.286362 893.186284-0.70422 928.866788-0.938961 931.448929-4.929544 2.112661-3.521102 1.643181-4.929543-1.877921-7.746425-3.990583-2.816882-21.830834-3.286362-110.093132-3.286362-99.529825 0-105.398329-0.23474-103.520408-4.225323 1.173701-2.112661 2.112661-81.220093 2.112661-175.820375 0-169.717131 0-171.829792-4.929543-178.167776-11.737008-15.96233-12.206488-16.197071-72.534707-16.901291l-54.929196-0.704221-0.704221-212.909319-0.70422-212.909319-5.399024-8.685386c-3.051622-4.929543-9.389606-10.563307-15.49285-13.380189l-9.859086-4.929543h-971.589496l-9.859086 4.929543z m985.204424 15.02337c4.694803 2.347402 7.746425 6.572724 9.389606 12.441228 1.877921 5.868504 2.347402 71.830487 1.877921 214.08302l-0.70422 205.397635-15.72759 0.70422-15.962331 0.704221v-205.162894c0-185.209981-0.46948-205.397634-3.755842-206.806076-2.112661-0.70422-212.439839-1.408441-467.837126-1.408441-357.743994 0-464.785504 0.70422-466.898166 2.816882-2.112661 2.112661-2.816882 32.159401-2.816881 120.891179v118.074297h-28.403559l0.70422-125.116501c0.70422-133.332407 0.70422-131.689226 12.441229-137.55773 3.051622-1.408441 172.299273-2.347402 487.790039-2.347402 425.818639-0.23474 483.799456 0.23474 489.9027 3.286362z m-37.558425 234.505414v197.885949l-9.859086 1.408441c-10.563307 1.408441-19.013952 6.572724-26.290897 16.666551-4.460063 5.868504-4.929543 10.328567-5.633764 53.286015l-0.70422 46.71329h-722.764933v-130.515525c0-128.637604 0-130.750266-4.929543-139.435651-2.816882-4.929543-8.920126-11.032787-13.849669-13.849669-8.450646-4.694803-12.206488-4.929543-66.666204-4.929544h-57.746078v-225.350547h908.444394v198.12069z m-788.492175 50.469133l6.807464 6.807464v505.395551l-5.868504 5.633763-5.633763 5.868504h-349.528089l-6.103244-7.276945-6.103244-7.276944 0.46948-252.345665 0.704221-252.345665 6.572724-5.633764 6.572724-5.633764h345.302766l6.807465 6.807465z m964.782031 171.360312l6.807464 6.807464v332.626798l-5.633763 6.572724-5.399024 6.337984h-186.383682l-5.633764-6.103244-5.868503-6.337984v-165.726548c0-180.045698-0.46948-173.472973 12.675968-178.637257 2.582142-1.173701 44.835369-2.112661 93.661321-2.112662l88.966518-0.23474 6.807465 6.807465z m-218.543083 151.642139v41.079527h-722.999673v-82.159054h722.999673v41.079527z m-473.70563 76.29055c-1.643181 35.680503-12.206488 64.788282-28.403559 77.22951-7.746425 5.868504-9.859086 6.103244-42.018487 7.276945l-33.802582 1.173701-6.572724 7.511685c-4.694803 5.399024-7.276945 11.267527-8.450646 19.483433l-1.643181 11.737007h-133.097667l2.347401-6.103244c1.408441-3.286362 2.347402-34.506803 2.347402-71.595747v-65.492502l125.116502 0.46948 124.881761 0.70422-0.70422 17.605512z m120.186959 2.816882c2.816882 37.323684 11.971748 63.614582 27.464598 78.872691 13.380189 13.145449 21.361354 15.49285 55.633416 16.431811 34.272062 1.173701 33.802582 0.938961 36.854204 17.605512l1.643181 8.685385h-175.116154c-153.05058 0-175.116155-0.46948-175.116155-3.521102 0-1.877921 1.643181-7.746425 3.755843-12.910709l3.755842-9.389606h23.004535c44.131149 0 61.50192-7.511685 74.647369-32.394141 9.624346-17.840252 14.084409-35.915243 15.96233-63.145101l1.643181-21.830834h104.224629l1.643181 21.596094z m353.988151 45.77433c0.46948 37.323684 1.643181 69.483085 2.816882 71.595746 1.877921 3.990583-4.225323 4.225323-111.032093 4.225323h-112.910013v-7.042204c0-10.328567-5.399024-21.830834-12.910709-27.699339-5.868504-4.694803-9.389606-5.164283-34.976283-5.164283-35.445763 0-44.835369-3.521102-55.398676-20.422393-10.093827-15.96233-14.319149-31.22044-15.72759-58.919779l-1.408441-23.943495h340.842703l0.70422 67.370424z" fill="#0499AF" p-id="30196"></path><path d="M849.212411 376.875317c-5.633764 4.694803-105.398329 174.881414-105.398329 179.810957 0 9.154866 3.755842 9.859086 53.286015 9.859087h47.652251v26.525637c0 27.934078 1.408441 32.159401 10.798047 32.159401 8.450646 0 10.093827-4.929543 10.798047-31.924661l0.704221-25.586677 14.084409-0.70422c15.49285-0.70422 19.952913-3.286362 19.952913-10.798047 0-8.450646-4.694803-10.798047-20.422393-10.798047h-14.78863v-82.863274c0-61.26718-0.70422-83.567495-2.816882-85.680156-3.521102-3.521102-9.389606-3.521102-13.849669 0z m-5.164283 167.839209c-0.70422 0.46948-16.431811 0.46948-35.445763 0.23474l-34.272063-0.70422 34.741543-58.685038 34.506803-58.450299 0.70422 58.215558c0.23474 32.159401 0.23474 58.919779-0.23474 59.389259zM1234.421003 377.579537c-8.450646 10.328567-103.285668 173.942454-103.285667 178.402517 0 2.816882 1.408441 6.572724 3.051622 7.981165 2.112661 1.643181 20.187653 2.816882 49.999652 3.051622l46.713291 0.70422 0.70422 25.586677c0.70422 26.995118 2.347402 31.924661 10.798047 31.924661 9.389606 0 10.798047-4.225323 10.798047-32.159401v-26.525637h14.78863c15.72759 0 20.422393-2.347402 20.422394-10.563307s-4.694803-10.563307-20.422394-10.563307h-14.78863v-81.924314c0-71.361007-0.46948-82.628534-3.755842-85.680156-4.460063-4.694803-11.267527-4.694803-15.02337-0.23474z m-2.816882 109.623652l-0.70422 57.041857-34.506803 0.70422c-19.248693 0.23474-34.741543 0-34.741542-0.93896 0-3.286362 66.431463-113.614234 68.309384-113.614234 1.173701 0 1.877921 24.647716 1.643181 56.807117zM951.793858 403.635694c-3.286362 3.051622-3.755842 14.78863-3.755842 91.07918 0 64.788282 0.70422 88.027558 2.816882 90.140219 3.990583 3.990583 131.219746 3.990583 135.210328 0 2.112661-2.112661 2.816882-25.351937 2.816882-90.140219 0-76.29055-0.46948-88.027558-3.755842-91.07918-3.051622-3.286362-12.441228-3.755842-66.666204-3.755842-54.224975 0-63.614582 0.46948-66.666204 3.755842z m115.492156 90.609699l0.46948 72.299968h-98.590864v-71.126267c0-39.201606 0.70422-72.065227 1.643181-73.004188 0.938961-0.70422 22.769795-1.173701 48.591212-0.93896l47.18277 0.70422 0.704221 72.065227zM321.281806 507.860322c-4.694803 4.694803-4.694803 7.746425-4.694803 216.899902v212.439839l6.337984 4.694803c6.103244 4.929543 6.807464 4.929543 161.735966 4.460063 145.773635-0.70422 155.867462-0.938961 159.858044-4.929543 3.990583-3.990583 4.225323-16.197071 4.929544-215.021981 0.46948-210.561918 0.46948-210.796658-4.460063-216.899902l-4.694803-6.337984h-157.275903c-153.989541 0-157.041163 0-161.735966 4.694803z m139.200911 96.008723l22.769795 22.535055 23.004535-22.535055c12.441228-12.441228 24.647716-23.239275 26.995118-23.943496 5.164283-1.877921 15.49285 2.112661 19.483432 7.276945 1.877921 2.112661 3.286362 7.511685 3.286362 11.971748 0 6.807464-2.816882 10.798047-22.769794 30.9857l-22.769795 23.239275 22.769795 23.239276c19.483433 19.718173 22.769795 24.178236 22.769794 30.75096 0 11.032787-7.746425 18.779212-18.544472 18.779212-7.511685 0-10.798047-2.582142-31.22044-22.769795l-23.004535-22.769795-23.004535 22.769795c-20.891874 20.422393-24.178236 22.769795-31.924661 22.769795-9.154866 0-17.605512-6.337984-18.074992-13.614929-0.70422-10.563307 2.112661-14.78863 23.239275-36.384724l22.769795-22.769795-22.769795-23.004535c-23.004535-23.239275-25.351937-26.995118-22.300314-38.732125 2.112661-7.511685 13.145449-13.614929 21.361354-11.502268 2.816882 0.46948 15.25811 11.267527 27.934078 23.708756z m170.656092 261.500531v54.929196l-6.103244 5.633764-6.103244 5.633763-129.341825 0.704221c-71.361007 0.46948-133.097667 0-137.32299-0.704221-4.225323-0.70422-9.859086-3.521102-12.441228-6.103244-4.225323-4.225323-4.460063-8.215905-4.460063-59.623999v-55.163936h295.772594v54.694456zM474.332386 971.706866c-9.154866 6.337984-5.868504 22.065574 5.633764 25.351936 6.572724 1.877921 17.370771-6.572724 17.370771-13.614929 0-5.868504-8.920126-15.49285-14.319149-15.49285-1.877921 0-5.868504 1.643181-8.685386 3.755843zM1448.504023 667.483627c-2.582142 2.582142-5.633764 8.215905-6.337984 12.206488-0.70422 4.225323-1.173701 68.309385-0.70422 142.252533l0.70422 134.740848 5.633764 4.460063c5.164283 4.225323 10.093827 4.460063 81.454833 4.460063 75.116849 0 75.82107 0 80.750613-5.164284 4.694803-4.929543 4.694803-7.511685 4.694803-146.477856v-141.548312l-6.103244-4.694803c-6.103244-4.694803-8.920126-4.929543-80.515873-4.929543-71.126267 0-74.647369 0.23474-79.576912 4.694803z m148.355777 13.145448c3.051622 3.051622 3.755842 10.798047 3.755843 47.886992 0 43.192188-0.23474 44.365889-5.164284 47.886991-7.981165 5.633764-128.872344 5.633764-134.271367 0-3.051622-3.051622-3.755842-10.798047-3.755843-49.060692 0-40.844787 0.46948-45.77433 4.225323-47.886992 2.347402-1.408441 28.873039-2.582142 67.839904-2.582141 54.929196 0 64.318802 0.46948 67.370424 3.755842z m-82.159053 167.60447l14.553889 14.084409 11.737008-11.971748c15.49285-15.96233 18.544472-17.370771 25.821417-12.675968 8.920126 5.868504 7.042205 12.441228-7.746425 27.464598l-13.380189 13.614929 13.380189 13.614929c7.981165 7.981165 13.380189 15.49285 13.380188 18.544472 0 4.694803-7.746425 12.441228-12.441228 12.441228-1.173701 0-8.685386-6.337984-16.666551-14.084409l-14.553889-14.084409-11.737008 11.971747c-15.49285 15.96233-18.544472 17.370771-25.821417 12.675969-8.920126-5.868504-7.042205-12.441228 7.746425-27.464598l13.380189-13.614929-13.380189-13.614929c-7.981165-7.981165-13.380189-15.49285-13.380189-18.544472 0-4.694803 7.746425-12.441228 12.441229-12.441228 1.173701 0 8.685386 6.337984 16.666551 14.084409z" fill="#0499AF" p-id="30197"></path><path d="M1545.216966 696.826146c-2.347402 6.103244 1.643181 8.215905 16.666551 8.215905 14.55389 0 18.309732-2.112661 15.962331-8.920126-1.643181-4.225323-30.9857-3.990583-32.628882 0.704221zM1494.747833 725.229704c-2.582142 3.286362-2.582142 4.225323 1.408441 7.042205 3.286362 2.582142 13.614929 3.286362 42.018488 3.286362 20.891874 0 39.201606-0.938961 40.844787-2.112661 1.877921-1.173701 2.816882-3.990583 2.347401-6.337984-0.70422-4.225323-3.755842-4.460063-42.018487-5.164284-35.915243-0.46948-41.783747 0-44.60063 3.286362zM1519.160809 755.745924c-2.582142 6.807464 3.051622 8.215905 32.394142 7.511685 28.168818-0.70422 29.107779-0.938961 29.811999-6.103244 0.70422-5.164283 0.70422-5.164283-30.04674-5.164283-25.586677 0-30.9857 0.70422-32.159401 3.755842zM1521.273471 980.157511c-1.643181 1.643181-2.816882 5.633764-2.816882 8.920126 0 7.276945 3.990583 11.737008 10.563307 11.737008s10.563307-4.460063 10.563307-11.737008-3.990583-11.737008-10.563307-11.737008c-2.816882 0-6.103244 1.173701-7.746425 2.816882zM289.826625 410.677899c-4.694803 4.460063-5.164283 28.638299-0.70422 34.741542 1.643181 2.347402 5.164283 3.990583 7.746425 3.286362 3.755842-0.70422 4.460063-3.051622 5.164283-18.074991 0.938961-21.361354-3.521102-28.638299-12.206488-19.952913zM236.30587 425.936009c-6.572724 3.755842-4.929543 8.450646 6.807465 21.126613 11.502268 12.206488 17.840252 14.084409 22.769795 6.337985 2.112661-3.521102 0.23474-6.337984-10.328567-17.136032-13.849669-14.084409-13.380189-13.849669-19.248693-10.328566zM218.700359 481.099945c-0.70422 2.112661-0.46948 5.633764 0.93896 7.746425 3.521102 5.633764 35.445763 5.399024 38.966866-0.23474 1.877921-2.816882 1.643181-4.929543-0.46948-7.511685-4.694803-5.399024-37.323684-5.399024-39.436346 0z" fill="#0499AF" p-id="30198"></path></svg>