<?xml version="1.0" standalone="no"?><!DOCTYPE svg PUBLIC "-//W3C//DTD SVG 1.1//EN" "http://www.w3.org/Graphics/SVG/1.1/DTD/svg11.dtd"><svg t="1753154254303" class="icon" viewBox="0 0 1496 1024" version="1.1" xmlns="http://www.w3.org/2000/svg" p-id="19697" xmlns:xlink="http://www.w3.org/1999/xlink" width="292.1875" height="200"><path d="M995.712859 615.258213c1.169124 4.187095 23.871877-15.68801 51.196748 0.924424s63.649276 23.953444 78.24973 19.711971 41.327168 15.171421 78.276918 5.981564 37.874174-26.318881 53.997208-33.632702c10.875571-4.921196 30.777865-2.011981 70.256186-25.013812 63.839599-37.140073 79.881065-87.602721 102.230362-94.399952a54.94882 54.94882 0 0 1 47.906889 7.721655s11.935939-7.8576-37.711041-28.684317-46.629009-36.134083-61.501351-41.979703-23.518421 15.089854-62.534531-8.156677-27.460816 10.875571-82.763092-8.945157-131.975048 44.154816-152.257987 68.951117c-44.263572 53.779696-30.940998 75.585215-63.81241 112.9428-16.558056 18.869115-24.470034 13.947919-21.533629 24.578789z" fill="#EDF2F9" p-id="19698"></path><path d="M957.050205 584.290026a1152.266696 1152.266696 0 0 1 105.166767-53.94283c17.536857-27.35206 44.997673-73.899502 82.926225-96.629444-26.753903 20.092617-48.940067 56.525778-64.927155 88.771845 30.370031-12.91474 59.163104-23.491232 86.161707-32.082934 15.606444-27.379249 44.725784-63.29582 73.43729-77.134983-22.702753 14.627642-44.236383 45.704585-57.096745 72.077843 140.621127-41.843758 228.386981-30.12533 228.38698-30.12533-63.214254 1.196313-129.935879 15.171421-192.062575 33.958969A597.558222 597.558222 0 0 0 1291.473999 523.631531 635.133318 635.133318 0 0 1 1201.233952 494.838458c-28.657128 9.217046-56.117944 19.276949-81.566778 29.445608a257.914155 257.914155 0 0 0 40.783389 31.376021c-0.815668-0.462212 4.377417 3.208293 24.877868 12.343772-1.169124-0.435023-45.758963-12.343773-79.119776-38.309197a1358.739402 1358.739402 0 0 0-143.557531 68.461716z" fill="#C4E2FE" p-id="19699"></path><path d="M1126.84505 478.226025c1.631336 2.936404 15.524877-16.313356 39.478321-8.86359s53.127162 6.199075 63.594899 0.271889 34.366803 3.752072 61.147895-10.14147 24.470034-26.944226 35.345604-35.345604c7.449766-5.764052 23.273721-7.259443 49.483846-31.974177 42.387536-39.967722 45.677396-81.050189 61.637296-90.348802a43.828549 43.828549 0 0 1 38.064497-3.099538s7.776033-8.156678-34.067725-14.600453-42.061269-18.651603-54.513797-20.391695-15.361743 15.796766-49.402279 5.437785-19.032248 13.322574-65.253423 8.673268-93.44834 57.966791-104.677367 80.479222c-24.470034 48.940067-10.250225 62.80642-28.820261 97.146033-9.217046 17.618424-16.177411 15.252988-12.017506 22.757132z" fill="#8DBFFC" p-id="19700"></path><path d="M1234.377254 329.991998c-16.884323 20.337317-27.379249 52.257116-33.795836 79.77231 20.881095-15.552066 40.973712-28.983395 60.033149-40.593067C1267.547744 345.299364 1283.317321 312.672652 1302.947726 296.631186c-14.736398 15.388932-25.666346 43.094448-30.777865 65.552501C1372.034787 303.945007 1441.013093 296.359297 1441.013093 296.359297c-48.015644 12.778795-96.46631 35.970949-140.512371 61.936374a466.262897 466.262897 0 0 0 61.446974 12.588473 500.765644 500.765644 0 0 1-74.062635-5.002763c-20.228561 12.370961-39.369565 25.204135-57.096746 37.683852a199.267641 199.267641 0 0 0 36.73224 16.313356c-0.706912-0.190322 3.915205 1.604147 21.180173 4.703684-0.978801 0-37.085695-0.788479-67.156648-14.274186A1091.880091 1091.880091 0 0 0 1124.180535 489.400673l-6.715664-9.488935a909.741474 909.741474 0 0 1 70.691208-60.740061c8.482945-24.089389 21.152985-64.736833 46.221175-89.179679z" fill="#B8DDFE" p-id="19701"></path><path d="M1196.312757 203.916947v682.44205a16.313356 16.313356 0 0 1-16.177411 16.313356H16.313356a16.313356 16.313356 0 0 1-16.313356-16.313356V203.916947z" fill="#E1EBF9" p-id="19702"></path><path d="M1196.312757 139.316058V212.073625H0V139.316058A27.841461 27.841461 0 0 1 27.895838 111.474598h1140.52108A27.841461 27.841461 0 0 1 1196.312757 139.316058z" fill="#192684" p-id="19703"></path><path d="M82.926225 159.055219m-17.672802 0a17.672802 17.672802 0 1 0 35.345604 0 17.672802 17.672802 0 1 0-35.345604 0Z" fill="#F7A959" p-id="19704"></path><path d="M148.179648 159.055219m-17.672802 0a17.672802 17.672802 0 1 0 35.345604 0 17.672802 17.672802 0 1 0-35.345604 0Z" fill="#55CEB3" p-id="19705"></path><path d="M411.912233 690.598728h-309.953759A36.70505 36.70505 0 0 1 65.253423 653.893677v-309.953759A36.70505 36.70505 0 0 1 101.958474 307.234867h309.953759a36.70505 36.70505 0 0 1 36.705051 36.705051v309.953759a36.732239 36.732239 0 0 1-36.705051 36.705051z" fill="#4278FF" opacity=".3" p-id="19706"></path><path d="M730.457694 418.111308h-168.89761a16.938701 16.938701 0 0 1-16.911513-16.96589v-27.732704a16.938701 16.938701 0 0 1 16.911513-16.96589h168.89761a16.96589 16.96589 0 0 1 16.911512 16.96589v27.732704a16.938701 16.938701 0 0 1-16.911512 16.96589zM1078.584706 418.111308H790.518032a16.911512 16.911512 0 0 1-16.884323-16.96589v-27.732704a16.938701 16.938701 0 0 1 16.884323-16.96589h288.202619a16.938701 16.938701 0 0 1 16.884323 16.96589v27.732704a16.911512 16.911512 0 0 1-17.020268 16.96589z" fill="#4278FF" opacity=".5" p-id="19707"></path><path d="M1085.735394 474.582708H554.382207a9.760825 9.760825 0 0 1-9.733636-9.788013 9.733636 9.733636 0 0 1 9.733636-9.760825h531.353187a9.733636 9.733636 0 0 1 9.733635 9.760825 9.760825 9.760825 0 0 1-9.733635 9.788013zM1085.735394 529.966551H554.382207a9.760825 9.760825 0 0 1-9.733636-9.760824 9.760825 9.760825 0 0 1 9.733636-9.788014h531.353187a9.760825 9.760825 0 0 1 9.733635 9.788014 9.733636 9.733636 0 0 1-9.733635 9.760824zM1085.735394 585.377583H554.382207a9.760825 9.760825 0 0 1-9.733636-9.760825 9.760825 9.760825 0 0 1 9.733636-9.788013h531.353187a9.760825 9.760825 0 0 1 9.733635 9.788013 9.733636 9.733636 0 0 1-9.733635 9.760825zM1085.735394 640.788615H554.382207a9.760825 9.760825 0 0 1-9.733636-9.760825 9.760825 9.760825 0 0 1 9.733636-9.788013h531.353187a9.760825 9.760825 0 0 1 9.733635 9.788013 9.733636 9.733636 0 0 1-9.733635 9.760825z" fill="#BDD5F4" p-id="19708"></path><path d="M727.548479 976.082454h-389.073536a46.058041 46.058041 0 0 1-46.08523-46.221175V540.842122A46.221175 46.221175 0 0 1 338.474943 494.838458h389.073536a46.221175 46.221175 0 0 1 46.221174 46.085231V929.861279a46.058041 46.058041 0 0 1-46.221174 46.221175z" fill="#4278FF" p-id="19709"></path><path d="M528.579916 785.75997v-10.63087a32.110122 32.110122 0 0 1 4.948385-19.032249 111.17552 111.17552 0 0 1 19.331326-18.434092q17.944691-14.355753 25.557591-27.324871a56.009188 56.009188 0 0 0 7.612899-28.793073 46.003663 46.003663 0 0 0-16.313356-36.677861q-16.313356-14.002297-43.80136-14.002297a97.363545 97.363545 0 0 0-51.359882 14.355753v27.84146a66.150658 66.150658 0 0 1 47.471866-19.956672q17.047457 0 26.998604 8.727646a28.385239 28.385239 0 0 1 9.951147 22.26773 39.804588 39.804588 0 0 1-6.416587 22.458054 88.8806 88.8806 0 0 1-21.370496 20.962662q-15.252988 11.446538-21.180174 21.751141a48.776934 48.776934 0 0 0-5.927186 24.660356V785.75997z m-13.404141 65.253423a18.787548 18.787548 0 0 0 13.594463-5.437785 19.032248 19.032248 0 0 0 0-27.052982 18.651603 18.651603 0 0 0-13.594463-5.437785 18.379714 18.379714 0 0 0-13.295385 5.437785 18.162203 18.162203 0 0 0-5.573729 13.594463 17.999069 17.999069 0 0 0 5.655296 13.594463 18.48847 18.48847 0 0 0 13.213818 5.301841z" fill="#FFFFFF" p-id="19710"></path><path d="M1166.404938 114.19349m-114.193491 0a114.19349 114.19349 0 1 0 228.386981 0 114.19349 114.19349 0 1 0-228.386981 0Z" fill="#4278FF" opacity=".3" p-id="19711"></path><path d="M1166.404938 114.19349m-89.723457 0a89.723457 89.723457 0 1 0 179.446914 0 89.723457 89.723457 0 1 0-179.446914 0Z" fill="#4278FF" opacity=".5" p-id="19712"></path><path d="M1167.764384 112.834044m-63.893977 0a63.893977 63.893977 0 1 0 127.787954 0 63.893977 63.893977 0 1 0-127.787954 0Z" fill="#4278FF" p-id="19713"></path><path d="M1167.220606 130.234957v-3.53456a10.875571 10.875571 0 0 1 1.576957-6.33502 35.889383 35.889383 0 0 1 6.117509-6.171887 33.632702 33.632702 0 0 0 8.156678-9.053912 19.032248 19.032248 0 0 0 2.419814-9.543313 15.497688 15.497688 0 0 0-5.165896-12.15345A20.01105 20.01105 0 0 0 1166.404938 78.847886a29.907819 29.907819 0 0 0-16.313356 4.758062v9.244235a20.50045 20.50045 0 0 1 15.035476-6.57972 12.15345 12.15345 0 0 1 8.564512 2.909215 9.570502 9.570502 0 0 1 3.153916 7.368199 13.594463 13.594463 0 0 1-2.03917 7.449766 29.499985 29.499985 0 0 1-6.770043 6.960365 25.06819 25.06819 0 0 0-6.715664 7.205066 16.775568 16.775568 0 0 0-1.876036 8.156678v3.915205z m-4.81244 22.02303a5.084329 5.084329 0 0 0 3.77926-1.576957 5.655297 5.655297 0 0 0 0-7.830411 5.111518 5.111518 0 0 0-3.77926-1.604147 5.002762 5.002762 0 0 0-3.697694 1.576958 5.764052 5.764052 0 0 0 0 7.884788 5.05714 5.05714 0 0 0 3.697694 1.549769z" fill="#FFFFFF" p-id="19714"></path><path d="M1249.303974 973.363561a31.185698 5.193085 0 1 0 62.371397 0 31.185698 5.193085 0 1 0-62.371397 0Z" fill="#5C8BEA" p-id="19715"></path><path d="M1279.728383 693.127298s29.11934-52.909651 4.404606-57.314257c0 0-17.129024-4.350228-4.404606 57.314257z" fill="#8DBFFC" p-id="19716"></path><path d="M1276.411334 718.603322s2.718893-52.583383-17.020268-44.236383c0-0.081567-14.138242 4.81244 17.020268 44.236383z" fill="#8DBFFC" p-id="19717"></path><path d="M1277.444513 753.432336s-13.105062-63.758032-34.040536-45.650207c0.027189 0-15.280177 11.582483 34.040536 45.650207z" fill="#8DBFFC" p-id="19718"></path><path d="M1276.737601 788.968263s-20.446073-67.156648-41.245601-44.861728c0 0-15.361743 14.464509 41.245601 44.861728z" fill="#8DBFFC" p-id="19719"></path><path d="M1278.151425 728.336957s11.229027-51.060804 27.84146-36.215649c0 0 12.15345 9.543313-27.84146 36.215649z" fill="#8DBFFC" p-id="19720"></path><path d="M1275.160643 770.588549s20.962662-60.930384 39.396754-39.50551c0.108756 0 13.784786 13.893541-39.396754 39.50551z" fill="#8DBFFC" p-id="19721"></path><path d="M1278.885526 810.610648s18.298147-67.972316 39.804588-46.547441c-0.027189-0.054378 15.796766 13.839163-39.804588 46.547441z" fill="#8DBFFC" p-id="19722"></path><path d="M1279.891516 811.671017a2.039169 2.039169 0 0 1-0.543778 0.407833q0.788479 9.815202 1.903224 19.847917v0.353456l-2.718892-0.27189c-1.52258-13.15944-2.52857-26.210125-3.072349-38.798597-3.398616-12.071883-16.829945-24.116578-16.96589-24.252523a1.76728 1.76728 0 0 1-0.2447-2.175114 1.332257 1.332257 0 0 1 0.897234-0.598156 1.359446 1.359446 0 0 1 1.005991 0.326267 77.406873 77.406873 0 0 1 15.035476 18.841926q-0.190322-7.259443-0.2447-14.274186a2.011981 2.011981 0 0 1 0-0.570968q0-8.890779 0.135944-17.264968a270.910462 270.910462 0 0 0-15.552066-23.953444 1.76728 1.76728 0 0 1 0.190323-2.202303 1.223502 1.223502 0 0 1 1.00599-0.326267 1.27788 1.27788 0 0 1 0.897235 0.543778c0.435023 0.598156 8.890779 12.479717 13.594463 20.418884 0.190322-6.742854 0.489401-13.186629 0.842857-19.276949a125.85754 125.85754 0 0 0-9.842392-36.70505 1.631336 1.631336 0 0 1 0.489401-2.093548 1.169124 1.169124 0 0 1 1.033179-0.163133 1.52258 1.52258 0 0 1 0.815668 0.734101 112.915611 112.915611 0 0 1 8.347 26.101369c2.039169-27.188926 4.948385-44.535461 5.002763-44.916106a1.576958 1.576958 0 0 1 0.570967-1.00599 1.223502 1.223502 0 0 1 1.00599-0.217512 1.549769 1.549769 0 0 1 1.060369 1.794469q-3.915205 25.82948-5.437786 51.958038l12.42534-15.470499a1.223502 1.223502 0 0 1 1.903224 0 1.76728 1.76728 0 0 1 0 2.202303l-14.709209 18.298148c-0.652534 11.174649-1.087557 23.599988-1.114746 36.813806a135.346475 135.346475 0 0 1 17.101835-18.216581 1.196313 1.196313 0 0 1 1.00599-0.326267 1.332257 1.332257 0 0 1 0.897235 0.598157 1.740091 1.740091 0 0 1-0.2447 2.175114c-0.163134 0-15.416121 13.594463-18.76036 21.207362 0 11.854372 0.462212 24.279711 1.359447 37.031318 10.549303-13.594463 18.814737-23.30091 18.896303-23.382477a1.196313 1.196313 0 0 1 0.951613-0.462212 1.169124 1.169124 0 0 1 0.951612 0.435023 1.712902 1.712902 0 0 1 0 2.175114c0-0.027189-8.809212 10.38617-19.875105 24.660357z" fill="#3478F6" p-id="19723"></path><path d="M1225.187396 730.947094s9.10829-52.964028-12.316583-47.553432c0 0-15.144232 2.691704 12.316583 47.553432z" fill="#C6DDFF" p-id="19724"></path><path d="M1229.510436 752.58948s-12.343773-43.176015-26.155747-29.336852c0-0.027189-10.168658 8.972346 26.155747 29.336852z" fill="#C6DDFF" p-id="19725"></path><path d="M1240.059739 780.131862s-28.412428-46.384308-40.484311-24.279711c0 0-9.298613 14.817965 40.484311 24.279711z" fill="#C6DDFF" p-id="19726"></path><path d="M1249.331163 808.870557s-35.345604-46.438686-46.221175-21.01704c0.054378 0-8.482945 17.183401 46.221175 21.01704z" fill="#C6DDFF" p-id="19727"></path><path d="M1233.643153 759.740167s-4.975574-44.997673 12.724417-39.097676c0 0 12.479717 3.235482-12.724417 39.097676z" fill="#C6DDFF" p-id="19728"></path><path d="M1243.023332 794.677938s0.217511-56.444211 21.234552-45.949286c0.027189 0 15.035476 6.280642-21.234552 45.949286z" fill="#C6DDFF" p-id="19729"></path><path d="M1257.080007 825.482991s-3.915205-61.147895 19.603216-51.65896c0-0.081567 16.748379 5.274652-19.603216 51.65896z" fill="#C6DDFF" p-id="19730"></path><path d="M1214.420582 731.762762a1.169124 1.169124 0 0 1 0.924423-0.380645 0.951612 0.951612 0 0 1 0.815668 0.326267 87.901799 87.901799 0 0 1 14.138242 17.781558c-6.253453-21.887086-9.053912-36.569106-9.13548-36.895373a1.441013 1.441013 0 0 1 0.163134-0.951612 1.087557 1.087557 0 0 1 0.734101-0.51659 1.27788 1.27788 0 0 1 1.359446 1.087557q4.431795 21.588007 10.875571 42.577859l5.274651-16.177411a1.196313 1.196313 0 0 1 0.598157-0.706912 1.087557 1.087557 0 0 1 0.870046 0 1.441013 1.441013 0 0 1 0.679723 1.712902l-6.226264 19.032248c2.718893 8.999535 6.035942 18.869115 9.842391 29.255285a122.159846 122.159846 0 0 1 8.156678-19.820727 1.169124 1.169124 0 0 1 0.734101-0.570968 0.978801 0.978801 0 0 1 0.842856 0.190323 1.413824 1.413824 0 0 1 0.435023 1.76728c0 0.163134-8.156678 15.796766-8.537323 22.729942 3.480183 9.271424 7.422577 18.896304 11.799994 28.62994 4.377417-14.029486 8.020733-24.470034 8.156678-24.470034a1.27788 1.27788 0 0 1 0.625346-0.679723 0.978801 0.978801 0 0 1 0.870045 0 1.441013 1.441013 0 0 1 0.652535 1.712902s-3.942394 11.120271-8.482945 25.911047a1.00599 1.00599 0 0 1-0.299079 0.489401c1.196313 2.718893 2.419814 5.193085 3.670505 7.776033H1261.511802c-3.480183-7.205065-6.715665-14.43732-9.706447-21.53363-6.199075-8.374189-20.228561-13.594463-20.364505-13.594463a1.413824 1.413824 0 0 1-0.842857-1.631336 1.223502 1.223502 0 0 1 0.543778-0.76129 0.897235 0.897235 0 0 1 0.870046 0 61.909185 61.909185 0 0 1 17.292157 9.923958c-1.52258-3.752072-2.963593-7.449766-4.350228-11.12027a1.332257 1.332257 0 0 1-0.163134-0.462212c-1.740091-4.622117-3.398616-9.162668-4.921195-13.594463a219.931225 219.931225 0 0 0-19.168193-13.784786 1.441013 1.441013 0 0 1-0.51659-1.76728 1.169124 1.169124 0 0 1 0.706912-0.598157 1.00599 1.00599 0 0 1 0.842857 0c0.51659 0.326267 10.63087 6.933176 16.639623 11.636861q-2.718893-8.156678-4.948385-15.416121a100.381516 100.381516 0 0 0-18.406903-25.639158 1.441013 1.441013 0 0 1-0.190322-1.821658z" fill="#3478F6" p-id="19731"></path><path d="M1322.061541 762.431871S1315.944032 725.944332 1330.68043 729.587648c0 0 10.467737 1.794469-8.618889 32.844223z" fill="#EDF2F9" p-id="19732"></path><path d="M1319.016381 777.38578s8.61889-29.907819 18.162203-20.201372c0 0 7.014743 6.226264-18.162203 20.201372z" fill="#EDF2F9" p-id="19733"></path><path d="M1311.675371 796.418029s19.73916-32.001366 28.031783-16.694001c0 0 6.389398 10.277414-28.031783 16.694001z" fill="#EDF2F9" p-id="19734"></path><path d="M1305.204407 816.265945s24.470034-32.028555 31.946988-14.410131c0-0.027189 5.981564 11.90875-31.946988 14.410131z" fill="#EDF2F9" p-id="19735"></path><path d="M1316.134355 782.334165s3.561749-31.104132-8.700456-27.188926c0 0.108756-8.700456 2.311059 8.700456 27.188926z" fill="#EDF2F9" p-id="19736"></path><path d="M1309.609013 806.450743s0-39.016109-14.600454-31.811044c0 0-10.413359 4.29585 14.600454 31.811044z" fill="#EDF2F9" p-id="19737"></path><path d="M1299.79381 827.712483s2.854837-42.251591-13.431329-35.835005c0 0-11.609672 3.670505 13.431329 35.835005z" fill="#EDF2F9" p-id="19738"></path><path d="M1309.744957 806.477932a0.76129 0.76129 0 0 1 0 0.326267c-0.924423 2.582948-1.876036 5.193085-2.909215 7.830411a41.136845 41.136845 0 0 1 12.15345-6.634099 0.734101 0.734101 0 0 1 0.815668 0.217512 0.951612 0.951612 0 0 1 0.217511 0.897234 0.815668 0.815668 0 0 1-0.598156 0.652535s-10.005525 3.344238-14.246997 9.162668c-2.093547 5.193085-4.377417 10.467737-6.824421 15.715199l-1.740091-0.271889c0.951612-1.984792 1.876036-3.969583 2.718892-5.981564a1.114746 1.114746 0 0 1-0.217511-0.353456c-3.480183-10.685248-6.443776-18.678792-6.470964-18.760359a1.00599 1.00599 0 0 1 0-0.924423 0.706912 0.706912 0 0 1 0.734101-0.353457 0.788479 0.788479 0 0 1 0.652534 0.543779s2.718893 7.558522 6.144697 17.72718c2.963593-6.82442 5.600919-13.594463 7.911978-20.146994-0.407834-4.975574-6.389398-16.313356-6.470965-16.503679a1.00599 1.00599 0 0 1 0.299078-1.223501 0.76129 0.76129 0 0 1 1.114746 0.299078 91.354792 91.354792 0 0 1 6.117509 14.410131c2.555759-7.34101 4.703684-14.328564 6.498153-20.690773l-4.730873-13.839164a0.951612 0.951612 0 0 1 0.462212-1.169123 0.788479 0.788479 0 0 1 1.033179 0.4894l4.023961 11.718427c2.718893-9.896769 5.111518-19.983861 6.987554-30.152519a0.815668 0.815668 0 0 1 0.951613-0.734101 0.924423 0.924423 0 0 1 0.652534 1.060368c0 0.2447-1.794469 10.658059-5.872808 26.155747a57.803657 57.803657 0 0 1 9.760824-12.343772 0.652534 0.652534 0 0 1 0.788479-0.135945 0.842857 0.842857 0 0 1 0.51659 0.706912 1.00599 1.00599 0 0 1-0.27189 0.870046 65.253423 65.253423 0 0 0-12.670039 17.835936c-0.978801 3.452994-2.066358 7.09631-3.262671 10.87557 4.187095-3.208293 11.283404-7.640088 11.63686-7.884789a0.734101 0.734101 0 0 1 0.815668 0 0.978801 0.978801 0 0 1 0.407834 0.815668 1.060368 1.060368 0 0 1-0.435023 0.788479 144.101309 144.101309 0 0 0-13.404141 9.325802c-1.033179 3.208293-2.120736 6.416587-3.28986 9.679258z" fill="#3478F6" p-id="19739"></path><path d="M1316.134355 851.013393l-10.875571 113.921601a8.673267 8.673267 0 0 1-8.156677 8.319811h-33.333624a8.700456 8.700456 0 0 1-8.156678-8.401378l-10.114281-115.009158a10.005525 10.005525 0 0 1 2.147926-7.232254 7.721655 7.721655 0 0 1 6.199075-2.990782l54.377852 1.087557a7.911978 7.911978 0 0 1 6.035942 3.153915 10.195847 10.195847 0 0 1 2.011981 7.150688z" fill="#013BFF" p-id="19740"></path><path d="M1317.684124 829.56133h-73.410101a2.311059 2.311059 0 0 0-2.147925 2.419814v15.334555a2.311059 2.311059 0 0 0 2.147925 2.419814h73.410101a2.28387 2.28387 0 0 0 2.147925-2.419814V831.981144a2.28387 2.28387 0 0 0-2.147925-2.419814z" fill="#007AFF" p-id="19741"></path><path d="M1090.955667 772.600529h-181.893916a7.993544 7.993544 0 0 0-7.449766 8.428568v227.109101a7.993544 7.993544 0 0 0 7.449766 8.428567h181.893916a7.09631 7.09631 0 0 0 5.274652-2.474192 9.053912 9.053912 0 0 0 2.175114-5.954375v-227.109101a7.993544 7.993544 0 0 0-7.449766-8.428568z" fill="#946E6B" p-id="19742"></path><path d="M1117.192981 957.050205s-6.933176 26.34607-23.491232 30.206898-12.289395-131.540025-32.028555-154.97688-104.622988-21.560819-107.069992-59.679694h117.782429c15.9599 0 29.907819 11.772805 34.747448 29.010585 11.093082 40.756201 26.917037 114.19349 10.059902 155.439091z" fill="#5B2F2E" p-id="19743"></path><path d="M1095.142762 972.357571l1.250691-12.860362a7.395388 7.395388 0 0 1 2.718892-5.111518 5.764052 5.764052 0 0 1 5.165896-1.060368l12.91474 3.724882a7.205065 7.205065 0 0 1 4.730873 7.966356l-1.332257 11.093082h0.51659s32.626712 24.470034 36.188461 25.720724 21.53363 17.292157-4.431795 14.301375-58.075547-11.256215-59.407804-17.21059 1.876036-21.588007 1.631335-25.394457a6.144697 6.144697 0 0 1 0-1.223502z" fill="#192684" p-id="19744"></path><path d="M938.017957 699.244806s-17.373724 80.071388 53.834074 90.67507 86.270463-8.374189 90.131291 17.292157 3.860828 107.559392 13.594463 154.840935c0 1.740091 28.249294 3.942394 28.249294 3.942394s48.341911-141.844628 11.990317-217.157954c-11.63686-22.974643-89.370001-39.152054-109.489806-46.493064S939.078325 693.31762 938.017957 699.244806z" fill="#3478F6" p-id="19745"></path><path d="M1204.469435 982.444663l-2.582948-11.66405a11.283404 11.283404 0 0 1 0.815667-7.721655 9.162668 9.162668 0 0 1 5.437786-4.758062l4.948384-1.27788a8.727645 8.727645 0 0 1 9.788014 5.437786l6.715665 14.083864h0.543778s38.581086 12.071883 42.305969 12.071883 25.82948 9.162668 0.462212 16.123033-58.265869 10.875571-61.419784 5.437785-5.165896-22.29492-6.634098-26.182936a8.156678 8.156678 0 0 1-0.380645-1.386635z" fill="#192684" p-id="19746"></path><path d="M1222.332559 961.617945s-46.928087-190.023406-88.853411-199.213263-19.875105 83.633137 22.050219 137.548778 46.819331 68.298583 46.819331 68.298583z" fill="#3478F6" p-id="19747"></path><path d="M1153.299875 607.291858a1.52258 1.52258 0 0 0 1.332258-0.842857 2.066358 2.066358 0 0 0 0-1.740091l-34.801826-75.313326a1.468202 1.468202 0 0 0-2.066358-0.706912 1.821658 1.821658 0 0 0-0.679723 2.311058l34.856203 75.313326a1.549769 1.549769 0 0 0 1.359446 0.951613z" fill="#F97700" p-id="19748"></path><path d="M1135.898963 629.478021a1.576958 1.576958 0 0 0 1.49539-1.359446 1.848847 1.848847 0 0 0-0.815667-1.957603l-22.920265-12.207827a1.413824 1.413824 0 0 0-1.576958 0 1.821658 1.821658 0 0 0-0.652534 1.604146 1.712902 1.712902 0 0 0 0.924423 1.441013l22.893076 12.207828a1.441013 1.441013 0 0 0 0.652535 0.271889z" fill="#F97700" p-id="19749"></path><path d="M1080.596686 656.666948h43.855739a1.76728 1.76728 0 0 0 0-3.507372h-43.855739a1.76728 1.76728 0 0 0 0 3.507372z" fill="#F97700" p-id="19750"></path><path d="M1126.08376 712.812081l3.697694 2.202303a1.930414 1.930414 0 0 0 2.718893-0.951613l48.940067-103.970454a2.501381 2.501381 0 0 0-0.842857-3.126726l-3.697694-2.202304a1.930414 1.930414 0 0 0-2.718892 0.951613l-48.940068 103.970454a2.447003 2.447003 0 0 0 0.842857 3.126727z" fill="#192684" p-id="19751"></path><path d="M1092.994837 707.863696v9.162668a1.52258 1.52258 0 0 0 1.441013 1.604147h36.922562a1.495391 1.495391 0 0 0 1.413824-1.604147v-9.162668a1.495391 1.495391 0 0 0-1.413824-1.604147h-36.813806a1.52258 1.52258 0 0 0-1.549769 1.604147z" fill="#192684" p-id="19752"></path><path d="M1073.065354 710.310699s20.745151-137.875045-56.906423-155.493469c-66.286602-13.241007-78.195352 77.896274-79.337287 150.246007z" fill="#FCBC2E" p-id="19753"></path><path d="M1059.579646 623.931481a0.978801 0.978801 0 0 0-1.49539 0l-2.202304 2.501381a1.305068 1.305068 0 0 0 0 1.658524 0.978801 0.978801 0 0 0 1.468202 0l2.202304-2.501381a1.305068 1.305068 0 0 0 0-1.685713zM1055.066285 687.879835a1.305068 1.305068 0 0 1 0-1.685713l2.202303-2.501382a1.033179 1.033179 0 0 1 1.033179-0.326267 1.087557 1.087557 0 0 1 0.76129 0.842857 1.223502 1.223502 0 0 1-0.299078 1.169124l-2.202303 2.501381a0.978801 0.978801 0 0 1-1.495391 0z m2.311058-89.478756a0.978801 0.978801 0 0 1-1.495391 0 1.305068 1.305068 0 0 1 0-1.685714l2.202304-2.501381a0.978801 0.978801 0 0 1 1.49539 0 1.305068 1.305068 0 0 1 0 1.685714z m2.202303 37.928552l-2.202303 2.501381a0.978801 0.978801 0 0 1-1.495391 0 1.305068 1.305068 0 0 1 0-1.685713l2.202304-2.501382a0.978801 0.978801 0 0 1 1.49539 0 1.305068 1.305068 0 0 1 0 1.685714z m-1.49539 68.543283a0.978801 0.978801 0 0 1 1.49539 0 1.305068 1.305068 0 0 1 0 1.685714l-2.202303 2.501381a0.951612 0.951612 0 0 1-1.468202 0 1.305068 1.305068 0 0 1 0-1.658525z m1.49539-28.140539l-2.202303 2.501382a0.978801 0.978801 0 0 1-1.495391 0 1.305068 1.305068 0 0 1 0-1.685714l2.202304-2.501381a1.00599 1.00599 0 0 1 1.033179-0.299078 1.114746 1.114746 0 0 1 0.734101 0.842856 1.223502 1.223502 0 0 1-0.27189 1.03318z m0-10.576492l-2.202303 2.501381a0.951612 0.951612 0 0 1-1.033179 0.326267 1.087557 1.087557 0 0 1-0.76129-0.842856 1.27788 1.27788 0 0 1 0.299078-1.169124l2.202304-2.501381a0.978801 0.978801 0 0 1 1.49539 0 1.305068 1.305068 0 0 1 0 1.685713z m0-10.603681l-2.202303 2.501381a0.951612 0.951612 0 0 1-1.495391 0 1.27788 1.27788 0 0 1 0-1.658525l2.202304-2.52857a0.978801 0.978801 0 0 1 1.49539 0 1.305068 1.305068 0 0 1 0 1.685714z m0-40.402745l-2.202303 2.501382a0.978801 0.978801 0 0 1-1.495391 0 1.305068 1.305068 0 0 1 0-1.685714l2.202304-2.501381a0.978801 0.978801 0 0 1 1.49539 0 1.305068 1.305068 0 0 1 0 1.685713z m-12.452528 38.717031a0.978801 0.978801 0 0 1 1.495391 0l2.202303 2.52857a1.27788 1.27788 0 0 1 0 1.658525 0.951612 0.951612 0 0 1-1.495391 0l-2.202303-2.501381a1.305068 1.305068 0 0 1 0-1.685714z m0 10.603682a0.978801 0.978801 0 0 1 1.495391 0l2.202303 2.501381a1.305068 1.305068 0 0 1 0 1.658524 0.978801 0.978801 0 0 1-1.468202 0l-2.202303-2.501381a1.305068 1.305068 0 0 1 0-1.685713z m0 10.576492a0.978801 0.978801 0 0 1 1.495391 0l2.202303 2.501381a1.305068 1.305068 0 0 1 0 1.685714 0.978801 0.978801 0 0 1-1.495391 0l-2.202303-2.501382a1.305068 1.305068 0 0 1 0-1.685713z m0-51.006426a0.978801 0.978801 0 0 1 1.495391 0l2.202303 2.501381a1.305068 1.305068 0 0 1 0 1.658525 0.978801 0.978801 0 0 1-1.468202 0l-2.202303-2.501381a1.305068 1.305068 0 0 1 0-1.685714z m0-10.576492a0.978801 0.978801 0 0 1 1.495391 0l2.202303 2.501381a1.305068 1.305068 0 0 1 0 1.685714 0.978801 0.978801 0 0 1-1.495391 0l-2.202303-2.501382a1.305068 1.305068 0 0 1 0-1.685713z m8.754834 83.334059l2.202304-2.501381a0.978801 0.978801 0 0 1 1.49539 0 1.305068 1.305068 0 0 1 0 1.685713l-2.202303 2.501381a0.978801 0.978801 0 0 1-1.495391 0 1.305068 1.305068 0 0 1 0-1.685713z m-8.754834-113.160311a0.978801 0.978801 0 0 1 1.495391 0l2.202303 2.501381a1.305068 1.305068 0 0 1 0 1.658524 0.978801 0.978801 0 0 1-1.468202 0l-2.202303-2.501381a1.305068 1.305068 0 0 1 0-1.685713z m0 10.576492a0.978801 0.978801 0 0 1 1.495391 0l2.202303 2.501381a1.305068 1.305068 0 0 1 0 1.685714 0.978801 0.978801 0 0 1-1.495391 0l-2.202303-2.501381a1.305068 1.305068 0 0 1 0-1.685714z m0 40.429933a0.978801 0.978801 0 0 1 1.495391 0l2.202303 2.501382a1.305068 1.305068 0 0 1 0 1.685713 0.978801 0.978801 0 0 1-1.495391 0l-2.202303-2.501381a1.359446 1.359446 0 0 1 0-1.712902z m-44.671406 70.120241a0.978801 0.978801 0 0 1 1.495391 0 1.305068 1.305068 0 0 1 0 1.685714l-1.00599 1.141935h-2.718893v-0.217512z m23.05621 2.501382l2.202303-2.501382a1.00599 1.00599 0 0 1 1.033179-0.326267 1.141935 1.141935 0 0 1 0.76129 0.842857 1.359446 1.359446 0 0 1-0.299078 1.169124l-1.821658 2.066358h-2.120737a1.223502 1.223502 0 0 1 0.244701-1.169124z m-8.754834-2.501382a0.978801 0.978801 0 0 1 1.49539 0l2.202304 2.501382a1.332257 1.332257 0 0 1 0.271889 1.00599h-2.447004l-1.522579-1.712902a1.169124 1.169124 0 0 1-0.326268-0.842857 1.223502 1.223502 0 0 1 0.326268-0.842857z m55.628543-51.006425a0.978801 0.978801 0 0 1 1.495391 0l1.25069 1.441013c0 1.033179 0 2.066358 0.163134 3.099537a0.951612 0.951612 0 0 1-0.706912-0.353456l-2.202303-2.501381a1.27788 1.27788 0 0 1-0.299078-0.842857 1.332257 1.332257 0 0 1 0.299078-0.842856z m-98.804558-57.966791l-2.229492 2.501381a0.951612 0.951612 0 0 1-1.468202 0 1.250691 1.250691 0 0 1 0-1.685713l2.202303-2.501382a0.978801 0.978801 0 0 1 1.495391 0 1.305068 1.305068 0 0 1 0 1.685714z m98.804558 68.570472a0.978801 0.978801 0 0 1 1.495391 0l1.658524 1.876036v2.718892a1.033179 1.033179 0 0 1-0.978801-0.299078l-2.202303-2.501381a1.332257 1.332257 0 0 1-0.299078-0.842857 1.27788 1.27788 0 0 1 0.299078-0.842856z m-98.804558-79.146965l-2.229492 2.501382a0.978801 0.978801 0 0 1-1.03318 0.326267 1.196313 1.196313 0 0 1-0.761289-0.842857 1.305068 1.305068 0 0 1 0.326267-1.169124l2.202303-2.501381a0.978801 0.978801 0 0 1 1.495391 0 1.305068 1.305068 0 0 1 0 1.685713z m-2.229492-8.156677a0.951612 0.951612 0 0 1-1.468202 0 1.250691 1.250691 0 0 1 0-1.685714l2.202303-2.501381a0.978801 0.978801 0 0 1 1.495391 0 1.305068 1.305068 0 0 1 0 1.685713z m101.03405 117.075516a0.978801 0.978801 0 0 1 1.495391 0l0.76129 0.870046q0 1.631336-0.244701 3.099537l-2.01198-2.283869a1.250691 1.250691 0 0 1 0-1.685714z m0.815668-49.320712a1.305068 1.305068 0 0 1 0-1.685714 0.924423 0.924423 0 0 1 0.951612-0.299078c0.135945 1.141935 0.2447 2.311059 0.353456 3.452994z m-17.319347-57.096745a1.305068 1.305068 0 0 1 0-1.685714l0.978802-1.114746 1.196313 2.011981-0.679724 0.788479a0.978801 0.978801 0 0 1-1.495391 0z m16.503679 87.222075a0.978801 0.978801 0 0 1 1.495391 0l1.631335 1.876036v2.718893a0.978801 0.978801 0 0 1-0.870045-0.326267l-2.202303-2.501382a1.305068 1.305068 0 0 1 0-1.685713z m-17.319346-69.685218l2.202303-2.501381a0.978801 0.978801 0 0 1 1.495391 0 1.305068 1.305068 0 0 1 0 1.685713l-2.202303 2.501382a0.951612 0.951612 0 0 1-1.468202 0 1.305068 1.305068 0 0 1 0-1.658525z m17.319346 30.968187a1.305068 1.305068 0 0 1 0-1.685713 0.978801 0.978801 0 0 1 0.679723-0.353456c0.163134 1.114746 0.299078 2.202303 0.462212 3.317049z m-23.763122 68.543283l2.202303 2.501382a1.305068 1.305068 0 0 1 0 1.658524 0.978801 0.978801 0 0 1-1.468202 0l-2.202303-2.501381a1.305068 1.305068 0 0 1 0-1.685714 0.978801 0.978801 0 0 1 1.495391 0z m24.470034-21.180173a0.951612 0.951612 0 0 1 1.468202 0l0.625345 0.706912q0 1.631336-0.163133 3.181104l-1.930414-2.202303a1.305068 1.305068 0 0 1 0-1.685713z m-0.815668 21.180173a0.978801 0.978801 0 0 1 1.386635 0c-0.135945 1.141935-0.2447 2.120736-0.353456 2.936404l-1.033179-1.169123a1.305068 1.305068 0 0 1 0-1.685714zM1029.209616 666.128694l-2.229492 2.501381a0.978801 0.978801 0 0 1-1.468202 0 1.305068 1.305068 0 0 1 0-1.658524l2.202303-2.501381a0.951612 0.951612 0 0 1 1.468202 0 1.359446 1.359446 0 0 1 0 1.658524z m-2.229492-88.934978a0.951612 0.951612 0 0 1-1.468202 0 1.250691 1.250691 0 0 1 0-1.685713l2.202303-2.501381a0.978801 0.978801 0 0 1 1.468202 0 1.359446 1.359446 0 0 1 0 1.658524z m-10.114281 36.161272a0.951612 0.951612 0 0 1 1.468202 0l2.229492 2.501381a1.359446 1.359446 0 0 1 0 1.658525 0.978801 0.978801 0 0 1-1.468202 0l-2.202303-2.501381a1.305068 1.305068 0 0 1 0-1.685714z m0 21.152985a0.951612 0.951612 0 0 1 1.468202 0l2.229492 2.52857a1.305068 1.305068 0 0 1 0 1.631336 0.951612 0.951612 0 0 1-1.468202 0l-2.229492-2.447004a1.305068 1.305068 0 0 1 0-1.685713z m0-10.576492a0.951612 0.951612 0 0 1 1.468202 0l2.229492 2.501381a1.359446 1.359446 0 0 1 0 1.685713 0.951612 0.951612 0 0 1-1.468202 0l-2.202303-2.501381a1.305068 1.305068 0 0 1 0-1.685713z m0-40.402745a0.924423 0.924423 0 0 1 1.468202 0l2.229492 2.501381a1.305068 1.305068 0 0 1 0 1.658525 0.978801 0.978801 0 0 1-1.468202 0l-2.202303-2.501381a1.305068 1.305068 0 0 1 0-1.685714z m12.452528 1.685713l-2.229491 2.501382a0.978801 0.978801 0 0 1-1.468202 0 1.305068 1.305068 0 0 1 0-1.658525l2.202303-2.501381a0.951612 0.951612 0 0 1 1.033179-0.353456 1.141935 1.141935 0 0 1 0.76129 0.870046 1.386635 1.386635 0 0 1-0.299079 1.169123z m-12.452528-12.289394a0.951612 0.951612 0 0 1 1.468202 0l2.229492 2.501381a1.359446 1.359446 0 0 1 0 1.658525 0.978801 0.978801 0 0 1-1.468202 0l-2.202303-2.501382a1.305068 1.305068 0 0 1 0-1.685713z m3.697694-15.062665a0.978801 0.978801 0 0 1-1.495391 0l-2.202303-2.501382a1.087557 1.087557 0 0 1-0.271889-0.4894c1.250691 0.271889 2.447003 0.598156 3.616127 0.924423l0.353456 0.380645a1.305068 1.305068 0 0 1 0 1.685714zM1016.865843 594.105228a0.951612 0.951612 0 0 1 1.468202 0l2.229492 2.501382a1.359446 1.359446 0 0 1 0 1.658524 0.978801 0.978801 0 0 1-1.468202 0l-2.202303-2.501381a1.305068 1.305068 0 0 1 0-1.685714z m4.513362 53.263107a0.978801 0.978801 0 0 1-1.495391 0l-2.229492-2.501381a1.305068 1.305068 0 0 1 0-1.685714 0.951612 0.951612 0 0 1 1.495391 0l2.229492 2.501382a1.27788 1.27788 0 0 1 0.299078 0.842856 1.332257 1.332257 0 0 1-0.299078 0.842857z m0-40.429933a0.978801 0.978801 0 0 1-1.495391 0l-2.229492-2.501382a1.413824 1.413824 0 0 1-0.271889-1.141935 1.141935 1.141935 0 0 1 0.76129-0.842856 0.951612 0.951612 0 0 1 1.00599 0.299078l2.229492 2.501381a1.332257 1.332257 0 0 1 0.299078 0.842857 1.27788 1.27788 0 0 1-0.299078 0.842857z m-1.495391-40.402745l-2.229492-2.52857a1.27788 1.27788 0 0 1 0-1.658525 0.951612 0.951612 0 0 1 1.495391 0l2.229492 2.501382a1.305068 1.305068 0 0 1 0 1.685713 0.978801 0.978801 0 0 1-1.495391 0z m0 121.235422l-2.229492-2.501381a1.359446 1.359446 0 0 1-0.299078-1.169124 1.196313 1.196313 0 0 1 0.76129-0.842856 0.951612 0.951612 0 0 1 1.033179 0.326267l2.229492 2.501381a1.305068 1.305068 0 0 1 0 1.685713 0.978801 0.978801 0 0 1-1.495391 0z m-3.017971-23.436854a0.951612 0.951612 0 0 1 1.468202 0l2.229492 2.501381a1.359446 1.359446 0 0 1 0 1.685714 0.951612 0.951612 0 0 1-1.468202 0L1016.865843 666.128694a1.27788 1.27788 0 0 1 0-1.658524z m0-10.576492a0.951612 0.951612 0 0 1 1.468202 0l2.229492 2.501381a1.359446 1.359446 0 0 1 0 1.658524 0.978801 0.978801 0 0 1-1.468202 0l-2.202303-2.501381a1.305068 1.305068 0 0 1 0-1.685713z m2.202303 44.617028l-2.202303-2.501382a1.250691 1.250691 0 0 1 0-1.685713 0.924423 0.924423 0 0 1 1.468202 0l2.229492 2.501381a1.359446 1.359446 0 0 1 0 1.658525 0.978801 0.978801 0 0 1-1.468202 0z m-2.202303-23.436855a0.951612 0.951612 0 0 1 1.468202 0l2.229492 2.501381a1.359446 1.359446 0 0 1 0 1.658525 0.978801 0.978801 0 0 1-1.468202 0l-2.202303-2.501381a1.305068 1.305068 0 0 1 0-1.685714z m7.939167 12.833173a1.305068 1.305068 0 0 1 0-1.685713l2.202303-2.501381a1.00599 1.00599 0 0 1 1.033179-0.326267 1.114746 1.114746 0 0 1 0.734101 0.870045 1.223502 1.223502 0 0 1-0.271889 1.141935l-2.229492 2.501381a0.951612 0.951612 0 0 1-1.468202 0z m0-122.921135l2.202303-2.501382a0.978801 0.978801 0 0 1 1.033179-0.353456 1.141935 1.141935 0 0 1 0.76129 0.870046 1.386635 1.386635 0 0 1-0.299078 1.169124l-2.229492 2.501381a0.951612 0.951612 0 0 1-1.005991 0.299078 1.114746 1.114746 0 0 1-0.734101-0.842856 1.223502 1.223502 0 0 1 0.27189-1.141935z m0.815668-6.987554a0.570967 0.570967 0 0 1-0.163134-0.27189l1.305068 0.51659a0.897235 0.897235 0 0 1-1.141934-0.2447z m-0.815668 47.390298l2.202303-2.501381a0.951612 0.951612 0 0 1 1.033179-0.326267 1.141935 1.141935 0 0 1 0.76129 0.842857 1.359446 1.359446 0 0 1-0.299078 1.169123l-2.229492 2.501382a0.951612 0.951612 0 0 1-1.468202 0 1.305068 1.305068 0 0 1 0-1.685714z m24.633167-28.140539l-2.202303-2.501381a1.305068 1.305068 0 0 1 0-1.685713 0.842857 0.842857 0 0 1 0.407834-0.271889c1.223502 1.305068 2.392626 2.718893 3.53456 4.023961a1.141935 1.141935 0 0 1-0.2447 0.435022 0.978801 0.978801 0 0 1-1.495391 0z m2.311059 70.256186a0.978801 0.978801 0 0 1-1.495391 0l-2.202303-2.501381a1.27788 1.27788 0 0 1 0-1.658525 0.951612 0.951612 0 0 1 1.441013 0l2.229492 2.501381a1.305068 1.305068 0 0 1 0 1.685714z m-1.495391-40.429933l-2.202303-2.501382a1.223502 1.223502 0 0 1-0.299078-1.169123 1.087557 1.087557 0 0 1 0.761289-0.842857 0.924423 0.924423 0 0 1 1.005991 0.326267l2.229492 2.501381a1.305068 1.305068 0 0 1 0 1.685714 0.978801 0.978801 0 0 1-1.495391 0z m-25.448835 38.74422l2.202303-2.501382a0.978801 0.978801 0 0 1 1.033179-0.353456 1.141935 1.141935 0 0 1 0.76129 0.870046 1.386635 1.386635 0 0 1-0.299078 1.169124l-2.229492 2.501381a0.951612 0.951612 0 0 1-1.005991 0.299078 1.114746 1.114746 0 0 1-0.734101-0.842857 1.223502 1.223502 0 0 1 0.27189-1.141934z m25.340079 42.197213l-2.202303-2.501381a1.332257 1.332257 0 0 1-0.299078-1.141935 1.141935 1.141935 0 0 1 0.76129-0.870046 0.951612 0.951612 0 0 1 1.00599 0.326267l2.229492 2.501382a1.305068 1.305068 0 0 1 0 1.685713 0.978801 0.978801 0 0 1-1.495391 0z m-20.935473-62.153885l-2.229492 2.501381a0.978801 0.978801 0 0 1-1.468202 0 1.305068 1.305068 0 0 1 0-1.658525l2.202303-2.501381a1.00599 1.00599 0 0 1 1.033179-0.353456 1.196313 1.196313 0 0 1 0.76129 0.870046 1.359446 1.359446 0 0 1-0.299078 1.169124z m0 10.576492l-2.229492 2.501381a0.924423 0.924423 0 0 1-1.468202 0 1.223502 1.223502 0 0 1 0-1.658524l2.202303-2.52857a0.978801 0.978801 0 0 1 1.468202 0 1.305068 1.305068 0 0 1 0 1.631335z m0 19.24976l-2.229492 2.501381a0.951612 0.951612 0 0 1-1.468202 0 1.250691 1.250691 0 0 1 0-1.685713l2.202303-2.501382a0.951612 0.951612 0 0 1 1.033179-0.326267 1.141935 1.141935 0 0 1 0.76129 0.842857 1.359446 1.359446 0 0 1-0.299078 1.169124z m0-59.652504l-2.229492 2.501381a0.951612 0.951612 0 0 1-1.468202 0 1.250691 1.250691 0 0 1 0-1.685714l2.202303-2.501381a0.978801 0.978801 0 0 1 1.468202 0 1.359446 1.359446 0 0 1 0 1.658525z m0 19.249759l-2.229492 2.501382a0.951612 0.951612 0 0 1-1.468202 0 1.250691 1.250691 0 0 1 0-1.685714l2.202303-2.501381a0.951612 0.951612 0 0 1 1.033179-0.353456 1.141935 1.141935 0 0 1 0.76129 0.870045 1.386635 1.386635 0 0 1-0.299078 1.169124z m0 80.832678l-2.229492 2.501381a0.951612 0.951612 0 0 1-1.468202 0 1.250691 1.250691 0 0 1 0-1.685713l2.202303-2.501381a0.951612 0.951612 0 0 1 1.033179-0.353456 1.141935 1.141935 0 0 1 0.76129 0.870045 1.386635 1.386635 0 0 1-0.299078 1.169124z m-55.628543-80.832678l-2.229492 2.501382a0.978801 0.978801 0 0 1-1.495391 0 1.305068 1.305068 0 0 1 0-1.685714l2.229492-2.501381a0.978801 0.978801 0 0 1 1.00599-0.326267 1.141935 1.141935 0 0 1 0.76129 0.842856 1.468202 1.468202 0 0 1-0.271889 1.169124z m73.546045 79.146965a0.978801 0.978801 0 0 1 1.495391 0l2.202303 2.501381a1.305068 1.305068 0 0 1 0 1.685713 0.978801 0.978801 0 0 1-1.495391 0l-2.202303-2.501381a1.305068 1.305068 0 0 1 0-1.685713z m-17.917502-17.564047l-2.229492 2.501382a0.951612 0.951612 0 0 1-1.468202 0 1.250691 1.250691 0 0 1 0-1.685714l2.202303-2.501381a0.978801 0.978801 0 0 1 1.468202 0 1.359446 1.359446 0 0 1 0 1.658524z m25.856669-30.940998l2.202303-2.501381a0.978801 0.978801 0 0 1 1.495391 0 1.305068 1.305068 0 0 1 0 1.685713l-2.202303 2.501382a0.978801 0.978801 0 0 1-1.03318 0.353456 1.087557 1.087557 0 0 1-0.761289-0.870046 1.305068 1.305068 0 0 1 0.299078-1.169124zM939.567726 657.972016l-0.190323 0.135945c0-0.625345 0-1.223502 0.190323-1.848847a1.305068 1.305068 0 0 1 0 1.685713z m6.525342-29.907819a0.978801 0.978801 0 0 1-1.468202 0 1.305068 1.305068 0 0 1 0-1.658524l2.202303-2.501381a1.033179 1.033179 0 0 1 1.033179-0.353456 1.196313 1.196313 0 0 1 0.76129 0.870045 1.359446 1.359446 0 0 1-0.299078 1.169124z m2.229492 27.188927l-2.147925 2.718892a0.951612 0.951612 0 0 1-1.468202 0 1.250691 1.250691 0 0 1 0-1.685713l2.202303-2.501381a0.978801 0.978801 0 0 1 1.033179-0.353456 1.141935 1.141935 0 0 1 0.76129 0.870045 1.386635 1.386635 0 0 1-0.299078 1.169124z m0-19.24976l-2.229492 2.501381a0.951612 0.951612 0 0 1-1.468202 0 1.250691 1.250691 0 0 1 0-1.685713l2.202303-2.501382a0.978801 0.978801 0 0 1 1.468202 0 1.305068 1.305068 0 0 1 0 1.658525z m0 29.907819l-2.229492 2.501381a0.951612 0.951612 0 0 1-1.468202 0 1.305068 1.305068 0 0 1 0-1.658525l2.202303-2.501381a0.978801 0.978801 0 0 1 1.468202 0 1.305068 1.305068 0 0 1 0 1.658525z m0 10.603681l-2.229492 2.501381a0.951612 0.951612 0 0 1-1.468202 0 1.250691 1.250691 0 0 1 0-1.685713l2.202303-2.501381a0.978801 0.978801 0 0 1 1.468202 0 1.305068 1.305068 0 0 1 0 1.658524z m-4.513362 11.14746a1.305068 1.305068 0 0 1 0-1.685714l2.202303-2.501381a1.00599 1.00599 0 0 1 1.03318-0.326267 1.114746 1.114746 0 0 1 0.734101 0.870046 1.223502 1.223502 0 0 1-0.27189 1.141935l-2.229492 2.501381a0.951612 0.951612 0 0 1-1.468202 0z m4.513362 8.156678l-2.229492 2.52857a0.951612 0.951612 0 0 1-1.468202 0 1.250691 1.250691 0 0 1 0-1.685714l2.202303-2.52857a1.00599 1.00599 0 0 1 1.033179-0.326267 1.141935 1.141935 0 0 1 0.76129 0.870046 1.332257 1.332257 0 0 1-0.299078 1.141935z m25.258513 8.917967a1.305068 1.305068 0 0 1 0 1.685714h-2.882027l1.386636-1.576958a0.978801 0.978801 0 0 1 1.495391 0z m17.917502 0a0.978801 0.978801 0 0 1 1.495391 0l2.202303 2.501382-3.072349-0.135945-0.625345-0.706912a1.169124 1.169124 0 0 1-0.326267-0.842857 1.359446 1.359446 0 0 1 0.326267-0.842856z m-47.689377-59.081536l2.202303-2.501382a0.978801 0.978801 0 0 1 1.03318-0.353456 1.141935 1.141935 0 0 1 0.761289 0.870046 1.305068 1.305068 0 0 1-0.299078 1.141935l-2.229492 2.52857a0.951612 0.951612 0 0 1-1.468202 0 1.305068 1.305068 0 0 1 0-1.685713z m29.771875-20.065428l-2.229492 2.501381a0.978801 0.978801 0 0 1-1.468202 0 1.359446 1.359446 0 0 1 0-1.658524l2.229492-2.501381a0.978801 0.978801 0 0 1 1.495391 0 1.305068 1.305068 0 0 1 0 1.685713zM938.425791 668.847587c0-0.978801 0.135945-1.984792 0.2447-2.963593l0.897235 1.00599a1.359446 1.359446 0 0 1 0.135944 1.52258 1.00599 1.00599 0 0 1-1.277879 0.435023z m61.011951-103.943265l2.202303-2.528571a1.00599 1.00599 0 0 1 1.033179-0.326267 1.087557 1.087557 0 0 1 0.76129 0.842857 1.27788 1.27788 0 0 1-0.299079 1.169124l-2.202303 2.52857a1.033179 1.033179 0 0 1-1.033179 0.326267 1.087557 1.087557 0 0 1-0.76129-0.842857 1.223502 1.223502 0 0 1 0.299079-1.169123z m-59.815638 112.589343a1.305068 1.305068 0 0 1 0 1.658525 0.978801 0.978801 0 0 1-1.468202 0l-0.326267-0.353456c0-1.060368 0.135945-2.093547 0.190322-3.153916z m-0.679723 10.331792l-1.495391-1.685713v-2.718893a1.00599 1.00599 0 0 1 0.652534 0.326267l2.229492 2.501382a1.305068 1.305068 0 0 1 0 1.685713 0.978801 0.978801 0 0 1-1.495391 0z m-0.815668 10.576493l-1.087557-1.223502v-3.153916l0.271889 0.190323 2.229492 2.501381a1.359446 1.359446 0 0 1 0 1.658525 0.978801 0.978801 0 0 1-1.468202 0z m27.488004-10.522115a0.951612 0.951612 0 0 1-1.468202 0l-2.229492-2.501381a1.359446 1.359446 0 0 1-0.299078-1.169124 1.196313 1.196313 0 0 1 0.76129-0.870046 0.978801 0.978801 0 0 1 1.033179 0.353456l2.202303 2.501382a1.250691 1.250691 0 0 1 0 1.685713z m-17.292157-74.44328a1.305068 1.305068 0 0 1 0 1.685713l-2.229492 2.501382q0.51659-2.28387 1.141935-4.486173a0.924423 0.924423 0 0 1 1.141935 0.271889z m16.503678-36.21565a0.978801 0.978801 0 0 1-1.495391 0l-0.4894-0.543778c0.435023-0.652534 0.870046-1.27788 1.332257-1.876036l0.652534 0.734101a1.305068 1.305068 0 0 1 0 1.576957z m-3.697694 6.416587a0.978801 0.978801 0 0 1 1.495391 0l2.202303 2.501381a1.27788 1.27788 0 0 1 0 1.658524 1.00599 1.00599 0 0 1-1.495391 0l-2.202303-2.501381a1.305068 1.305068 0 0 1 0-1.685713z m0 10.576492a0.978801 0.978801 0 0 1 1.495391 0l2.202303 2.501381a1.305068 1.305068 0 0 1 0 1.658525 0.978801 0.978801 0 0 1-1.468202 0l-2.202303-2.501381a1.305068 1.305068 0 0 1 0-1.685714z m0 110.65893a0.978801 0.978801 0 0 1 1.495391 0l1.141935 1.305069h-2.882026a1.332257 1.332257 0 0 1 0.217511-1.196313z m-24.279711-0.299078a1.223502 1.223502 0 0 1 0.51659 0.299078l0.2447 0.299078h-0.788479a4.023961 4.023961 0 0 1 0-0.570967z m24.252522-91.110092a0.978801 0.978801 0 0 1 1.495391 0l2.229492 2.501381a1.359446 1.359446 0 0 1 0 1.658525 0.978801 0.978801 0 0 1-1.468202 0l-2.229492-2.501382a1.305068 1.305068 0 0 1 0-1.685713z m-12.778795 91.40917a1.332257 1.332257 0 0 1 0.271889 0.706912h-2.311058l0.543778-0.625345a0.978801 0.978801 0 0 1 1.495391 0z m51.115182-99.51147l2.202303-2.501381a1.00599 1.00599 0 0 1 1.033179-0.326267 1.141935 1.141935 0 0 1 0.76129 0.842856 1.27788 1.27788 0 0 1-0.299079 1.169124l-2.202303 2.501381a0.978801 0.978801 0 0 1-1.468202 0 1.27788 1.27788 0 0 1 0-1.658524z m-38.336387 18.678792a0.978801 0.978801 0 0 1 1.495391 0l2.229492 2.501381a1.359446 1.359446 0 0 1 0 1.685714 0.951612 0.951612 0 0 1-1.468202 0l-2.229492-2.501381a1.305068 1.305068 0 0 1 0-1.685714z m4.513362 23.436855a0.951612 0.951612 0 0 1-1.468202 0l-2.229492-2.501382a1.305068 1.305068 0 0 1 0-1.685713 0.978801 0.978801 0 0 1 1.495391 0l2.202303 2.501381a1.27788 1.27788 0 0 1 0 1.685714zM962.487991 694.187666l2.229492 2.501381a1.359446 1.359446 0 0 1 0 1.658525 0.978801 0.978801 0 0 1-1.468202 0l-2.229492-2.501381a1.305068 1.305068 0 0 1 0-1.685714 0.978801 0.978801 0 0 1 1.495391 0z m-1.495391-19.24976a0.978801 0.978801 0 0 1 1.495391 0l2.229492 2.501381a1.359446 1.359446 0 0 1 0 1.658525 0.978801 0.978801 0 0 1-1.468202 0l-2.229492-2.501381a1.332257 1.332257 0 0 1 0-1.685714z m3.045159-67.972315l-2.229491-2.501382a1.305068 1.305068 0 0 1 0-1.685713 0.978801 0.978801 0 0 1 1.49539 0l2.202303 2.501381a1.27788 1.27788 0 0 1 0 1.658525 0.951612 0.951612 0 0 1-1.441013 0z m-3.045159 27.569571a0.978801 0.978801 0 0 1 1.495391 0l2.229492 2.52857a1.305068 1.305068 0 0 1 0 1.631335 0.951612 0.951612 0 0 1-1.468202 0l-2.229492-2.501381a1.305068 1.305068 0 0 1 0-1.685713z m0 19.24976a0.978801 0.978801 0 0 1 1.495391 0l2.229492 2.501381a1.359446 1.359446 0 0 1 0 1.658524 0.978801 0.978801 0 0 1-1.468202 0l-2.229492-2.501381a1.386635 1.386635 0 0 1 0-1.685713z m0 10.603681a0.978801 0.978801 0 0 1 1.495391 0l2.229492 2.501381a1.305068 1.305068 0 0 1 0 1.658525 0.978801 0.978801 0 0 1-1.468202 0l-2.229492-2.501382a1.305068 1.305068 0 0 1 0-1.685713z m42.849748-109.000406l-2.229492 2.501382a0.924423 0.924423 0 0 1-1.441013 0 1.27788 1.27788 0 0 1 0-1.658525l2.202303-2.501381 0.217511-0.163134h1.033179l0.2447 0.190323a1.305068 1.305068 0 0 1 0 1.685713z m-7.939167 92.007327a0.978801 0.978801 0 0 1-1.495391 0l-2.202303-2.501381a1.305068 1.305068 0 0 1 0-1.685714 0.978801 0.978801 0 0 1 1.468202 0l2.229492 2.501381a1.305068 1.305068 0 0 1 0 1.685714z m-1.495391-80.832678l-2.202303-2.501381a1.305068 1.305068 0 0 1 0-1.685714 0.951612 0.951612 0 0 1 1.468202 0l2.229492 2.501382a1.305068 1.305068 0 0 1 0 1.685713 0.978801 0.978801 0 0 1-1.495391 0z m0.679723 131.839104a0.978801 0.978801 0 0 1-1.495391 0l-2.202303-2.501382a1.305068 1.305068 0 0 1 0-1.685713 0.951612 0.951612 0 0 1 1.468202 0l2.229492 2.501381a1.305068 1.305068 0 0 1 0 1.685714z m-0.679723-10.603682L992.39581 685.160943a1.223502 1.223502 0 0 1-0.27189-1.141935 1.114746 1.114746 0 0 1 0.734101-0.842857 0.951612 0.951612 0 0 1 1.005991 0.299078l2.229492 2.501381a1.305068 1.305068 0 0 1 0 1.685714 0.978801 0.978801 0 0 1-1.495391 0z m1.495391-80.832677a0.978801 0.978801 0 0 1-1.495391 0l-2.202303-2.501382a1.169124 1.169124 0 0 1-0.299078-1.141935 1.141935 1.141935 0 0 1 0.76129-0.870045 0.951612 0.951612 0 0 1 1.00599 0.326267l2.229492 2.501381a1.305068 1.305068 0 0 1 0 1.685714z m-4.513362 67.972315a0.951612 0.951612 0 0 1 1.468202 0l2.229492 2.501381a1.305068 1.305068 0 0 1 0 1.685714 0.978801 0.978801 0 0 1-1.495391 0l-2.202303-2.501381a1.305068 1.305068 0 0 1 0-1.685714z m0-21.180173a0.951612 0.951612 0 0 1 1.468202 0l2.229492 2.501381a1.305068 1.305068 0 0 1 0 1.685713 0.978801 0.978801 0 0 1-1.495391 0l-2.202303-2.501381a1.305068 1.305068 0 0 1 0-1.685713z m0 10.603681a0.951612 0.951612 0 0 1 1.468202 0l2.229492 2.501381a1.305068 1.305068 0 0 1 0 1.685714 0.978801 0.978801 0 0 1-1.495391 0l-2.202303-2.501382a1.305068 1.305068 0 0 1 0-1.685713z m-22.458053-59.108726l2.229492-2.501381a0.978801 0.978801 0 0 1 1.495391 0 1.305068 1.305068 0 0 1 0 1.685713l-2.229492 2.501382a0.951612 0.951612 0 0 1-1.033179 0.353456 1.196313 1.196313 0 0 1-0.76129-0.870046 1.386635 1.386635 0 0 1 0.299078-1.169124z m4.513362 71.370932l-2.202303 2.501381a0.978801 0.978801 0 0 1-1.495391 0 1.305068 1.305068 0 0 1 0-1.685714l2.229492-2.501381a0.951612 0.951612 0 0 1 1.468202 0 1.250691 1.250691 0 0 1 0 1.685714z m0-21.180174l-2.202303 2.501381a0.978801 0.978801 0 0 1-1.495391 0 1.305068 1.305068 0 0 1 0-1.685713l2.229492-2.501381a0.951612 0.951612 0 0 1 1.468202 0 1.250691 1.250691 0 0 1 0 1.685713z m0 10.603681l-2.202303 2.501382a1.00599 1.00599 0 0 1-1.033179 0.326267 1.141935 1.141935 0 0 1-0.76129-0.842857 1.359446 1.359446 0 0 1 0.299078-1.169124l2.229492-2.501381a0.951612 0.951612 0 0 1 1.468202 0 1.250691 1.250691 0 0 1 0 1.685713z m0-29.907819l-2.202303 2.501382a0.951612 0.951612 0 0 1-1.495391 0 1.27788 1.27788 0 0 1 0-1.658525l2.229492-2.52857a0.951612 0.951612 0 0 1 1.468202 0 1.250691 1.250691 0 0 1 0 1.685713z m-4.513362 51.65896a1.305068 1.305068 0 0 1 0-1.685713l2.229492-2.501381a0.978801 0.978801 0 0 1 1.033179-0.326267 1.196313 1.196313 0 0 1 0.76129 0.842856 1.359446 1.359446 0 0 1-0.299078 1.169124l-2.01198 2.582948a0.978801 0.978801 0 0 1-1.495391 0z m0-42.088458l2.229492-2.501381a0.978801 0.978801 0 0 1 1.495391 0 1.305068 1.305068 0 0 1 0 1.685714l-2.229492 2.501381a0.951612 0.951612 0 0 1-1.033179 0.326267 1.196313 1.196313 0 0 1-0.76129-0.842857 1.359446 1.359446 0 0 1 0.299078-1.169124z m22.458053-11.174648a0.951612 0.951612 0 0 1 1.468202 0l2.229492 2.52857a1.27788 1.27788 0 0 1 0 1.658524 0.951612 0.951612 0 0 1-1.495391 0l-2.202303-2.501381a1.305068 1.305068 0 0 1 0-1.685713z m-17.917502 61.365406l-2.229492 2.501382a0.978801 0.978801 0 0 1-1.495391 0 1.305068 1.305068 0 0 1 0-1.685714l2.229492-2.501381a0.978801 0.978801 0 0 1 1.495391 0 1.305068 1.305068 0 0 1 0 1.685713z m17.917502-71.941899a0.951612 0.951612 0 0 1 1.468202 0l2.229492 2.501382a1.305068 1.305068 0 0 1 0 1.685713 0.978801 0.978801 0 0 1-1.495391 0l-2.202303-2.501381a1.305068 1.305068 0 0 1 0-1.685714z m12.452529 12.262206l-2.229492 2.501381a0.924423 0.924423 0 0 1-1.441013 0 1.250691 1.250691 0 0 1 0-1.631335l2.202303-2.52857a0.978801 0.978801 0 0 1 1.49539 0 1.305068 1.305068 0 0 1 0 1.685713z m0 19.24976l-2.229492 2.501381a0.951612 0.951612 0 0 1-1.441013 0 1.27788 1.27788 0 0 1 0-1.658524l2.202303-2.501381a0.978801 0.978801 0 0 1 1.49539 0 1.305068 1.305068 0 0 1 0 1.685713z m0-29.907819l-2.229492 2.501381a0.951612 0.951612 0 0 1-1.468202 0 1.305068 1.305068 0 0 1 0-1.685713l2.202303-2.501381a0.978801 0.978801 0 0 1 1.495391 0 1.305068 1.305068 0 0 1 0 1.685713z m0-10.576492l-2.229492 2.501381a0.951612 0.951612 0 0 1-1.441013 0 1.27788 1.27788 0 0 1 0-1.658525l2.202303-2.501381a0.978801 0.978801 0 0 1 1.00599-0.326267 1.141935 1.141935 0 0 1 0.76129 0.842857 1.359446 1.359446 0 0 1-0.27189 1.169124z m0 51.006425l-2.229492 2.501382a0.897235 0.897235 0 0 1-1.005991 0.299078 1.087557 1.087557 0 0 1-0.76129-0.842857 1.332257 1.332257 0 0 1 0.299079-1.141935l2.202303-2.501381a0.978801 0.978801 0 0 1 1.495391 0 1.305068 1.305068 0 0 1 0 1.685713z m-4.513362 21.751142a1.305068 1.305068 0 0 1 0-1.685714l2.202303-2.501381a1.00599 1.00599 0 0 1 1.033179-0.299078 1.060368 1.060368 0 0 1 0.734101 0.842856 1.223502 1.223502 0 0 1-0.271889 1.141935l-2.202303 2.501382a0.978801 0.978801 0 0 1-1.495391 0z m4.513362-11.14746l-2.229492 2.501381a0.951612 0.951612 0 0 1-1.441013 0 1.27788 1.27788 0 0 1 0-1.658525l2.202303-2.501381a0.978801 0.978801 0 0 1 1.49539 0 1.305068 1.305068 0 0 1 0 1.685714z m0 19.24976l-2.229492 2.501381a0.951612 0.951612 0 0 1-1.441013 0 1.27788 1.27788 0 0 1 0-1.658525l2.202303-2.501381a0.978801 0.978801 0 0 1 1.49539 0 1.305068 1.305068 0 0 1 0 1.685713zM995.114702 557.86239a0.978801 0.978801 0 0 1-1.495391 0l-2.202303-2.501382a0.652534 0.652534 0 0 1-0.190322-0.326267l2.392625-0.543778 1.495391 1.685713a1.305068 1.305068 0 0 1 0 1.685714z m-3.697694 25.639157a0.951612 0.951612 0 0 1 1.468202 0l2.229492 2.52857a1.305068 1.305068 0 0 1 0 1.685714 0.978801 0.978801 0 0 1-1.495391 0l-2.202303-2.52857a1.27788 1.27788 0 0 1 0-1.658525z m0-10.576492a0.951612 0.951612 0 0 1 1.468202 0l2.229492 2.501381a1.305068 1.305068 0 0 1 0 1.685713 0.978801 0.978801 0 0 1-1.495391 0l-2.202303-2.501381a1.305068 1.305068 0 0 1 0-1.685713z m0 21.180173a0.951612 0.951612 0 0 1 1.468202 0l2.229492 2.501382a1.305068 1.305068 0 0 1 0 1.685713 0.978801 0.978801 0 0 1-1.495391 0l-2.202303-2.501381a1.305068 1.305068 0 0 1 0-1.685714z m0 19.24976a0.951612 0.951612 0 0 1 1.468202 0l2.229492 2.501381a1.305068 1.305068 0 0 1 0 1.685714 0.978801 0.978801 0 0 1-1.495391 0l-2.202303-2.501381a1.305068 1.305068 0 0 1 0-1.685714z m10.223037-36.242839a0.951612 0.951612 0 0 1-1.441014 0 1.27788 1.27788 0 0 1 0-1.658524l2.202303-2.501381a0.978801 0.978801 0 0 1 1.495391 0 1.305068 1.305068 0 0 1 0 1.685713z m-2.28387 68.570473l2.202303-2.501382a0.978801 0.978801 0 0 1 1.033179-0.353456 1.141935 1.141935 0 0 1 0.76129 0.870046 1.305068 1.305068 0 0 1-0.299078 1.169124l-2.202303 2.501381a0.978801 0.978801 0 0 1-1.03318 0.326267 1.087557 1.087557 0 0 1-0.761289-0.842857 1.223502 1.223502 0 0 1 0.380645-1.169123z m4.513361-49.89168l-2.229491 2.501381a0.951612 0.951612 0 0 1-1.441014 0 1.27788 1.27788 0 0 1 0-1.658524l2.202303-2.501382a0.978801 0.978801 0 0 1 1.495391 0 1.305068 1.305068 0 0 1 0 1.685714z m0-10.603681l-2.229491 2.52857a0.951612 0.951612 0 0 1-1.005991 0.299078 1.141935 1.141935 0 0 1-0.76129-0.842857 1.332257 1.332257 0 0 1 0.299079-1.141935l2.202303-2.52857a0.978801 0.978801 0 0 1 1.49539 0 1.359446 1.359446 0 0 1 0 1.712902z" fill="#EED095" p-id="19754"></path><path d="M1065.153376 497.992374a12.642851 12.642851 0 0 1 7.041932 10.603681c1.359446 13.43133 3.072349 46.764953-12.235017 54.051586-7.014743 2.990782-23.518421-8.510134-21.01704-13.213819 0.978801-1.821658 7.830411-59.24467 26.210125-51.441448z" fill="#55312F" p-id="19755"></path><path d="M1003.597647 553.512161L1005.990273 535.621848c1.196313-9.488935 8.917968-16.095844 17.292157-14.763587s14.219808 10.087092 13.023496 19.548838l-2.718893 21.180174a39.75021 39.75021 0 0 1 13.376952 10.63087s-12.941929 31.539154-25.911047 41.164034S989.676917 555.57852 989.676917 555.57852a64.029921 64.029921 0 0 1 13.975108-2.066359z" fill="#FAC896" p-id="19756"></path><path d="M1033.6686 560.581282l1.277879-7.884788-19.032248-7.504144c-4.948385-0.598156-2.311059 11.827183 15.171421 16.313356 1.196313 0.271889 2.392626 0.217511 2.582948-0.924424z" fill="#F39C55" p-id="19757"></path><path d="M1010.693957 529.776229a24.959434 24.959434 0 0 0 15.715199 23.518421c8.945157 5.437785 20.146994 1.876036 25.095379-8.156678l11.283405-23.192154c4.866818-10.114281 1.631336-22.811509-7.286632-28.385239l-17.020268-10.603681c-8.945157-5.437785-20.146994-1.848847-25.095379 8.156678l-11.256216 23.164965c-4.921196 10.087092 8.455756 3.996772 8.564512 15.497688z" fill="#FAC896" p-id="19758"></path><path d="M1011.699947 474.664275c18.107825-7.966355 39.423943-9.352991 49.483846 6.389398a19.820727 19.820727 0 0 1 3.099538 10.277414 17.591235 17.591235 0 0 1 2.093547 2.392626 30.39722 30.39722 0 0 1 5.437785 22.240541 48.233155 48.233155 0 0 1-8.020733 21.343307 2.718893 2.718893 0 0 1-2.555759 1.169124 2.854837 2.854837 0 0 1-2.256681-1.794469 125.069061 125.069061 0 0 1-7.993544-24.714734 23.654366 23.654366 0 0 1-5.437786 2.365437c-11.038704 2.963593-19.847916 1.848847-20.119805 4.458984s-2.909215 1.848847-3.996772 1.033179 1.549769-7.531333-3.235482-8.61889a4.458984 4.458984 0 0 0-5.628108 5.437785c0.76129 2.093547 8.156678 5.247463 7.422577 7.6129s-7.395388 18.406903-10.250225 19.576027-7.422577-3.181104-14.138242-5.437786c-8.61889-2.718893-7.939166 0.353456-12.534095-2.474192s3.425805-50.190758 28.629939-61.256651z" fill="#55312F" p-id="19759"></path><path d="M1051.749236 646.715801s-10.168658 43.502282-11.337783 46.08523 12.615662 25.231324 31.729477 12.697228a7.966355 7.966355 0 0 0 3.371427-6.878798c-0.217511-12.044694-0.734101-45.949285-1.223501-52.284305-0.598156-7.667277-19.358516-14.845154-22.53962 0.380645z" fill="#F7BA84" p-id="19760"></path><path d="M1075.294846 685.160943a310.796616 310.796616 0 0 0-28.249295-18.651604c2.28387-9.597691 4.350228-18.406903 4.649307-19.711971a12.452528 12.452528 0 0 1 14.709209 5.437785q5.111518 7.395388 8.510134 13.376952c0.135945 6.57972 0.271889 13.512896 0.380645 19.548838z" fill="#F39C55" p-id="19761"></path><path d="M1051.39578 607.319047s-2.147925 49.266334-4.540551 52.991217a126.646019 126.646019 0 0 1 25.503213 12.805984c1.114746 0.815668 3.235482 0.271889 3.181104-1.114746-0.652534-13.975108-3.697694-57.722091-9.679258-64.682455-7.150688-8.319811-14.328564-3.262671-14.464508 0z" fill="#FCBC2E" p-id="19762"></path><path d="M992.613321 639.864191a25.802291 25.802291 0 0 1 7.803222 5.437786c9.570502 9.516124 41.898135 39.206432 82.436824 48.940067 11.229027 2.311059 15.878333 1.685713 18.760359 0s7.939166-8.86359 9.679258-5.709675-0.76129 5.437785-2.311058 8.86359-4.839629 5.05714-4.458984 7.585711 20.310128 14.953909 25.149756 13.594463 4.839629 4.649306 1.359447 5.709674-84.720694 1.876036-119.169064-13.295385-49.565413-30.805053-52.991218-36.596294-5.111518-51.767716 33.741458-34.529937z" fill="#FAC896" p-id="19763"></path><path d="M1005.718383 650.631006s-38.064497 15.144232-35.726249 35.69906c0 0-12.316584-8.673267-14.355753-15.388932s40.565878-29.907819 42.469103-28.657128a65.606879 65.606879 0 0 1 7.612899 8.347z" fill="#F39C55" p-id="19764"></path><path d="M990.003184 603.594164c0.2447 11.609672 2.28387 33.224868 13.295385 43.502282a0.978801 0.978801 0 0 1 0.271889 0.924423 0.815668 0.815668 0 0 1-0.570967 0.706912c-7.014743 2.338248-33.904591 13.458519-37.22164 33.93178a1.495391 1.495391 0 0 1-0.842857 1.141935 1.169124 1.169124 0 0 1-1.277879-0.217511c-6.035942-5.628108-23.708744-29.907819-12.642851-77.950652a24.116578 24.116578 0 0 1 6.57972-11.854372c5.138707-4.948385 13.757597-10.195847 24.089389-4.622117a16.829945 16.829945 0 0 1 8.319811 14.546075z" fill="#FCBC2E" p-id="19765"></path><path d="M1067.817891 621.566044a0.978801 0.978801 0 0 0-1.495391 0l-2.202303 2.501381a1.305068 1.305068 0 0 0 0 1.685714 0.951612 0.951612 0 0 0 1.468202 0l2.229492-2.501382a1.305068 1.305068 0 0 0 0-1.685713z m-12.452528 0a0.951612 0.951612 0 0 1 1.468202 0l2.229492 2.501381a1.305068 1.305068 0 0 1 0 1.658525 0.978801 0.978801 0 0 1-1.468202 0l-2.202303-2.501382a1.27788 1.27788 0 0 1 0-1.685713z m4.513362-16.993079a0.978801 0.978801 0 0 1-1.495391 0l-1.441013-1.604147a7.313821 7.313821 0 0 1 3.072348 0.163134 1.332257 1.332257 0 0 1-0.135944 1.441013z m-3.697694 37.928552a1.305068 1.305068 0 0 1 0-1.658524 0.978801 0.978801 0 0 1 1.468202 0l2.229492 2.501381a1.305068 1.305068 0 0 1 0 1.685713 0.978801 0.978801 0 0 1-1.495391 0z m1.386635 13.077874l-2.229492-2.501382a1.359446 1.359446 0 0 1-0.299078-1.169123 1.196313 1.196313 0 0 1 0.76129-0.842857 0.951612 0.951612 0 0 1 1.033179 0.326267l2.229492 2.501381a1.386635 1.386635 0 0 1 0.299078 1.169124 1.196313 1.196313 0 0 1-0.76129 0.870046 0.951612 0.951612 0 0 1-1.033179-0.353456z m-2.229492-23.436855a0.978801 0.978801 0 0 1 1.495391 0l2.229492 2.501381a1.359446 1.359446 0 0 1 0 1.685714 0.951612 0.951612 0 0 1-1.468202 0l-2.229492-2.501381a1.305068 1.305068 0 0 1 0-1.685714z m0-21.152984a0.978801 0.978801 0 0 1 1.495391 0l2.229492 2.501381a1.359446 1.359446 0 0 1 0.299078 1.169124 1.196313 1.196313 0 0 1-0.76129 0.842856 0.978801 0.978801 0 0 1-1.033179-0.326267l-2.229492-2.501381a1.27788 1.27788 0 0 1 0-1.685713z m10.250225 55.19352a0.978801 0.978801 0 0 1-1.495391 0 1.305068 1.305068 0 0 1 0-1.685713l2.229492-2.501382a0.951612 0.951612 0 0 1 1.033179-0.353456 1.196313 1.196313 0 0 1 0.76129 0.870046 1.305068 1.305068 0 0 1-0.299078 1.141935z m-10.250225-4.187095a0.951612 0.951612 0 0 1 1.495391 0l2.229492 2.501382a1.359446 1.359446 0 0 1 0.271889 1.033179l-3.996772-1.876036a1.27788 1.27788 0 0 1 0-1.658525z m10.250225-46.819331a0.951612 0.951612 0 0 1-1.00599 0.299078 1.141935 1.141935 0 0 1-0.76129-0.842856 1.413824 1.413824 0 0 1 0.271889-1.141935l2.229492-2.501381a0.978801 0.978801 0 0 1 1.495391 0 1.305068 1.305068 0 0 1 0 1.685713z m-2.28387 28.140539l2.202303-2.501381a0.978801 0.978801 0 0 1 1.468202 0 1.305068 1.305068 0 0 1 0 1.658524l-2.229492 2.501381a0.951612 0.951612 0 0 1-1.468202 0 1.250691 1.250691 0 0 1 0-1.685713z m4.513362 9.760824l-2.229492 2.501382a0.978801 0.978801 0 0 1-1.00599 0.326267 1.196313 1.196313 0 0 1-0.76129-0.842857 1.441013 1.441013 0 0 1 0.271889-1.169124l2.229492-2.501381a0.951612 0.951612 0 0 1 1.468202 0 1.305068 1.305068 0 0 1 0 1.658525z m0-19.249759l-2.229492 2.501381a0.978801 0.978801 0 0 1-1.033179 0.353456 1.141935 1.141935 0 0 1-0.76129-0.870046 1.386635 1.386635 0 0 1 0.299078-1.169124l2.229492-2.501381a0.978801 0.978801 0 0 1 1.033179-0.326267 1.196313 1.196313 0 0 1 0.76129 0.842857 1.359446 1.359446 0 0 1-0.299078 1.169124z m-113.622523 19.032248a0.978801 0.978801 0 0 1 1.495391 0l2.229492 2.52857a1.305068 1.305068 0 0 1 0 1.631336 0.978801 0.978801 0 0 1-1.468202 0l-2.229492-2.52857a1.305068 1.305068 0 0 1 0-1.685714z m11.473727 29.717497a1.359446 1.359446 0 0 1-0.788479 0.924423 1.169124 1.169124 0 0 1-1.114746 0l0.598157-0.679723a0.951612 0.951612 0 0 1 1.332257-0.135945z m-1.305068-80.696734a0.951612 0.951612 0 0 1 1.495391 0 1.27788 1.27788 0 0 1 0 1.658525l-2.229492 2.52857a0.951612 0.951612 0 0 1-1.005991 0.299078 1.114746 1.114746 0 0 1-0.734101-0.842857 1.223502 1.223502 0 0 1 0.27189-1.141934z m-7.123499 4.187095l-2.229492-2.52857a1.27788 1.27788 0 0 1 0-1.658525 0.951612 0.951612 0 0 1 1.495391 0l2.202303 2.501382a1.305068 1.305068 0 0 1 0.326267 1.169123 1.196313 1.196313 0 0 1-0.76129 0.842857 0.978801 0.978801 0 0 1-1.033179-0.326267z m-2.909215 16.993079a0.978801 0.978801 0 0 1 1.495391 0l2.229492 2.501381a1.359446 1.359446 0 0 1 0 1.658525 0.978801 0.978801 0 0 1-1.468202 0l-2.229492-2.501382a1.305068 1.305068 0 0 1 0-1.685713z m1.359446 40.348366l2.229492 2.501382a1.359446 1.359446 0 0 1 0 1.685713 0.951612 0.951612 0 0 1-1.468202 0l-2.229492-2.501381a1.305068 1.305068 0 0 1 0-1.685714 0.978801 0.978801 0 0 1 1.495391 0z m10.875571 12.262206l-2.229492 2.501381a0.951612 0.951612 0 0 1-1.468202 0 1.305068 1.305068 0 0 1 0-1.685713l2.202303-2.501381a0.978801 0.978801 0 0 1 1.468202 0 1.305068 1.305068 0 0 1 0 1.658524z m-12.235017-42.006891a0.924423 0.924423 0 0 1 1.468202 0l2.229492 2.501381a1.305068 1.305068 0 0 1 0 1.658525 0.978801 0.978801 0 0 1-1.468202 0l-2.202303-2.501381a1.305068 1.305068 0 0 1 0-1.685714z m11.63686 8.646079a1.305068 1.305068 0 0 1 0 1.685713l-2.202303 2.501381a0.978801 0.978801 0 0 1-1.495391 0 1.305068 1.305068 0 0 1 0-1.685713l2.202303-2.501381a0.978801 0.978801 0 0 1 1.495391 0z m-1.413824-44.888918a0.951612 0.951612 0 0 1-1.468202 0 1.305068 1.305068 0 0 1 0-1.685713l2.202303-2.501381a0.951612 0.951612 0 0 1 1.00599-0.299078 1.141935 1.141935 0 0 1 0.76129 0.842856 1.305068 1.305068 0 0 1-0.271889 1.141935z m2.229492 27.324871l-2.229492 2.501382a0.951612 0.951612 0 0 1-1.468202 0 1.305068 1.305068 0 0 1 0-1.685714l2.202303-2.501381a0.978801 0.978801 0 0 1 1.468202 0 1.305068 1.305068 0 0 1 0 1.658524z m0-10.576492l-2.229492 2.501381a0.951612 0.951612 0 0 1-1.468202 0 1.305068 1.305068 0 0 1 0-1.685713l2.202303-2.501381a0.951612 0.951612 0 0 1 1.033179-0.326268 1.114746 1.114746 0 0 1 0.734101 0.842857 1.27788 1.27788 0 0 1-0.271889 1.169124z m0 21.180174l-2.229492 2.501381a0.951612 0.951612 0 0 1-1.468202 0 1.305068 1.305068 0 0 1 0-1.685714l2.202303-2.501381a0.951612 0.951612 0 0 1 1.468202 0 1.359446 1.359446 0 0 1 0 1.685714z m0 19.22257l-2.229492 2.501382a0.951612 0.951612 0 0 1-1.468202 0 1.305068 1.305068 0 0 1 0-1.685714l2.202303-2.501381a0.978801 0.978801 0 0 1 1.468202 0 1.305068 1.305068 0 0 1 0 1.658525zM954.331313 612.484943a0.951612 0.951612 0 0 1 1.468202 0l2.229492 2.501381a1.305068 1.305068 0 0 1 0 1.658524 0.978801 0.978801 0 0 1-1.468202 0l-2.202303-2.501381a1.305068 1.305068 0 0 1 0-1.685713z m12.452528 52.692139l-2.229492 2.501381a0.951612 0.951612 0 0 1-1.441013 0 1.27788 1.27788 0 0 1 0-1.658525l2.093547-2.610137a0.951612 0.951612 0 0 1 1.468202 0 1.359446 1.359446 0 0 1 0 1.685714z m14.274186-12.289395l2.229492 2.501381a1.305068 1.305068 0 0 1 0 1.685714 0.978801 0.978801 0 0 1-1.495391 0l-2.202303-2.501382a1.250691 1.250691 0 0 1 0-1.685713 0.951612 0.951612 0 0 1 1.468202 0z m-1.468202-29.907819a0.951612 0.951612 0 0 1 1.468202 0l2.229492 2.501381a1.305068 1.305068 0 0 1 0 1.685714 0.978801 0.978801 0 0 1-1.495391 0l-2.202303-2.501381a1.305068 1.305068 0 0 1 0-1.685714z m0-10.576492a0.951612 0.951612 0 0 1 1.468202 0l2.229492 2.501381a1.305068 1.305068 0 0 1 0 1.685713 0.978801 0.978801 0 0 1-1.495391 0l-2.202303-2.501381a1.305068 1.305068 0 0 1 0-1.685713z m0 21.180173a0.924423 0.924423 0 0 1 1.468202 0l2.229492 2.501382a1.305068 1.305068 0 0 1 0 1.685713 0.978801 0.978801 0 0 1-1.495391 0l-2.202303-2.501381a1.305068 1.305068 0 0 1 0-1.685714z m12.452529 19.222571a0.842857 0.842857 0 0 1 0.135944 0.271889q-1.740091 0.897235-3.588938 1.957603l1.957603-2.229492a0.978801 0.978801 0 0 1 1.495391 0z m-10.875571-59.652504l2.229492 2.501381a1.305068 1.305068 0 0 1 0 1.685714 0.978801 0.978801 0 0 1-1.495391 0l-2.202303-2.501382a1.305068 1.305068 0 0 1 0-1.658524 0.978801 0.978801 0 0 1 1.468202 0z m0.815668 8.646079l2.229492 2.501381a1.305068 1.305068 0 0 1 0 1.685713 0.978801 0.978801 0 0 1-1.495391 0l-2.229492-2.501381a1.305068 1.305068 0 0 1 0-1.685713 0.978801 0.978801 0 0 1 1.495391 0z m0.734101 44.617028l-2.229492-2.501382a1.441013 1.441013 0 0 1-0.271889-1.169124 1.114746 1.114746 0 0 1 0.76129-0.815667 0.924423 0.924423 0 0 1 1.00599 0.299078l2.229492 2.501381a1.305068 1.305068 0 0 1 0 1.685714 0.978801 0.978801 0 0 1-1.495391 0z m6.960365-8.564512a0.978801 0.978801 0 0 1-1.495391 0 1.305068 1.305068 0 0 1 0-1.685714l2.229492-2.501381a0.951612 0.951612 0 0 1 1.495391 0 1.305068 1.305068 0 0 1 0 1.685714z m-2.28387-33.469568l2.202303-2.501382 0.217512-0.135944c0 0.543779 0 1.114746 0.135944 1.685713s0 0.924423 0 1.386635l-1.114746 1.27788a0.978801 0.978801 0 0 1-1.033179 0.326267 1.114746 1.114746 0 0 1-0.734101-0.842857 1.223502 1.223502 0 0 1 0.299078-1.169124z m2.202303 38.064496a0.978801 0.978801 0 0 1 1.495391 0 1.305068 1.305068 0 0 1 0 1.685714l-2.229492 2.501381a0.951612 0.951612 0 0 1-1.033179 0.326267 1.114746 1.114746 0 0 1-0.734101-0.842857 1.223502 1.223502 0 0 1 0.299078-1.169123z m-32.898601-47.906888l1.196313 1.332258a1.305068 1.305068 0 0 1 0 1.658524 0.978801 0.978801 0 0 1-1.468202 0l-1.141935-1.305068a17.156212 17.156212 0 0 1 1.441013-1.712903z m0.51659 52.093983l-2.202303-2.501381a1.250691 1.250691 0 0 1 0-1.685714 0.951612 0.951612 0 0 1 1.468202 0l2.229492 2.501382a1.305068 1.305068 0 0 1 0 1.658524 0.978801 0.978801 0 0 1-1.468202 0z m30.968187-49.076012a1.305068 1.305068 0 0 1 0-1.52258c0.299078 0.598156 0.543779 1.223502 0.788479 1.848847a0.924423 0.924423 0 0 1-0.706912-0.326267z m3.724883 27.324871l-2.229492 2.501381a0.978801 0.978801 0 0 1-1.495391 0 1.305068 1.305068 0 0 1 0-1.685713l2.229492-2.501382a0.978801 0.978801 0 0 1 1.495391 0l0.163133 0.27189a4.214284 4.214284 0 0 0 0.135945 0.625345 1.549769 1.549769 0 0 1-0.299078 0.788479z m-3.724883-8.156678a1.305068 1.305068 0 0 1 0-1.685713l2.229492-2.501382c0 0.978801 0.190322 1.984792 0.326267 2.990782l-1.114746 1.250691a0.978801 0.978801 0 0 1-1.495391 0z" fill="#EED095" p-id="19766"></path><path d="M957.648362 671.974313h0.788479c-0.326267-13.92073 37.928552-33.224868 38.309197-33.41519l-0.299078-0.815668c-1.604147 0.815668-39.124865 19.766349-38.798598 34.230858z" fill="#EDF2F9" p-id="19767"></path><path d="M1075.267657 654.926856l0.380645-0.761289c-0.706912-0.462212-17.319346-11.528105-24.035011-12.126262v0.897235c6.470964 0.543779 23.491232 11.881561 23.654366 11.990316z" fill="#EDF2F9" p-id="19768"></path><path d="M1048.160297 536.029682a2.120736 1.876036 90 1 0 3.752072 0 2.120736 1.876036 90 1 0-3.752072 0Z" fill="#231F20" p-id="19769"></path><path d="M1033.451088 526.94858a2.120736 1.876036 90 1 0 3.752072 0 2.120736 1.876036 90 1 0-3.752072 0Z" fill="#231F20" p-id="19770"></path><path d="M1050.552923 548.074376a8.156678 8.156678 0 1 0-7.232254-8.156678 7.748844 7.748844 0 0 0 7.232254 8.156678z m0-15.633632a7.531333 7.531333 0 1 1-6.606909 7.449765 7.069121 7.069121 0 0 1 6.606909-7.449765z" fill="#FFFFFF" p-id="19771"></path><path d="M1034.810535 536.437516a8.156678 8.156678 0 0 0 7.504143-5.655297 10.114281 10.114281 0 0 0-1.76728-10.005525 7.449766 7.449766 0 0 0-8.836401-1.984791 9.244235 9.244235 0 0 0-4.975574 8.482945 8.700456 8.700456 0 0 0 8.156678 9.162668z m0-17.536858a7.422577 7.422577 0 0 1 6.82442 5.165896 9.162668 9.162668 0 0 1-1.576958 9.108291 6.82442 6.82442 0 0 1-8.156678 1.821658 8.455756 8.455756 0 0 1-4.54055-7.721655 7.911978 7.911978 0 0 1 7.368199-8.37419z" fill="#FFFFFF" p-id="19772"></path><path d="M1045.713294 534.235213l-3.80645-3.262671-0.462211 0.679723 3.806449 3.28986 0.462212-0.706912z" fill="#FFFFFF" p-id="19773"></path><path d="M1055.881952 532.902955a0.734101 0.734101 0 0 0 0.652535-0.435023 0.978801 0.978801 0 0 0 0-0.870045s-1.821658-3.915205-4.458984-4.649307a0.76129 0.76129 0 0 0-0.924424 0.652535 0.897235 0.897235 0 0 0 0.543779 1.060368c1.631336 0.435023 3.04516 2.718893 3.480182 3.752072a0.734101 0.734101 0 0 0 0.706912 0.4894z" fill="#55312F" p-id="19774"></path><path d="M1042.967212 521.048583a0.734101 0.734101 0 0 0 0.679724-0.4894 0.951612 0.951612 0 0 0 0-0.924424c0-0.135945-2.419814-3.480183-5.111518-3.670505a0.788479 0.788479 0 0 0-0.815668 0.815668 0.897235 0.897235 0 0 0 0.190322 0.625345 0.842857 0.842857 0 0 0 0.51659 0.299078 6.960365 6.960365 0 0 1 3.996772 3.017971 0.76129 0.76129 0 0 0 0.543778 0.326267z" fill="#55312F" p-id="19775"></path><path d="M1038.616984 543.42507c1.794469 0 3.969583-7.205065 4.594929-9.38018a0.489401 0.489401 0 0 0 0-0.435023 0.326267 0.326267 0 0 0-0.380645 0 0.407834 0.407834 0 0 0-0.299078 0.299079c-1.196313 4.187095-3.04516 8.727645-3.915206 8.782023s-1.604147-0.435023-2.936404-2.718893v-0.135945a0.353456 0.353456 0 0 0-0.516589 0 0.489401 0.489401 0 0 0 0 0.598157c1.114746 1.930414 2.28387 2.990782 3.452993 2.990782z" fill="#F39C55" p-id="19776"></path><path d="M1034.266756 550.385435a5.437785 5.437785 0 0 0 1.169124 0 0.652534 0.652534 0 0 0 0.462212-0.76129 0.570967 0.570967 0 0 0-0.652535-0.51659 4.29585 4.29585 0 0 1-5.220273-3.317049 0.570967 0.570967 0 0 0-0.679724-0.516589 0.652534 0.652534 0 0 0-0.462211 0.76129 5.138707 5.138707 0 0 0 5.383407 4.350228z" fill="#F97700" p-id="19777"></path><path d="M1052.347392 627.547608s0.978801 19.222571-8.428567 51.251126c0 0-7.232254-3.452994-7.612899-4.703684s9.760825-25.883858 16.041466-46.547442z" fill="#FCA22E" p-id="19778"></path><path d="M1142.342738 766.319887s15.171421 69.63084 1.386635 116.74925l10.250226 14.953909s6.987554-67.890749-11.636861-131.703159z" fill="#2253F6" p-id="19779"></path></svg>