<?xml version="1.0" standalone="no"?><!DOCTYPE svg PUBLIC "-//W3C//DTD SVG 1.1//EN" "http://www.w3.org/Graphics/SVG/1.1/DTD/svg11.dtd"><svg t="1764319432190" class="icon" viewBox="0 0 1024 1024" version="1.1" xmlns="http://www.w3.org/2000/svg" p-id="7342" xmlns:xlink="http://www.w3.org/1999/xlink" width="200" height="200"><path d="M762.88 291.84l-250.88 136.533333-244.053333-126.293333L512 163.84z" p-id="7343"></path><path d="M708.266667 430.08c-3.413333 0-8.533333-1.706667-11.946667-3.413333L305.493333 208.213333c-11.946667-6.826667-17.066667-22.186667-10.24-34.133333s22.186667-17.066667 34.133334-10.24l390.826666 218.453333c11.946667 6.826667 17.066667 22.186667 10.24 34.133334-5.12 8.533333-13.653333 13.653333-22.186666 13.653333z" p-id="7344"></path><path d="M512 965.973333c-18.773333 0-39.253333-5.12-56.32-15.36l-305.493333-170.666666c-35.84-20.48-56.32-56.32-56.32-95.573334V344.746667c0-39.253333 22.186667-76.8 56.32-95.573334l305.493333-170.666666c34.133333-18.773333 76.8-18.773333 112.64 0l305.493333 170.666666c35.84 20.48 56.32 56.32 56.32 95.573334v339.626666c0 39.253333-22.186667 76.8-56.32 95.573334l-305.493333 170.666666c-17.066667 10.24-37.546667 15.36-56.32 15.36z m0-849.92c-10.24 0-22.186667 3.413333-30.72 8.533334l-305.493333 170.666666c-18.773333 10.24-30.72 30.72-30.72 51.2v339.626667c0 20.48 11.946667 40.96 30.72 51.2l305.493333 170.666667c18.773333 10.24 42.666667 10.24 61.44 0l305.493333-170.666667c18.773333-10.24 30.72-30.72 30.72-51.2v-341.333333c0-20.48-11.946667-40.96-30.72-51.2l-305.493333-170.666667c-8.533333-5.12-20.48-6.826667-30.72-6.826667z m392.533333 568.32z" p-id="7345"></path><path d="M512 541.013333c-5.12 0-8.533333-1.706667-11.946667-3.413333L119.466667 322.56c-11.946667-6.826667-17.066667-22.186667-10.24-34.133333s22.186667-17.066667 34.133333-10.24L512 486.4l368.64-208.213333c11.946667-6.826667 27.306667-3.413333 34.133333 10.24 6.826667 11.946667 3.413333 27.306667-10.24 34.133333L523.946667 537.6c-3.413333 1.706667-6.826667 3.413333-11.946667 3.413333z" p-id="7346"></path><path d="M512 969.386667c-13.653333 0-25.6-11.946667-25.6-25.6V515.413333c0-13.653333 11.946667-25.6 25.6-25.6s25.6 11.946667 25.6 25.6v428.373334c0 13.653333-11.946667 25.6-25.6 25.6z" p-id="7347"></path></svg>