<?xml version="1.0" standalone="no"?><!DOCTYPE svg PUBLIC "-//W3C//DTD SVG 1.1//EN" "http://www.w3.org/Graphics/SVG/1.1/DTD/svg11.dtd"><svg t="1752744187480" class="icon" viewBox="0 0 1024 1024" version="1.1" xmlns="http://www.w3.org/2000/svg" p-id="1334" xmlns:xlink="http://www.w3.org/1999/xlink" width="200" height="200"><path d="M880.94340741 778.99851852a38.64196741 38.64196741 0 0 0-13.67032416-29.360128l0.11650845-0.13592652-135.92651852-116.50844445-0.11650843 0.13592653c-6.79632592-5.82542222-15.51504118-9.47602015-25.165824-9.47602016s-18.36949808 3.65059792-25.165824 9.47602016l-0.11650845-0.13592653-135.92651852 116.50844445 0.11650844 0.13592652A38.64196741 38.64196741 0 0 0 531.41807408 778.99851852a38.83614815 38.83614815 0 0 0 38.83614814 38.83614815c9.65078282 0 18.36949808-3.65059792 25.165824-9.47602015l0.11650845 0.13592651L667.34459259 746.93927822V939.19762963a38.83614815 38.83614815 0 1 0 77.6722963 0v-192.25835141l71.80803793 61.55529481 0.11650843-0.13592651c6.79632592 5.82542222 15.51504118 9.47602015 25.165824 9.47602015a38.83614815 38.83614815 0 0 0 38.83614816-38.83614815z" p-id="1335"></path><path d="M978.03377778 492.58192592c0-136.68382341-108.70237867-247.69695289-244.318208-252.0271834C700.41357275 128.08525748 596.44920415 45.96622222 473.16385185 45.96622222c-141.44125155 0-257.56133452 108.04216415-270.55202607 246.08525275C111.48280415 323.7029357 45.96622222 410.09394725 45.96622222 512c0 128.68357689 104.333312 233.01688889 233.01688889 233.01688889h155.34459259a38.83614815 38.83614815 0 1 0 0-77.6722963h-155.34459259c-85.65312475 0-155.34459259-69.69146785-155.34459259-155.34459259a155.42226489 155.42226489 0 0 1 104.44982045-146.58704118l47.16650192-16.38885452 4.67975586-49.71026963A193.17100089 193.17100089 0 0 1 473.16385185 123.63851852c80.97336889 0 153.92707318 51.51615052 181.86968178 126.70293333C550.00117097 280.88608237 473.16385185 377.68518163 473.16385185 492.58192592a38.83614815 38.83614815 0 1 0 77.6722963 0c0-95.59517867 77.16742637-173.40340148 172.45191585-174.64615822l7.9419923 0.25243497A173.85001718 173.85001718 0 0 1 900.36148148 492.58192592a172.78202311 172.78202311 0 0 1-13.76741451 66.83701097l0.67963258-0.54370607 0.01941808 0.01941807a38.83614815 38.83614815 0 0 0 71.28374992 30.73881126L958.6157037 589.6722963c12.48582163-29.90383408 19.41807408-62.68154311 19.41807408-97.09037038z" p-id="1336"></path></svg>