<?xml version="1.0" standalone="no"?><!DOCTYPE svg PUBLIC "-//W3C//DTD SVG 1.1//EN" "http://www.w3.org/Graphics/SVG/1.1/DTD/svg11.dtd"><svg t="1752744494008" class="icon" viewBox="0 0 1024 1024" version="1.1" xmlns="http://www.w3.org/2000/svg" p-id="1364" xmlns:xlink="http://www.w3.org/1999/xlink" width="200" height="200"><path d="M716.8 441.6H307.2c-4.69333333 0-8.53333333 3.84-8.53333333 8.53333333v428.8c0 4.69333333 3.84 8.53333333 8.53333333 8.53333334h409.6c4.69333333 0 8.53333333-3.84 8.53333333-8.53333334V450.13333333c0-4.69333333-3.84-8.53333333-8.53333333-8.53333333z m-349.86666667 68.26666667h290.13333334v124.8H366.93333333V509.86666667z m290.13333334 309.33333333H366.93333333V694.4h290.13333334v124.8z" p-id="1365"></path><path d="M418.13333333 763.73333333a34.13333333 34.13333333 0 1 0 68.26666667 0 34.13333333 34.13333333 0 1 0-68.26666667 0zM418.13333333 573.86666667a34.13333333 34.13333333 0 1 0 68.26666667 0 34.13333333 34.13333333 0 1 0-68.26666667 0z" p-id="1366"></path><path d="M831.36 359.36C782.50666667 230.4 658.02666667 138.66666667 512.21333333 138.66666667S241.92 230.29333333 193.06666667 359.25333333C101.22666667 383.46666667 33.6 467.41333333 34.13333333 567.04 34.77333333 678.4 121.17333333 768.96 229.97333333 778.66666667c5.01333333 0.42666667 9.28-3.52 9.28-8.53333334v-64.42666666c0-4.26666667-3.2-7.89333333-7.46666666-8.42666667-28.8-3.62666667-56-16.21333333-76.90666667-36.8-25.6-25.06666667-39.68-58.77333333-39.68-94.50666667 0-29.86666667 9.70666667-58.02666667 27.94666667-81.49333333 17.81333333-22.82666667 42.88-39.36 70.50666666-46.61333333l40.42666667-10.66666667 14.82666667-39.14666667c9.17333333-24.32 21.97333333-47.14666667 38.08-67.73333333 15.89333333-20.48 34.77333333-38.4 55.89333333-53.33333333 43.84-30.82666667 95.46666667-47.14666667 149.33333333-47.14666667s105.49333333 16.32 149.33333334 47.25333333c21.22666667 14.93333333 40 32.85333333 55.89333333 53.33333334 16.10666667 20.58666667 28.90666667 43.41333333 38.08 67.73333333l14.72 39.04 40.32 10.66666667c57.81333333 15.36 98.24 67.94666667 98.24 128 0 35.84-14.08 69.44-39.68 94.50666666-20.8 20.48-47.89333333 33.17333333-76.69333333 36.8-4.26666667 0.53333333-7.36 4.16-7.36 8.42666667V770.13333333c0 5.01333333 4.37333333 8.96 9.38666666 8.53333334 108.48-9.81333333 194.66666667-100.26666667 195.41333334-211.41333334 0.64-99.62666667-66.88-183.57333333-158.50666667-207.89333333z" p-id="1367"></path></svg>