<?xml version="1.0" standalone="no"?><!DOCTYPE svg PUBLIC "-//W3C//DTD SVG 1.1//EN" "http://www.w3.org/Graphics/SVG/1.1/DTD/svg11.dtd"><svg t="1752743802406" class="icon" viewBox="0 0 1024 1024" version="1.1" xmlns="http://www.w3.org/2000/svg" p-id="1617" xmlns:xlink="http://www.w3.org/1999/xlink" width="200" height="200"><path d="M810.666667 256h42.666666a128 128 0 0 1 128 128v363.221333A106.112 106.112 0 0 1 875.221333 853.333333h-53.76a42.666667 42.666667 0 0 0-38.442666 24.277334l-26.026667 54.442666a85.333333 85.333333 0 0 1-155.648-3.584l-20.693333-49.066666a42.666667 42.666667 0 0 0-39.296-26.069334h-113.92a42.666667 42.666667 0 0 1 0-85.333333h113.92a128 128 0 0 1 117.930666 78.250667l20.693334 49.066666 26.026666-54.485333A128 128 0 0 1 821.504 768h53.717333c11.477333 0 20.778667-9.301333 20.778667-20.778667V384a42.666667 42.666667 0 0 0-42.666667-42.666667h-42.666666v255.317334a128.128 128.128 0 0 1-127.872 128.298666h-213.589334c-35.712 0-90.197333 22.485333-115.370666 47.530667l-37.418667 37.205333C272.981333 852.906667 213.333333 829.098667 213.333333 767.232h85.333334v0.682667H213.333333c0-24.277333-19.541333-44.373333-43.605333-44.885334A130.261333 130.261333 0 0 1 42.666667 593.450667V255.658667A127.744 127.744 0 0 1 170.410667 128h512.512A128.085333 128.085333 0 0 1 810.666667 256zM298.666667 767.914667H213.333333v-0.682667h85.333334v0.682667z m-10.24-50.688l5.248-5.248c41.130667-40.96 117.290667-72.362667 175.530666-72.362667h213.589334c23.381333 0 42.538667-19.2 42.538666-42.965333V256.298667C725.333333 232.576 706.218667 213.333333 682.922667 213.333333H170.410667A42.410667 42.410667 0 0 0 128 255.658667v337.792c0 23.68 19.669333 43.733333 43.605333 44.288A130.133333 130.133333 0 0 1 288.426667 717.226667z" p-id="1618"></path><path d="M256 384h341.333333a42.666667 42.666667 0 0 0 0-85.333333H256a42.666667 42.666667 0 1 0 0 85.333333zM256 554.666667h256a42.666667 42.666667 0 0 0 0-85.333334H256a42.666667 42.666667 0 1 0 0 85.333334z" p-id="1619"></path></svg>