<?xml version="1.0" standalone="no"?><!DOCTYPE svg PUBLIC "-//W3C//DTD SVG 1.1//EN" "http://www.w3.org/Graphics/SVG/1.1/DTD/svg11.dtd"><svg t="1752743958542" class="icon" viewBox="0 0 1024 1024" version="1.1" xmlns="http://www.w3.org/2000/svg" p-id="1214" xmlns:xlink="http://www.w3.org/1999/xlink" width="200" height="200"><path d="M806.99999961 962H194.50000039c-42.50000039-5.0000001-77.5000002-37.50000029-82.50000029-82.50000029V144.50000029C117.0000002 101.9999999 152 67.0000001 194.50000039 62h409.99999922l287.50000078 287.4999999v532.50000029c-7.49999971 42.50000039-42.50000039 74.99999971-85.00000078 79.99999981z m0-612.5000001h-162.49999922c-22.5-2.49999961-39.9999999-20.00000039-40.00000078-39.9999999V144.50000029H234.50000029c-22.5-2.49999961-39.9999999 15.00000029-39.9999999 37.49999942v657.50000009c5.0000001 20.00000039 20.00000039 37.50000029 39.9999999 39.99999991h532.49999942c22.5-2.49999961 39.9999999-20.00000039 39.9999999-39.99999991V349.4999999z m-122.49999932 450H274.5000002c-22.5 0-39.9999999-17.4999999-39.99999991-39.9999999 0-22.5 17.4999999-39.9999999 39.9999999-39.9999999h410.0000001c22.5 0 39.9999999 17.4999999 39.9999999 39.9999999 0 20.00000039-17.4999999 39.9999999-39.9999999 39.9999999zM274.5000002 551.9999999h204.9999996c22.5 0 39.9999999 17.4999999 39.99999991 39.9999999 0 22.5-17.4999999 39.9999999-39.99999991 39.99999991H274.5000002c-22.5 0-39.9999999-17.4999999-39.99999991-39.99999991 0-20.00000039 17.4999999-39.9999999 39.9999999-39.9999999z m410.00000009-79.9999998H274.5000002c-22.5 0-39.9999999-17.4999999-39.99999991-39.9999999 0-22.5 17.4999999-39.9999999 39.9999999-39.99999991h410.0000001c22.5 0 39.9999999 17.4999999 39.9999999 39.99999991 0 20.00000039-17.4999999 39.9999999-39.9999999 39.9999999z" p-id="1215"></path></svg>