<?xml version="1.0" standalone="no"?><!DOCTYPE svg PUBLIC "-//W3C//DTD SVG 1.1//EN" "http://www.w3.org/Graphics/SVG/1.1/DTD/svg11.dtd"><svg t="1752982439870" class="icon" viewBox="0 0 1066 1024" version="1.1" xmlns="http://www.w3.org/2000/svg" p-id="42162" xmlns:xlink="http://www.w3.org/1999/xlink" width="208.203125" height="200"><path d="M167.637333 0H898.986667C996.565333 0 1045.333333 48.768 1045.333333 146.304V877.653333c0 97.536-48.768 146.304-146.304 146.304H167.68C70.101333 1024 21.333333 975.232 21.333333 877.696V146.346667C21.333333 48.768 70.101333 0 167.637333 0z" fill="#D9DADC" p-id="42163"></path><path d="M741.546667 869.973333a9.770667 9.770667 0 0 1-6.954667-2.986666v-0.128a9.770667 9.770667 0 0 1-1.962667-10.496 118.4 118.4 0 0 0-1.109333-80.426667 219.434667 219.434667 0 0 0-12.885333-30.421333 28.330667 28.330667 0 0 1 4.096-34.432c14.464-16.64 22.058667-38.058667 21.290666-60.074667a134.869333 134.869333 0 0 0-11.52-68.608 60.16 60.16 0 0 0-6.613333-10.112 31.872 31.872 0 0 1 0.384-43.733333 93.696 93.696 0 0 0 10.624-106.666667 88.448 88.448 0 0 0-68.992-52.096 25.984 25.984 0 0 0-4.48-0.341333 94.037333 94.037333 0 0 0-10.026667 0.682666l-3.584 0.341334c-2.432 0.170667-4.266667 0.256-6.186666 0.256a28.544 28.544 0 0 1-28.501334-19.2 93.866667 93.866667 0 0 0-82.901333-50.346667c-16.341333 0-32.341333 4.778667-45.994667 13.738667a92.202667 92.202667 0 0 0-36.010666 38.4 27.861333 27.861333 0 0 1-31.786667 17.066666 79.573333 79.573333 0 0 0-12.885333-1.066666 83.797333 83.797333 0 0 0-68.010667 38.997333 100.864 100.864 0 0 0-15.018667 89.301333c4.821333 11.093333 10.965333 21.632 18.261334 31.274667l0.853333 1.194667c8.661333 11.562667 9.258667 27.306667 1.536 39.509333l-1.536 2.432a93.866667 93.866667 0 0 0-12.970667 23.466667 147.626667 147.626667 0 0 0 1.024 93.610666c3.029333 7.168 7.253333 13.824 12.416 19.669334 10.368 10.368 12.288 26.453333 4.693334 38.997333a165.802667 165.802667 0 0 0-19.328 68.010667c-0.938667 13.866667 1.493333 27.733333 7.168 40.490666a9.514667 9.514667 0 0 1-0.597334 9.258667 9.770667 9.770667 0 0 1-8.192 4.48H282.88a9.770667 9.770667 0 0 1-9.557333-7.68 209.237333 209.237333 0 0 1 12.202666-124.928 7.765333 7.765333 0 0 0-0.256-3.754667v-0.128a194.730667 194.730667 0 0 1-15.445333-146.645333c1.792-7.082667 4.266667-13.994667 7.296-20.650667 1.792-4.394667 3.541333-8.490667 4.864-12.586666a10.24 10.24 0 0 0 0.170667-3.157334 151.808 151.808 0 0 1-15.018667-132.053333c8.917333-29.866667 26.88-56.32 51.498667-75.562667 1.194667-0.853333 1.536-1.194667 0.938666-5.418666-7.850667-42.666667-4.736-86.656 9.045334-127.829334 4.608-12.416 11.221333-24.064 19.498666-34.432 9.941333-13.056 25.386667-20.864 41.813334-21.12a57.173333 57.173333 0 0 1 44.672 23.509334c16.896 24.149333 27.477333 52.138667 30.72 81.450666a151.765333 151.765333 0 0 1 68.010666-16.768c23.594667 0.213333 46.890667 5.973333 67.882667 16.768a7.466667 7.466667 0 0 0 0.256-1.408c2.261333-10.538667 4.48-21.376 7.125333-32 4.266667-19.370667 13.482667-37.290667 26.837334-51.968 10.410667-12.074667 25.472-19.2 41.429333-19.712 20.736 0.938667 39.381333 12.757333 49.152 31.018667 14.677333 23.466667 22.698667 50.389333 23.210667 78.037333 0.426667 25.088-0.512 50.176-2.773334 75.136-0.128 3.413333 0 3.541333 0.938667 4.266667 17.408 13.610667 31.488 30.976 41.173333 50.858667a154.026667 154.026667 0 0 1-3.84 156.672 7.765333 7.765333 0 0 0-0.256 3.754666 206.762667 206.762667 0 0 1 8.704 154.752c-2.133333 6.4-4.949333 12.586667-8.448 18.346667a126.634667 126.634667 0 0 0-4.864 8.96c16.981333 39.765333 21.845333 83.669333 13.994667 126.208a9.770667 9.770667 0 0 1-9.557333 8.106667l-42.752-0.085334zM389.717333 217.728c-4.693333 9.813333-8.32 20.053333-10.88 30.592a182.869333 182.869333 0 0 0-2.901333 65.109333c0.725333 0 1.450667 0 2.304-0.256 7.850667-0.938667 15.232-1.92 22.954667-2.432 7.68-0.554667 7.296-1.024 7.296-7.04a552.832 552.832 0 0 0-1.536-34.133333 121.173333 121.173333 0 0 0-16.042667-51.584c-0.426667-0.384-0.512-0.853333-0.725333-1.109333l-0.469334 0.853333z m283.264 4.266667a166.869333 166.869333 0 0 0-14.848 84.437333c0 1.408 0.256 2.816 0.725334 4.138667h0.981333c8.96 0.682667 17.834667 1.536 27.52 2.432a24.704 24.704 0 0 0 2.901333 0.256c0-2.432 0-5.205333 0.170667-7.850667a333.226667 333.226667 0 0 0-0.768-40.96 185.088 185.088 0 0 0-10.410667-39.893333l-1.408-4.224a8.618667 8.618667 0 0 0-1.834666-2.432 28.8 28.8 0 0 0-3.029334 4.096z m-144 411.221333a139.136 139.136 0 0 1-66.176-13.44 86.442667 86.442667 0 0 1-45.44-58.922667 83.925333 83.925333 0 0 1 17.066667-69.802666 126.762667 126.762667 0 0 1 99.072-45.354667c13.909333 0 27.733333 2.218667 40.96 6.528a106.026667 106.026667 0 0 1 69.461333 59.349333c8.618667 19.413333 9.472 41.386667 2.474667 61.44-7.594667 19.370667-21.930667 35.370667-40.362667 45.013334a121.685333 121.685333 0 0 1-76.8 15.232h-0.256zM473.6 516.181333a39.466667 39.466667 0 0 0-11.093333 34.56 39.424 39.424 0 0 0 22.229333 28.245334 89.941333 89.941333 0 0 0 46.762667 8.106666h7.936c2.56 0 4.608 0.128 6.784 0.128 2.432 0 4.864-0.085333 7.296-0.384a57.429333 57.429333 0 0 0 44.117333-21.930666 39.338667 39.338667 0 0 0-13.738667-56.064 82.688 82.688 0 0 0-50.517333-16.341334 83.498667 83.498667 0 0 0-59.733333 23.765334l-0.042667-0.085334z m58.965333 62.592a21.76 21.76 0 0 1-18.261333-7.850666 20.778667 20.778667 0 0 1-2.986667-18.858667 10.453333 10.453333 0 0 0 0.469334-2.304c-0.213333 0-0.597333-0.469333-1.322667-0.938667-17.792-12.373333-12.202667-25.258667-8.789333-30.336a19.328 19.328 0 0 1 16.896-9.301333c3.669333 0.213333 7.296 0.853333 10.837333 1.92l1.28 0.384h0.896a14.933333 14.933333 0 0 0 3.84-0.469333c3.456-0.981333 6.997333-1.536 10.581333-1.706667a19.925333 19.925333 0 0 1 17.28 9.386667 20.394667 20.394667 0 0 1-7.765333 29.269333c-2.432 1.706667-2.986667 2.048-1.92 6.784a19.114667 19.114667 0 0 1-3.285333 16.512 20.906667 20.906667 0 0 1-16.981334 7.552l-0.768-0.042667z m153.6-52.437333a40.021333 40.021333 0 0 1-37.205333-40.234667 34.133333 34.133333 0 0 1 34.688-33.962666h0.384a38.784 38.784 0 0 1 38.058667 40.021333 35.072 35.072 0 0 1-35.754667 34.133333l-0.170667 0.042667z m-306.730666-2.432a36.565333 36.565333 0 0 1-25.130667-9.770667 32.426667 32.426667 0 0 1-10.496-24.362666 38.314667 38.314667 0 0 1 37.930667-40.021334h0.384a34.56 34.56 0 0 1 34.688 33.962667v1.194667a39.978667 39.978667 0 0 1-37.12 38.997333h-0.256z" fill="#323233" p-id="42164"></path></svg>