<?xml version="1.0" standalone="no"?><!DOCTYPE svg PUBLIC "-//W3C//DTD SVG 1.1//EN" "http://www.w3.org/Graphics/SVG/1.1/DTD/svg11.dtd"><svg t="1752983111573" class="icon" viewBox="0 0 1024 1024" version="1.1" xmlns="http://www.w3.org/2000/svg" p-id="57814" xmlns:xlink="http://www.w3.org/1999/xlink" width="200" height="200"><path d="M58.521212 0h904.311688c21.277922 17.729829 40.784457 37.236364 58.514286 58.514286v904.311688c-17.729829 21.277922-37.236364 40.784457-58.514286 58.514286h-904.311688c-21.277922-17.729829-40.784457-37.236364-58.514286-58.514286v-904.311688c17.729829-21.277922 37.236364-40.784457 58.514286-58.514286z" fill="#0388FF" p-id="57815"></path><path d="M191.508225 191.501299v638.337662h21.277922c-7.548343 5.058826-16.410597 6.830213-26.597402 5.319481-1.766068-215.454919 0.005319-430.010847 5.31948-643.657143z" fill="#9DD1FF" p-id="57816"></path><path d="M191.508225 191.501299h21.277922v638.337662h-21.277922v-638.337662z" fill="#F8FBFF" p-id="57817"></path><path d="M244.70303 191.501299v638.337662h15.958442v-638.337662a19474.240499 19474.240499 0 0 1 5.31948 643.657143h-26.597402c-1.766068-215.454919 0.005319-430.010847 5.31948-643.657143z" fill="#A9D6FF" p-id="57818"></path><path d="M244.70303 191.501299h15.958442v638.337662h-15.958442v-638.337662z" fill="#FEFFFE" p-id="57819"></path><path d="M297.897835 191.501299v638.337662h15.958442v-638.337662a19474.240499 19474.240499 0 0 1 5.319481 643.657143h-26.597403c-1.766068-215.454919 0.005319-430.010847 5.31948-643.657143z" fill="#AED9FF" p-id="57820"></path><path d="M297.897835 191.501299h15.958442v638.337662h-15.958442v-638.337662z" fill="#FEFFFE" p-id="57821"></path><path d="M707.497835 191.501299v638.337662h21.277923c-7.548343 5.058826-16.410597 6.830213-26.597403 5.319481-1.766068-215.454919 0.005319-430.010847 5.31948-643.657143z" fill="#7AC0FF" p-id="57822"></path><path d="M707.497835 191.501299h21.277923v638.337662h-21.277923v-638.337662z" fill="#F5FAFF" p-id="57823"></path><path d="M760.692641 191.501299v638.337662h21.277922c-7.548343 5.058826-16.410597 6.830213-26.597403 5.319481-1.766068-215.454919 0.005319-430.010847 5.319481-643.657143z" fill="#96CEFF" p-id="57824"></path><path d="M760.692641 191.501299h21.277922v638.337662h-21.277922v-638.337662z" fill="#F7FBFF" p-id="57825"></path><path d="M813.887446 191.501299v638.337662h15.958441v-638.337662a19466.936852 19466.936852 0 0 1 5.319481 643.657143h-26.597403c-1.766068-215.454919 0.005319-430.010847 5.319481-643.657143z" fill="#D2E9FF" p-id="57826"></path><path d="M813.887446 191.501299h15.958441v638.337662h-15.958441v-638.337662z" fill="#FEFFFE" p-id="57827"></path><path d="M670.261472 228.737662c6.032291 13.117839 6.920644 27.304894 2.65974 42.555844l-117.028571 170.223377c-13.649787 20.639584-22.512042 18.868197-26.597403-5.31948a7882.065787 7882.065787 0 0 0 140.966234-207.459741z" fill="#EDF6FF" p-id="57828"></path><path d="M345.77316 239.376623a23823.862691 23823.862691 0 0 1 236.716883 329.807793c5.12266 25.139865-1.968208 30.459345-21.277922 15.958441a9003.348447 9003.348447 0 0 0-212.779221-303.210389 172.54799 172.54799 0 0 1-2.65974-42.555845z" fill="#EFF7FF" p-id="57829"></path><path d="M670.261472 324.488312c6.032291 13.117839 6.920644 27.304894 2.65974 42.555844a3782.709195 3782.709195 0 0 1-98.410389 138.306493c-9.341008-8.995242-12.000748-19.634203-7.979221-31.916883a3520.027927 3520.027927 0 0 0 103.72987-148.945454z" fill="#EEF6FF" p-id="57830"></path><path d="M345.77316 329.807792a18027.081143 18027.081143 0 0 1 204.8 287.251948c3.319356 10.44746 0.659616 19.315034-7.979221 26.597403a5661.443325 5661.443325 0 0 1-194.161039-271.293507 172.54799 172.54799 0 0 1-2.65974-42.555844z" fill="#EDF6FF" p-id="57831"></path><path d="M670.261472 420.238961c6.005694 11.319855 6.894047 23.735522 2.65974 37.236364l-58.514286 85.111688c-3.819387 5.058826-8.250514 5.94186-13.298701 2.65974-5.606732-7.383439-6.489766-15.36266-2.65974-23.937662 23.990857-33.842535 47.928519-67.536125 71.812987-101.07013zM345.77316 425.558442a2451.727294 2451.727294 0 0 1 175.542857 247.355844c-2.287377 7.628135-6.723823 13.835969-13.298701 18.618182a8072.832997 8072.832997 0 0 1-159.584416-228.737663 132.662525 132.662525 0 0 1-2.65974-37.236363z" fill="#EFF7FF" p-id="57832"></path></svg>